<svg width="116" height="116" viewBox="0 0 116 116" fill="none" xmlns="http://www.w3.org/2000/svg">
<g filter="url(#filter0_d)">
<rect x="4" width="108" height="108" rx="21" fill="white"/>
</g>
<path d="M56.7867 25.2404C57.0112 24.5494 57.9888 24.5494 58.2133 25.2404L60.6892 32.8604C61.1243 34.1995 62.3722 35.1061 63.7801 35.1061H71.7924C72.5189 35.1061 72.821 36.0358 72.2332 36.4629L65.7512 41.1724C64.6121 42 64.1355 43.4669 64.5705 44.806L67.0465 52.426C67.271 53.117 66.4801 53.6916 65.8923 53.2646L59.4103 48.5551C58.2712 47.7275 56.7288 47.7275 55.5897 48.5551L49.1077 53.2646C48.5199 53.6916 47.729 53.117 47.9536 52.426L50.4295 44.806C50.8646 43.4669 50.3879 42 49.2488 41.1724L42.7668 36.4629C42.179 36.0358 42.4811 35.1061 43.2077 35.1061H51.2199C52.6278 35.1061 53.8757 34.1995 54.3108 32.8604L56.7867 25.2404Z" stroke="#E18370" stroke-width="2.5"/>
<path d="M49.25 64C49.25 63.3096 48.6904 62.75 48 62.75C47.3096 62.75 46.75 63.3096 46.75 64H49.25ZM68.25 64C68.25 63.3096 67.6904 62.75 67 62.75C66.3096 62.75 65.75 63.3096 65.75 64H68.25ZM65.2842 90.241L66.179 89.3681L65.2842 90.241ZM56.7842 82.9947L55.8894 82.1219L56.7842 82.9947ZM49.7158 90.241L48.821 89.3681L49.7158 90.241ZM46.75 64V89.5427H49.25V64H46.75ZM50.6106 91.1138L57.679 83.8676L55.8894 82.1219L48.821 89.3681L50.6106 91.1138ZM57.321 83.8676L64.3894 91.1138L66.179 89.3681L59.1106 82.1219L57.321 83.8676ZM68.25 89.5427V64H65.75V89.5427H68.25ZM64.3894 91.1138C65.7985 92.5584 68.25 91.5608 68.25 89.5427H65.75C65.75 89.5047 65.7642 89.4482 65.8007 89.3969C65.8331 89.3513 65.8716 89.325 65.9058 89.3111C65.9399 89.2973 65.9858 89.2891 66.0408 89.2992C66.1028 89.3105 66.1524 89.3409 66.179 89.3681L64.3894 91.1138ZM57.679 83.8676C57.5809 83.9681 57.4191 83.9681 57.321 83.8676L59.1106 82.1219C58.2277 81.2167 56.7723 81.2167 55.8894 82.1219L57.679 83.8676ZM46.75 89.5427C46.75 91.5608 49.2015 92.5584 50.6106 91.1138L48.821 89.3681C48.8476 89.3409 48.8972 89.3105 48.9592 89.2992C49.0142 89.2891 49.0601 89.2973 49.0942 89.3111C49.1284 89.325 49.1669 89.3513 49.1993 89.3969C49.2358 89.4482 49.25 89.5047 49.25 89.5427H46.75Z" fill="#E18370"/>
<path d="M80.75 40C80.75 52.5403 70.365 62.75 57.5 62.75C44.635 62.75 34.25 52.5403 34.25 40C34.25 27.4597 44.635 17.25 57.5 17.25C70.365 17.25 80.75 27.4597 80.75 40Z" stroke="#E18370" stroke-width="2.5"/>
<defs>
<filter id="filter0_d" x="0" y="0" width="116" height="116" filterUnits="userSpaceOnUse" color-interpolation-filters="sRGB">
<feFlood flood-opacity="0" result="BackgroundImageFix"/>
<feColorMatrix in="SourceAlpha" type="matrix" values="0 0 0 0 0 0 0 0 0 0 0 0 0 0 0 0 0 0 127 0"/>
<feOffset dy="4"/>
<feGaussianBlur stdDeviation="2"/>
<feColorMatrix type="matrix" values="0 0 0 0 0.882353 0 0 0 0 0.513726 0 0 0 0 0.439216 0 0 0 0.25 0"/>
<feBlend mode="normal" in2="BackgroundImageFix" result="effect1_dropShadow"/>
<feBlend mode="normal" in="SourceGraphic" in2="effect1_dropShadow" result="shape"/>
</filter>
</defs>
</svg>
