<svg width="12" height="26" viewBox="0 0 12 26" fill="none" xmlns="http://www.w3.org/2000/svg">
<path d="M1.07501 26C0.635819 25.9644 0.290433 25.7053 0.0942878 25.1972C-0.0975935 24.6942 0.00900724 24.1353 0.362922 23.7085C0.942829 23.0124 1.527 22.3213 2.10691 21.6303C4.48197 18.8002 6.8613 15.965 9.23636 13.1349C9.35149 12.9977 9.34723 12.9977 9.2321 12.8605C6.28992 9.35458 3.34348 5.84868 0.401298 2.3377C0.230737 2.13446 0.0900237 1.91089 0.0345914 1.62636C-0.101857 0.915013 0.230737 0.244319 0.823436 0.05124C1.2541 -0.0910285 1.61228 0.071564 1.91503 0.432316C2.58022 1.21987 3.24114 2.00743 3.90206 2.79499C6.47327 5.85884 9.04022 8.9227 11.6114 11.9815C11.8801 12.3016 12.0293 12.6674 11.9952 13.1247C11.9696 13.4702 11.8289 13.7547 11.6242 13.9986C9.3387 16.7322 7.04465 19.4607 4.75061 22.1943C3.81678 23.3071 2.88296 24.4147 1.9534 25.5275C1.77005 25.751 1.55259 25.9035 1.30101 25.9797C1.24131 26 1.16882 25.9949 1.07501 26Z" fill="black"/>
</svg>
