<svg width="71" height="70" fill="none" xmlns="http://www.w3.org/2000/svg"><path d="M70.933 7.809c0 4.006-1.285 7.853-3.533 11.058-1.125 1.603-2.088 3.206-3.373 4.809-1.767 2.404-4.016 3.686-7.067 4.007-1.767.16-3.534.16-5.14.48-1.285.16-2.409.962-3.212 1.924C38.328 42.909 28.049 55.57 17.77 68.233c-2.249 2.885-7.388 2.083-9.155-1.283-1.124-2.243-.803-4.648.964-6.41C20.66 49.16 31.743 37.78 42.986 26.4c1.607-1.602 2.41-3.365 2.249-5.61-.16-1.121-.16-2.403-.16-3.525-.161-2.885.802-5.29 2.89-7.373 1.928-1.923 4.016-3.686 6.104-5.289C57.602 1.878 61.618.756 66.115.756c2.73 0 4.337 1.603 4.818 4.168-.16.961 0 1.923 0 2.885zm-2.088 0c0-.802-.16-1.603-.16-2.405C68.363 3.641 67.72 3 65.955 3c-4.177 0-8.032 1.282-11.404 4.007-1.607 1.282-3.213 2.725-4.819 4.167-1.445 1.283-2.409 2.725-2.409 4.648a20.96 20.96 0 000 4.488c.321 3.045-.642 5.45-2.891 7.693-8.834 8.976-17.507 17.951-26.18 26.766-2.41 2.404-4.819 4.969-7.228 7.373-1.285 1.443-1.124 3.686.482 4.969 1.445 1.122 3.694.961 4.818-.32 10.28-12.663 20.398-25.164 30.678-37.826 1.285-1.763 3.051-2.725 5.3-2.885 1.285-.16 2.73-.16 4.015-.32 2.57-.16 4.498-1.123 6.104-3.206 1.124-1.603 2.248-3.366 3.373-4.969 1.927-3.045 2.89-6.25 3.051-9.777z" fill="#E18370"/><path d="M16.967 20.31c-.16-.16-.482-.32-.643-.48L5.242 8.77c-.16-.32-.321-.48-.643-.641-.32-.48-.32-.962 0-1.282.482-.481.964-.481 1.446-.16.321 0 .482.32.642.48l11.083 11.06c.16.16.321.48.642.8.322-.32.482-.64.803-.8-.16-.16-.32-.481-.642-.642L7.49 6.526c-.161-.32-.322-.48-.482-.64-.322-.482-.322-.962 0-1.443.32-.32.963-.481 1.445-.16.16.16.321.32.643.48l11.082 11.06c.16.16.321.48.482.64.964-.64 1.124-.961.321-1.763L10.702 4.443C9.9 3.802 9.258 3 9.74 1.878c.482-1.923 2.57-2.404 4.015-1.282 3.213 2.725 6.586 5.45 9.798 8.174 1.285 1.122 2.73 2.244 4.015 3.366 1.928 1.763 3.052 4.007 3.052 6.571v4.167c0 1.924.643 3.527 2.088 4.809.482.48 1.124.961 1.606 1.442.643.481.643 1.122.16 1.603-.481.48-1.123.48-1.605 0-3.213-2.404-4.658-5.45-4.337-9.456.16-1.443-.16-2.885-.482-4.328-.321-1.282-1.124-2.244-2.088-3.045-4.497-3.686-8.834-7.533-13.33-11.22 0-.16 0-.32-.161-.32s-.482 0-.643-.16c0 .16 0 .48.16.64 0 .161.322.321.322.321l9.958 9.938c1.606 1.602 1.606 3.045 0 4.808l-4.337 4.327c-1.284 1.283-2.89 1.283-4.336 0L3.314 11.976l-.481-.481H2.35v.48c0 .161.16.321.321.321 3.855 4.488 7.549 8.976 11.404 13.463 1.445 1.764 3.533 2.405 5.782 2.405 1.767 0 3.533 0 5.3.16 1.606.16 3.052 1.122 4.176 2.404.643.641 1.124 1.282 1.767 1.923.482.641.482 1.122 0 1.603-.482.48-1.124.32-1.606-.16-.482-.481-.964-.962-1.446-1.603-1.285-1.603-2.89-2.244-4.979-2.244-1.767 0-3.533 0-5.3-.16-2.088-.32-4.015-1.282-5.461-2.885-3.855-4.488-7.71-9.136-11.404-13.624-.642-.8-1.124-1.602-.803-2.564.643-1.923 2.73-2.404 4.176-.962a1399443.911 1399443.911 0 0110.44 10.418c1.124.962 1.446.802 2.249-.16zM64.67 69.996c-1.446 0-2.731-.48-3.855-1.603-6.746-7.373-13.331-14.585-20.077-21.958l-.321-.32c-.482-.481-.482-.962 0-1.603.481-.48 1.124-.32 1.606.16 1.124 1.283 2.409 2.565 3.533 3.847C51.178 54.609 56.64 60.7 62.26 66.79c.964.962 2.249 1.283 3.534.802 1.285-.481 2.248-1.763 2.409-3.045.16-1.122-.321-2.084-1.124-2.725-6.907-6.25-13.653-12.341-20.56-18.592-.642-.641-1.284-1.122-1.926-1.763-.643-.641-.804-1.282-.322-1.763.482-.481 1.125-.481 1.606.16L56.96 49.962c3.855 3.365 7.549 6.891 11.404 10.257 1.927 1.763 2.409 3.847 1.445 6.25-.642 2.245-2.73 3.527-5.14 3.527z" fill="#E18370"/></svg>