<svg width="116" height="116" viewBox="0 0 116 116" fill="none" xmlns="http://www.w3.org/2000/svg">
<g filter="url(#filter0_d)">
<rect x="4" width="108" height="108" rx="21" fill="white"/>
</g>
<path d="M96 25.3662C96 29.6593 94.6233 33.7807 92.2141 37.2152C91.0095 38.9324 89.9769 40.6496 88.6002 42.3669C86.7073 44.9428 84.2981 46.3166 81.0284 46.66C79.1354 46.8317 77.2425 46.8317 75.5216 47.1752C74.1449 47.3469 72.9403 48.2055 72.0799 49.2359C61.0663 62.9738 50.0527 76.54 39.0391 90.1063C36.6299 93.1973 31.1231 92.3387 29.2302 88.7325C28.0255 86.3283 28.3697 83.7525 30.2627 81.8635C42.1367 69.6711 54.0107 57.4786 66.0568 45.2862C67.7777 43.569 68.6381 41.68 68.466 39.2759C68.2939 38.0738 68.2939 36.7 68.2939 35.4979C68.1219 32.4069 69.1544 29.831 71.3915 27.5986C73.4566 25.5379 75.6937 23.6489 77.9308 21.9317C81.7168 19.0124 86.0189 17.8103 90.8374 17.8103C93.7628 17.8103 95.4837 19.5275 96 22.2751C95.8279 23.3055 96 24.3358 96 25.3662ZM93.7628 25.3662C93.7628 24.5076 93.5908 23.6489 93.5908 22.7903C93.2466 20.9013 92.5582 20.2144 90.6653 20.2144C86.191 20.2144 82.0609 21.5882 78.4471 24.5076C76.7262 25.8813 75.0053 27.4269 73.2845 28.9724C71.7357 30.3462 70.7032 31.8917 70.7032 33.9524C70.5311 35.4979 70.5311 37.2152 70.7032 38.7607C71.0473 42.0234 70.0148 44.5993 67.6056 47.0034C58.1408 56.62 48.8481 66.2366 39.5554 75.6814C36.9741 78.2573 34.3928 81.0049 31.8115 83.5807C30.4348 85.1263 30.6069 87.5304 32.3277 88.9042C33.8765 90.1063 36.2857 89.9345 37.4903 88.5608C48.5039 74.9945 59.3454 61.6 70.359 48.0338C71.7357 46.1448 73.6287 45.1145 76.0379 44.9428C77.4146 44.771 78.9634 44.771 80.3401 44.5993C83.0934 44.4276 85.1585 43.3972 86.8794 41.1648C88.084 39.4476 89.2886 37.5586 90.4932 35.8414C92.5582 32.5786 93.5908 29.1441 93.7628 25.3662Z" fill="#E18370"/>
<path d="M38.1787 38.7607C38.0066 38.589 37.6624 38.4173 37.4904 38.2456C33.5324 34.2959 29.5743 30.3463 25.6163 26.3966C25.4443 26.0531 25.2722 25.8814 24.928 25.7097C24.5838 25.1945 24.5838 24.6793 24.928 24.3359C25.4443 23.8207 25.9605 23.8207 26.4768 24.1642C26.821 24.1642 26.993 24.5076 27.1651 24.6793C31.1231 28.629 35.0811 32.5787 39.0391 36.5283C39.2112 36.7001 39.3833 37.0435 39.7275 37.387C40.0717 37.0435 40.2438 36.7001 40.5879 36.5283C40.4158 36.3566 40.2438 36.0132 39.8996 35.8414C35.9416 31.8918 31.9836 27.9421 28.0256 23.9925C27.8535 23.649 27.6814 23.4773 27.5093 23.3056C27.1651 22.7904 27.1651 22.2752 27.5093 21.76C27.8535 21.4166 28.5418 21.2449 29.0581 21.5883C29.2302 21.76 29.4023 21.9318 29.7464 22.1035C33.7044 26.0531 37.6624 30.0028 41.6204 33.9525C41.7925 34.1242 41.9646 34.4676 42.1367 34.6394C43.1692 33.9525 43.3413 33.609 42.4809 32.7504C38.8671 29.1442 35.0811 25.3662 31.4673 21.76C30.6069 21.0731 29.9185 20.2145 30.4348 19.0124C30.951 16.9518 33.1882 16.4366 34.737 17.6387C38.1787 20.558 41.7925 23.4773 45.2343 26.3966C46.611 27.5987 48.1598 28.8007 49.5365 30.0028C51.6015 31.8918 52.8061 34.2959 52.8061 37.0435C52.8061 38.589 52.8061 39.9628 52.8061 41.5083C52.8061 43.569 53.4945 45.2863 55.0433 46.6601C55.5595 47.1752 56.2479 47.6904 56.7641 48.2056C57.4525 48.7208 57.4525 49.4077 56.9362 49.9228C56.4199 50.438 55.7316 50.438 55.2153 49.9228C51.7736 47.347 50.2248 44.0842 50.569 39.7911C50.7411 38.2456 50.3969 36.7001 50.0527 35.1545C49.7085 33.7807 48.8481 32.7504 47.8156 31.8918C42.9971 27.9421 38.3508 23.8207 33.5324 19.8711C33.5324 19.6993 33.5324 19.5276 33.3603 19.5276C33.1882 19.5276 32.844 19.5276 32.6719 19.3559C32.6719 19.5276 32.6719 19.8711 32.844 20.0428C32.844 20.2145 33.1882 20.3862 33.1882 20.3862C36.802 23.9925 40.2438 27.4269 43.8576 31.0332C45.5785 32.7504 45.5785 34.2959 43.8576 36.1849C42.3088 37.7304 40.76 39.2759 39.2112 40.8214C37.8345 42.1952 36.1137 42.1952 34.5649 40.8214C30.951 37.2152 27.1651 33.4373 23.5513 29.8311C23.3792 29.6594 23.2071 29.4876 23.035 29.3159C22.8629 29.3159 22.6909 29.3159 22.5188 29.3159C22.5188 29.4876 22.5188 29.6594 22.5188 29.8311C22.5188 30.0028 22.6909 30.1745 22.8629 30.1745C26.993 34.9828 30.951 39.7911 35.0811 44.5994C36.6299 46.4883 38.8671 47.1752 41.2763 47.1752C43.1692 47.1752 45.0622 47.1752 46.9552 47.347C48.676 47.5187 50.2248 48.549 51.4294 49.9228C52.1178 50.6097 52.634 51.2966 53.3224 51.9835C53.8386 52.6704 53.8386 53.1856 53.3224 53.7008C52.8061 54.2159 52.1178 54.0442 51.6015 53.529C51.0852 53.0139 50.569 52.4987 50.0527 51.8118C48.676 50.0946 46.9552 49.4077 44.718 49.4077C42.8251 49.4077 40.9321 49.4077 39.0391 49.2359C36.802 48.8925 34.737 47.8621 33.1882 46.1449C29.0581 41.3366 24.928 36.3566 20.97 31.5483C20.2816 30.6897 19.7654 29.8311 20.1096 28.8007C20.7979 26.74 23.035 26.2249 24.5838 27.7704C27.3372 30.518 30.0906 33.2656 32.844 36.0132C33.8765 37.0435 34.737 37.9021 35.7695 38.9325C36.9741 39.9628 37.3183 39.7911 38.1787 38.7607Z" fill="#E18370"/>
<path d="M89.2886 91.9955C87.7398 91.9955 86.3631 91.4803 85.1585 90.2783C77.9309 82.3789 70.8753 74.6513 63.6476 66.752C63.4755 66.5803 63.4755 66.5803 63.3034 66.4086C62.7872 65.8934 62.7872 65.3782 63.3034 64.6913C63.8197 64.1761 64.5081 64.3479 65.0243 64.863C66.2289 66.2368 67.6056 67.6106 68.8102 68.9844C74.8333 75.51 80.6842 82.0355 86.7073 88.561C87.7398 89.5914 89.1165 89.9348 90.4932 89.4196C91.8699 88.9045 92.9024 87.5307 93.0745 86.1569C93.2466 84.9548 92.7303 83.9244 91.8699 83.2376C84.4702 76.5403 77.2425 70.0148 69.8428 63.3175C69.1544 62.6306 68.4661 62.1155 67.7777 61.4286C67.0894 60.7417 66.9173 60.0548 67.4335 59.5396C67.9498 59.0244 68.6381 59.0244 69.1544 59.7113C73.1124 63.3175 77.0704 66.9237 81.0284 70.5299C85.1585 74.1362 89.1165 77.9141 93.2466 81.5203C95.3117 83.4093 95.8279 85.6417 94.7954 88.2176C94.107 90.6217 91.8699 91.9955 89.2886 91.9955Z" fill="#E18370"/>
<defs>
<filter id="filter0_d" x="0" y="0" width="116" height="116" filterUnits="userSpaceOnUse" color-interpolation-filters="sRGB">
<feFlood flood-opacity="0" result="BackgroundImageFix"/>
<feColorMatrix in="SourceAlpha" type="matrix" values="0 0 0 0 0 0 0 0 0 0 0 0 0 0 0 0 0 0 127 0"/>
<feOffset dy="4"/>
<feGaussianBlur stdDeviation="2"/>
<feColorMatrix type="matrix" values="0 0 0 0 0.882353 0 0 0 0 0.513726 0 0 0 0 0.439216 0 0 0 0.25 0"/>
<feBlend mode="normal" in2="BackgroundImageFix" result="effect1_dropShadow"/>
<feBlend mode="normal" in="SourceGraphic" in2="effect1_dropShadow" result="shape"/>
</filter>
</defs>
</svg>
