<svg width="67" height="70" fill="none" xmlns="http://www.w3.org/2000/svg"><path d="M5.182 61.294C3.141 60.63 1.57 59.301.628 57.141.314 56.145 0 54.982 0 53.985V30.398c0-4.153 2.827-8.306 7.852-8.306h38.472c2.67 0 4.868.997 6.438 3.323.785 1.328 1.256 2.657 1.256 4.318v24.418c0 3.987-2.983 7.31-6.752 7.475H16.803c-.629 0-.943.166-1.414.665L8.951 69.1c-.785.83-1.57 1.163-2.513.665-.942-.333-1.256-1.33-1.256-2.326.157-2.16 0-4.153 0-6.146zm2.198 6.312l.629-.664 6.438-6.81c.628-.665 1.256-.831 2.041-.831H47.11c2.669-.166 4.867-2.492 4.867-5.316V29.733c0-1.162-.471-2.325-1.1-3.322-1.255-1.495-2.826-1.993-4.553-1.993H7.852c-3.455 0-5.654 2.325-5.654 5.98v23.089c0 2.658 1.728 5.316 4.083 5.814.785.166 1.1.664 1.1 1.495v6.81z" fill="#E18370"/><path d="M61.242 39.368v6.146c0 .997-.314 1.827-1.256 2.325-.785.333-1.727.167-2.355-.664l-1.257-1.329c-.47-.498-.47-.996 0-1.495.471-.498.942-.498 1.413 0 .472.333.786.83 1.1 1.33 0 0 .157 0 .157-.167v-4.153-2.657c0-1.163.157-1.33 1.256-1.662 2.198-.664 3.298-2.159 3.926-4.318.157-.333 0-.831 0-1.163V7.973c0-3.488-2.042-5.814-5.34-5.814H20.258c-1.099 0-2.198 0-3.14.665-1.728.997-2.67 2.658-2.67 4.817v10.631c0 .498-.157.997-.471 1.329-.628.498-1.57 0-1.57-.997 0-3.82-.157-7.807 0-11.627C12.563 3.322 15.546 0 19.943 0h38.944c3.925 0 6.752 2.658 7.38 6.644v25.083c0 3.488-1.727 6.146-4.71 7.475 0 0-.158 0-.315.166z" fill="#E18370"/><path d="M39.414 11.13H21.67c-.471-.167-.942-.5-.785-.998 0-.332.47-.83.785-.996.157-.166.628-.166.942-.166h34.076c1.099 0 1.57.332 1.57 1.162 0 .831-.471 1.163-1.57 1.163-5.81-.166-11.464-.166-17.274-.166zM47.737 17.608h-9.579c-.47-.166-.942-.498-.785-.997 0-.332.471-.83.785-.996.157-.167.628-.167.942-.167h17.588c.942 0 1.413.333 1.413 1.163 0 .665-.471 1.163-1.413 1.163-2.984-.166-5.967-.166-8.95-.166zM28.109 17.608h-5.653c-.314 0-.629 0-.943-.167-.314-.166-.628-.664-.628-.996 0-.332.314-.83.628-.997.314-.166.628-.166.943-.166h11.149c.314 0 .628 0 .942.166.471.166.785.498.785.997 0 .498-.314.996-.785.996h-1.1c-1.884.167-3.611.167-5.338.167zM56.06 24.252h-1.256c-.471 0-.785-.499-.785-.997s.157-.997.785-.997h2.512c.471 0 .785.499.785.997s-.314.997-.785.997H56.06zM58.101 29.733c0 .665-.47.997-1.099.997-.628 0-1.1-.498-1.1-.997 0-.664.472-.996 1.1-1.162.785 0 1.1.498 1.1 1.162zM27.01 33.056H10.05c-.314 0-.785 0-.942-.166-.314-.166-.628-.664-.785-.997 0-.332.314-.664.628-.996.157-.166.628-.166.785-.166H44.754c.47.166.785.498.785.996 0 .665-.314.997-.942.997h-.942c-5.34.332-10.992.332-16.646.332zM27.009 52.823H9.107c-.47-.166-.942-.498-.785-.997 0-.332.471-.83.785-.996.157-.166.629-.166.943-.166h34.232c.942 0 1.414.332 1.414 1.162 0 .665-.472 1.163-1.414 1.163-5.81-.166-11.463-.166-17.273-.166zM32.191 39.534H20.414c-1.1 0-1.57-.332-1.57-1.163 0-.83.47-1.163 1.57-1.163h23.869c.942 0 1.413.333 1.413 1.163 0 .665-.471 1.163-1.57 1.163H32.19zM18.215 46.178h-8.95c-.471-.166-.943-.498-.785-.996 0-.332.47-.83.785-.997.157-.166.628-.166.785-.166h16.488c1.1 0 1.57.332 1.57 1.163 0 .83-.47 1.163-1.57 1.163-2.826-.166-5.653-.166-8.323-.166zM38.001 46.179h-6.124c-.314 0-.628 0-.942-.167-.314-.332-.628-.664-.785-.996 0-.332.314-.83.628-.997.157-.166.628-.166.942-.166h12.406c.942 0 1.413.332 1.413 1.163 0 .664-.471 1.163-1.413 1.163H38zM12.562 37.375h2.984c.314 0 .785.332.942.664.157.166 0 .664-.157.997-.157.166-.628.498-.942.498H9.265c-.785 0-1.1-.498-1.1-1.163 0-.664.472-.996 1.1-1.163 1.256.167 2.355.167 3.297.167z" fill="#E18370"/></svg>