<svg width="116" height="116" viewBox="0 0 116 116" fill="none" xmlns="http://www.w3.org/2000/svg">
<g filter="url(#filter0_d)">
<rect x="4" width="108" height="108" rx="21" fill="white"/>
</g>
<path d="M30.5521 86.6725C28.3649 85.9606 26.6825 84.5369 25.673 82.2232C25.3365 81.1553 25 79.9095 25 78.8417C25 70.4769 25 61.9341 25 53.5694C25 49.12 28.0284 44.6707 33.4123 44.6707C42.4976 44.6707 51.7512 44.6707 60.8365 44.6707C65.3791 44.6707 69.9218 44.6707 74.6327 44.6707C77.4929 44.6707 79.8483 45.7385 81.5308 48.2301C82.372 49.6539 82.8768 51.0777 82.8768 52.8575C82.8768 61.5782 82.8768 70.2989 82.8768 79.0196C82.8768 83.291 79.6801 86.8505 75.6422 87.0285C74.6327 87.0285 73.455 87.0285 72.4455 87.0285C62.6872 87.0285 52.9289 87.0285 43.0024 87.0285C42.3294 87.0285 41.9929 87.2065 41.4881 87.7404C39.1327 90.232 36.9455 92.5457 34.59 95.0373C33.7488 95.9272 32.9076 96.2831 31.8981 95.7492C30.8886 95.3933 30.5521 94.3254 30.5521 93.2576C30.7204 90.9439 30.5521 88.8082 30.5521 86.6725ZM32.9076 93.4356C33.2441 93.0796 33.4123 92.9016 33.5806 92.7237C35.936 90.232 38.1232 87.9184 40.4787 85.4267C41.1517 84.7148 41.8246 84.5368 42.6659 84.5368C53.2654 84.5368 63.8649 84.5368 74.2962 84.5368C74.6327 84.5368 75.1374 84.5368 75.4739 84.5368C78.3341 84.3589 80.6896 81.8672 80.6896 78.8417C80.6896 70.1209 80.6896 61.4002 80.6896 52.8575C80.6896 51.6116 80.1848 50.3658 79.5118 49.298C78.1659 47.6962 76.4834 47.1623 74.6327 47.1623C65.3791 47.1623 56.1256 47.1623 46.872 47.1623C42.3294 47.1623 37.955 47.1623 33.4123 47.1623C29.7109 47.1623 27.3555 49.6539 27.3555 53.5694C27.3555 61.7562 27.3555 70.1209 27.3555 78.3078C27.3555 81.1553 29.2062 84.0029 31.7299 84.5368C32.5711 84.7148 32.9076 85.2487 32.9076 86.1386C32.9076 88.4523 32.9076 90.7659 32.9076 93.4356Z" fill="#E18370"/>
<path d="M90.6162 63.1799C90.6162 65.4935 90.6162 67.6292 90.6162 69.7649C90.6162 70.8327 90.2797 71.7226 89.2702 72.2565C88.429 72.6125 87.4195 72.4345 86.7465 71.5446C86.2417 71.0107 85.9053 70.6548 85.4005 70.1208C84.8958 69.5869 84.8958 69.053 85.4005 68.5191C85.9053 67.9852 86.41 67.9852 86.9147 68.5191C87.4195 68.875 87.756 69.409 88.0925 69.9429C88.0925 69.9429 88.2607 69.9429 88.2607 69.7649C88.2607 68.3411 88.2607 66.7393 88.2607 65.3156C88.2607 64.4257 88.2607 63.5358 88.2607 62.468C88.2607 61.2221 88.429 61.0442 89.6067 60.6882C91.9621 59.9763 93.1399 58.3746 93.8128 56.0609C93.9811 55.7049 93.8128 55.171 93.8128 54.8151C93.8128 46.4503 93.8128 38.0855 93.8128 29.5428C93.8128 25.8053 91.6256 23.3137 88.0925 23.3137C87.4195 23.3137 86.7465 23.3137 85.9053 23.3137C72.782 23.3137 59.8271 23.3137 46.7038 23.3137C45.5261 23.3137 44.3484 23.3137 43.3389 24.0256C41.4882 25.0934 40.4787 26.8731 40.4787 29.1868C40.4787 32.9243 40.4787 36.8397 40.4787 40.5772C40.4787 41.1111 40.3105 41.645 39.974 42.0009C39.301 42.5349 38.2915 42.0009 38.2915 40.9331C38.2915 36.8397 38.1233 32.5683 38.2915 28.4749C38.4598 24.5595 41.6564 21 46.3673 21C60.3318 21 74.128 21 88.0925 21C92.2986 21 95.3271 23.8476 96 28.119C96 28.4749 96 29.0088 96 29.5428C96 38.0855 96 46.4503 96 54.993C96 58.7305 94.1493 61.5781 90.9526 63.0019C90.9526 63.0019 90.7844 63.0019 90.6162 63.1799Z" fill="#E18370"/>
<path d="M67.2299 32.924C61.173 32.924 55.2844 32.924 49.2275 32.924C48.891 32.924 48.5545 32.924 48.218 32.924C47.7133 32.746 47.2086 32.3901 47.3768 31.8562C47.3768 31.5002 47.8815 30.9663 48.218 30.7883C48.3863 30.6103 48.891 30.6104 49.2275 30.6104C61.3413 30.6104 73.6232 30.6104 85.737 30.6104C86.9147 30.6104 87.4195 30.9663 87.4195 31.8562C87.4195 32.746 86.9147 33.102 85.737 33.102C79.5119 32.924 73.455 32.924 67.2299 32.924Z" fill="#E18370"/>
<path d="M76.1469 39.8654C73.1185 39.8654 69.9218 39.8654 66.8934 39.8654C66.5569 39.8654 66.2204 39.8654 65.8839 39.8654C65.3791 39.6874 64.8744 39.3315 65.0427 38.7976C65.0427 38.4416 65.5474 37.9077 65.8839 37.7297C66.0521 37.5518 66.5569 37.5518 66.8934 37.5518C73.1185 37.5518 79.3436 37.5518 85.5687 37.5518H85.737C86.7464 37.5518 87.2512 37.9077 87.2512 38.7976C87.2512 39.5095 86.7464 40.0434 85.737 40.0434C82.5403 39.8654 79.3436 39.8654 76.1469 39.8654Z" fill="#E18370"/>
<path d="M55.1161 39.8652C53.0972 39.8652 51.0782 39.8652 49.0592 39.8652C48.7227 39.8652 48.3863 39.8652 48.0498 39.6872C47.7133 39.5092 47.3768 38.9753 47.3768 38.6194C47.3768 38.2634 47.7133 37.7295 48.0498 37.5515C48.3863 37.3735 48.7227 37.3735 49.0592 37.3735C53.0971 37.3735 56.9668 37.3735 61.0047 37.3735C61.3412 37.3735 61.6777 37.3735 62.0142 37.5515C62.519 37.7295 62.8554 38.0854 62.8554 38.6194C62.8554 39.1533 62.519 39.6872 62.0142 39.6872C61.6777 39.6872 61.173 39.6872 60.8365 39.6872C58.8175 39.8652 56.9668 39.8652 55.1161 39.8652Z" fill="#E18370"/>
<path d="M85.064 46.9838C84.5592 46.9838 84.2228 46.9838 83.718 46.9838C83.2133 46.9838 82.8768 46.4499 82.8768 45.916C82.8768 45.3821 83.045 44.8481 83.718 44.8481C84.5592 44.8481 85.5687 44.8481 86.41 44.8481C86.9147 44.8481 87.2512 45.3821 87.2512 45.916C87.2512 46.4499 86.9147 46.9838 86.41 46.9838C85.9052 46.9838 85.5687 46.9838 85.064 46.9838Z" fill="#E18370"/>
<path d="M87.2512 52.8574C87.2512 53.5693 86.7465 53.9252 86.0735 53.9252C85.4005 53.9252 84.8958 53.3913 84.8958 52.8574C84.8958 52.1455 85.4005 51.7895 86.0735 51.6116C86.9147 51.6116 87.2512 52.1455 87.2512 52.8574Z" fill="#E18370"/>
<path d="M53.9384 56.4172C47.8815 56.4172 41.8247 56.4172 35.7678 56.4172C35.4313 56.4172 34.9266 56.4172 34.7583 56.2392C34.4218 56.0612 34.0853 55.5273 33.9171 55.1714C33.9171 54.8154 34.2536 54.4595 34.5901 54.1035C34.7583 53.9255 35.2631 53.9255 35.4313 53.9255C47.7133 53.9255 59.827 53.9255 72.109 53.9255C72.4455 53.9255 72.6138 53.9255 72.9503 53.9255C73.455 54.1035 73.7915 54.4595 73.7915 54.9934C73.7915 55.7053 73.455 56.0612 72.782 56.0612C72.4455 56.0612 72.109 56.0612 71.7725 56.0612C66.0521 56.4172 59.9953 56.4172 53.9384 56.4172Z" fill="#E18370"/>
<path d="M53.9384 77.5959C47.8815 77.5959 41.8247 77.5959 35.7678 77.5959C35.4313 77.5959 35.0948 77.5959 34.7583 77.5959C34.2536 77.4179 33.7488 77.062 33.9171 76.528C33.9171 76.1721 34.4218 75.6382 34.7583 75.4602C34.9265 75.2822 35.4313 75.2822 35.7678 75.2822C47.8815 75.2822 60.1635 75.2822 72.2773 75.2822H72.4455C73.455 75.2822 73.9597 75.6382 73.9597 76.528C73.9597 77.2399 73.455 77.7739 72.4455 77.7739C66.2204 77.5959 60.1635 77.5959 53.9384 77.5959Z" fill="#E18370"/>
<path d="M59.4906 63.3576C55.2844 63.3576 51.0782 63.3576 46.8721 63.3576C45.6943 63.3576 45.1896 63.0017 45.1896 62.1118C45.1896 61.2219 45.6943 60.866 46.8721 60.866C55.2844 60.866 63.865 60.866 72.2773 60.866H72.4455C73.455 60.866 73.9597 61.2219 73.9597 62.1118C73.9597 62.8237 73.455 63.3576 72.2773 63.3576C68.0711 63.3576 63.865 63.3576 59.4906 63.3576Z" fill="#E18370"/>
<path d="M44.5166 70.477C41.6564 70.477 38.628 70.477 35.7678 70.477C35.4313 70.477 35.263 70.477 34.9266 70.477C34.4218 70.299 33.9171 69.9431 34.0853 69.4091C34.0853 69.0532 34.5901 68.5193 34.9266 68.3413C35.0948 68.1633 35.5995 68.1633 35.7678 68.1633C41.6564 68.1633 47.545 68.1633 53.4337 68.1633C54.6114 68.1633 55.1161 68.5193 55.1161 69.4091C55.1161 70.299 54.6114 70.655 53.4337 70.655C50.4052 70.477 47.3768 70.477 44.5166 70.477Z" fill="#E18370"/>
<path d="M65.7157 70.4767C63.5285 70.4767 61.3412 70.4767 59.154 70.4767C58.8176 70.4767 58.4811 70.4767 58.1446 70.2988C57.8081 69.9428 57.4716 69.5869 57.3033 69.2309C57.3033 68.875 57.6398 68.3411 57.9763 68.1631C58.1446 67.9851 58.6493 67.9851 58.9858 67.9851C63.3602 67.9851 67.7346 67.9851 72.109 67.9851H72.2773C73.2868 67.9851 73.7915 68.3411 73.7915 69.2309C73.7915 69.9428 73.2868 70.4767 72.2773 70.4767C70.0901 70.4767 67.9029 70.4767 65.7157 70.4767Z" fill="#E18370"/>
<path d="M38.4597 61.0439C39.4692 61.0439 40.6469 61.0439 41.6564 61.0439C41.9929 61.0439 42.4976 61.3999 42.6659 61.7558C42.8341 61.9338 42.6659 62.4677 42.4976 62.8237C42.3294 63.0017 41.8246 63.3576 41.4881 63.3576C39.3009 63.3576 37.1137 63.3576 34.9265 63.3576C34.0853 63.3576 33.7488 62.8237 33.7488 62.1118C33.7488 61.3999 34.2536 61.0439 34.9265 60.866C36.2725 61.0439 37.4502 61.0439 38.4597 61.0439Z" fill="#E18370"/>
<defs>
<filter id="filter0_d" x="0" y="0" width="116" height="116" filterUnits="userSpaceOnUse" color-interpolation-filters="sRGB">
<feFlood flood-opacity="0" result="BackgroundImageFix"/>
<feColorMatrix in="SourceAlpha" type="matrix" values="0 0 0 0 0 0 0 0 0 0 0 0 0 0 0 0 0 0 127 0"/>
<feOffset dy="4"/>
<feGaussianBlur stdDeviation="2"/>
<feColorMatrix type="matrix" values="0 0 0 0 0.882353 0 0 0 0 0.513726 0 0 0 0 0.439216 0 0 0 0.25 0"/>
<feBlend mode="normal" in2="BackgroundImageFix" result="effect1_dropShadow"/>
<feBlend mode="normal" in="SourceGraphic" in2="effect1_dropShadow" result="shape"/>
</filter>
</defs>
</svg>
