<svg width="89" height="93" viewBox="0 0 89 93" fill="none" xmlns="http://www.w3.org/2000/svg">
<path d="M31.6637 36.4902C31.3601 36.4902 30.9958 36.4902 30.6922 36.4902C29.7208 36.551 28.81 36.6724 27.8993 36.8545C20.0062 38.5546 14.1167 45.5977 14.1167 53.9765C14.1167 58.1659 15.5739 61.991 18.0026 65.0268C18.6097 65.8161 19.3383 66.5447 20.1276 67.2126C20.3098 67.3947 20.5526 67.5769 20.7348 67.759C21.3419 68.2448 21.9491 68.6698 22.5563 69.0341C24.1956 70.0055 25.9564 70.7341 27.8386 71.1591C28.7493 71.3413 29.66 71.5234 30.6315 71.5234C30.9351 71.5234 31.2994 71.5842 31.603 71.5842C41.2568 71.5842 49.1499 63.6911 49.1499 54.0372C49.1499 44.3833 41.3175 36.4902 31.6637 36.4902ZM31.6637 68.5483C31.2994 68.5483 30.9958 68.5483 30.6922 68.4876C29.7208 68.4269 28.81 68.2448 27.8993 68.0019C21.7062 66.3626 17.1525 60.6553 17.1525 53.9765C17.1525 47.2977 21.7062 41.5904 27.8993 39.9511C28.81 39.7082 29.7208 39.526 30.6922 39.4653C30.9958 39.4653 31.3601 39.4046 31.6637 39.4046C39.6782 39.526 46.1748 46.0227 46.1748 54.0372C46.1748 62.0517 39.6782 68.5483 31.6637 68.5483Z" fill="black"/>
<path d="M3.67356 86.642C2.76282 86.642 1.85208 86.2777 1.24492 85.6098C-0.0908356 84.274 -0.0908356 82.0882 1.24492 80.7525L18.4276 63.5698L20.5526 65.6949L3.36998 82.8776C3.18783 83.0597 3.18783 83.3026 3.36998 83.4847C3.49142 83.6061 3.61285 83.6061 3.67356 83.6061C3.73428 83.6061 3.85571 83.6061 3.97714 83.4847L20.9777 66.5449L23.1027 68.67L6.10221 85.6098C5.43433 86.2777 4.58431 86.642 3.67356 86.642Z" fill="black"/>
<path d="M88.9797 39.7691C88.9797 27.0794 88.9797 14.4504 88.9797 1.76077C88.9797 0.425013 88.494 0 87.2189 0C84.7903 0 82.3617 0 79.933 0H29.8422C28.2636 0 27.8993 0.364297 27.8993 2.00363C27.8993 13.3575 27.8993 24.7115 27.8993 36.0654V40.0119C28.81 39.7691 29.7208 39.5869 30.6922 39.5262V2.73223H86.2475V89.617H30.6922V68.4878C29.7208 68.4271 28.81 68.2449 27.8993 68.0021V90.3456C27.8993 91.9849 28.2636 92.3492 29.9029 92.3492C43.9891 92.3492 58.1359 92.3492 72.2221 92.3492C77.2615 92.3492 82.2402 92.3492 87.2797 92.3492C87.9475 92.3492 88.5547 92.2278 88.7976 91.6206C88.9797 91.2563 88.9797 90.7706 88.9797 90.3456C88.9797 75.5916 88.9797 60.8376 88.9797 46.1443V39.7691Z" fill="black"/>
<path d="M42.5319 25.44C42.5319 21.1899 42.5319 16.9398 42.5319 12.6896C42.5319 10.7467 43.7462 9.47168 45.6891 9.47168C52.0036 9.47168 58.3181 9.47168 64.6325 9.47168C66.7576 9.47168 68.9434 9.47168 71.0685 9.47168C73.1935 9.47168 74.3471 10.686 74.3471 12.7503C74.3471 21.1292 74.3471 29.4473 74.3471 37.8261C74.3471 40.194 73.1935 41.2869 70.8256 41.3476C62.5075 41.3476 54.1894 41.3476 45.8713 41.3476C44.5355 41.3476 43.4426 40.9226 42.8962 39.7083C42.6533 39.2226 42.5926 38.6154 42.5926 38.069C42.5319 33.8796 42.5319 29.6901 42.5319 25.44ZM68.9434 38.3726C68.9434 37.4011 69.0041 36.4904 68.9434 35.5796C68.7005 32.2402 66.2719 29.9937 62.8718 29.9937C62.1432 29.9937 61.3539 29.9937 60.6253 29.9937C59.5931 29.9937 59.1074 29.4473 59.0467 28.4151C59.0467 27.8687 59.0467 27.3222 59.0467 26.7151C59.0467 25.44 59.2288 25.1972 60.3824 24.7114C62.3253 23.8614 63.6004 21.8578 63.4182 19.7327C63.2361 17.6076 61.5967 15.7862 59.5324 15.3004C57.468 14.8754 55.2823 15.8469 54.1894 17.6684C52.6715 20.2791 53.8251 23.6185 56.618 24.7114C57.5895 25.1364 57.8323 25.3793 57.8323 26.4115C57.8323 27.0186 57.8323 27.6865 57.8323 28.2937C57.8323 29.3866 57.2859 29.8723 56.2537 29.8723C55.4037 29.8723 54.5537 29.8723 53.6429 29.8723C51.8214 29.933 50.3643 30.7223 49.2106 32.0581C47.6927 33.8796 47.9963 36.0653 47.9963 38.2511C54.9787 38.3726 61.9003 38.3726 68.9434 38.3726ZM71.6149 34.1224C71.6149 27.1401 71.6149 20.1577 71.6149 13.1754C71.6149 12.2039 71.6149 12.2039 70.6434 12.2039C62.5075 12.2039 54.3108 12.2039 46.1748 12.2039C45.2034 12.2039 45.2034 12.2039 45.2034 13.2361C45.2034 20.0363 45.2034 26.8365 45.2034 33.6974C45.2034 33.8796 45.2034 34.0617 45.2034 34.2439C46.5999 29.3259 49.9392 27.0794 55.1001 27.2008C50 24.3471 49.7571 18.5791 52.4286 15.3004C55.2215 11.9003 60.3824 11.4753 63.6611 14.5111C65.2397 15.9683 66.0897 17.8505 66.0897 20.0363C66.0897 23.1935 64.5718 25.5007 61.9003 27.0794C66.9398 27.1401 70.1577 29.3258 71.6149 34.1224Z" fill="black"/>
<path d="M49.575 52.4586C50.85 52.5193 51.8822 53.0051 52.7929 53.8551C54.918 55.7373 55.4037 55.7373 57.5288 53.8551C59.7145 51.9122 62.4468 51.9729 64.5718 53.9765C64.8147 54.2194 65.0576 54.4015 65.3004 54.6444C66.2719 55.4337 67.4255 55.4337 68.397 54.5837C68.7613 54.2801 69.0648 53.9765 69.3684 53.6729C71.372 52.0336 73.9221 52.0336 75.9257 53.6729C76.1686 53.8551 76.4115 54.098 76.6543 54.3408C77.2008 54.8265 77.7472 55.1301 78.5365 55.1908C79.3866 55.2516 79.8723 55.798 79.8116 56.5873C79.8116 57.3766 79.2651 57.8624 78.3544 57.8624C77.3222 57.8624 76.3508 57.5588 75.5007 56.8909C75.015 56.5266 74.6507 56.1016 74.165 55.7373C73.1935 54.8873 72.0399 54.8873 71.0685 55.7373C70.7649 55.9802 70.4613 56.2837 70.1577 56.5873C68.1541 58.2874 65.5433 58.2874 63.5397 56.648C63.2361 56.4052 62.9325 56.1016 62.6289 55.798C61.5967 54.8873 60.4431 54.8873 59.411 55.798C59.1074 56.0409 58.8038 56.3444 58.5002 56.5873C56.4966 58.2874 53.8251 58.3481 51.8822 56.648C51.0321 55.9194 50.2428 55.1301 48.9678 55.0694C48.2392 55.0087 47.8749 54.2194 48.0571 53.4908C48.1178 52.8229 48.7249 52.4586 49.575 52.4586Z" fill="black"/>
<path d="M78.233 67.4552C76.9579 67.4552 75.9258 66.9088 75.015 66.1195C74.6507 65.8159 74.3471 65.4516 73.9828 65.2087C73.1328 64.6016 72.1006 64.6016 71.2506 65.2695C70.8863 65.5123 70.5827 65.8766 70.2792 66.1195C68.1541 68.0017 65.3612 67.941 63.2968 66.0588C62.9932 65.8159 62.7504 65.5123 62.3861 65.2695C61.4753 64.5409 60.3824 64.5409 59.4717 65.2695C59.2288 65.5123 58.9252 65.7552 58.6824 65.998C56.5573 67.941 53.7644 68.0017 51.6393 66.0588C50.85 65.3909 50.1214 64.723 48.9678 64.6623C48.2999 64.6623 47.8749 63.9337 47.9356 63.2658C47.9963 62.5979 48.4821 62.0515 49.2107 62.0515C50.3036 61.9908 51.3357 62.2944 52.1858 63.023C52.6715 63.3873 53.1572 63.873 53.6429 64.2373C54.493 64.9659 55.5859 64.9659 56.4966 64.298C56.9823 63.9337 57.4073 63.5087 57.8931 63.1444C59.7753 61.6872 62.3253 61.7479 64.1468 63.2051C64.5718 63.5087 64.8754 63.873 65.3004 64.2373C66.2719 65.0266 67.3041 65.0266 68.2755 64.2373C68.6398 63.9337 69.0041 63.5694 69.3684 63.2658C71.372 61.6872 73.9828 61.6872 75.9258 63.3873C76.2901 63.6908 76.5329 64.0551 76.9579 64.2373C77.3829 64.4801 77.9294 64.723 78.4151 64.8444C79.3259 65.0266 79.8723 65.5123 79.8116 66.3623C79.7509 67.0302 79.1437 67.516 78.233 67.4552Z" fill="black"/>
<path d="M78.2937 76.988C76.8972 76.988 75.8043 76.3201 74.8329 75.4094C74.3471 74.9844 73.74 74.4986 73.0721 74.3165C72.1614 74.0129 71.4328 74.5594 70.7649 75.2272C69.7934 76.1987 68.7613 76.8666 67.3648 76.988C65.9683 77.1094 64.754 76.7451 63.6611 75.8344C63.2968 75.5308 62.9325 75.1665 62.5682 74.8629C61.536 74.0129 60.4431 74.0129 59.4717 74.8629C58.986 75.288 58.5609 75.713 58.0145 76.0773C56.2537 77.3523 53.8858 77.2916 52.1858 75.9558C51.8215 75.6523 51.4572 75.3487 51.0929 74.9844C50.6071 74.4986 50.0607 74.2558 49.3321 74.1951C48.4821 74.1343 47.9356 73.5272 47.9963 72.7379C48.0571 72.0093 48.6642 71.4628 49.5142 71.4628C50.7893 71.4628 51.8822 72.0093 52.8536 72.8593C53.1572 73.1022 53.4001 73.4058 53.7037 73.5879C54.6751 74.3772 55.8287 74.3772 56.7395 73.5879C57.1038 73.2843 57.4681 72.92 57.8324 72.6164C59.7753 71.0378 62.3861 71.0985 64.2683 72.6772C64.6326 72.9807 64.9969 73.345 65.3612 73.6486C66.3326 74.4379 67.4255 74.4379 68.3362 73.6486C68.7005 73.345 69.0041 73.0415 69.3077 72.7379C71.3113 71.0378 74.0436 71.0378 75.9865 72.7986C76.8365 73.5272 77.5651 74.2558 78.7794 74.3165C79.4473 74.3165 79.8723 75.1058 79.7509 75.7737C79.7509 76.6237 79.2044 76.988 78.2937 76.988Z" fill="black"/>
<path d="M38.8889 72.7383C40.2854 72.7383 41.6818 72.7383 43.0783 72.7383C43.7462 72.7383 43.9891 73.224 44.1105 73.7704C44.1712 74.3776 43.9283 74.924 43.3212 75.1669C43.139 75.2276 42.8962 75.2883 42.6533 75.2883C40.8318 75.2883 39.0103 75.2883 37.1889 75.2276C36.4603 75.2276 35.9138 74.6812 35.8531 74.0133C35.8531 73.2847 36.3388 72.6775 37.0674 72.6168C37.6746 72.5561 38.2817 72.6168 38.8889 72.6168C38.8889 72.6775 38.8889 72.7383 38.8889 72.7383Z" fill="black"/>
<path d="M26.6243 63.3878C26.6243 63.3878 38.7675 66.9093 42.1069 54.9482" stroke="black" stroke-width="3" stroke-miterlimit="10" stroke-linecap="round" stroke-linejoin="round"/>
</svg>
