<svg width="87" height="98" viewBox="0 0 87 98" fill="none" xmlns="http://www.w3.org/2000/svg">
<path d="M64.2671 48.6156C64.2671 64.1393 64.2671 79.6631 64.2671 95.1229C64.2671 95.5701 64.2671 96.0812 64.0754 96.4645C63.756 97.1033 63.1811 97.2311 62.4783 97.2311C57.176 97.2311 51.9375 97.2311 46.6352 97.2311C31.8141 97.2311 16.9292 97.2311 2.10816 97.2311C0.383295 97.2311 0 96.8478 0 95.1229C0 76.0856 0 56.9843 0 37.947C0 26.0007 0 14.0544 0 2.10816C0 0.447186 0.383291 0 2.04427 0C19.6123 0 37.1803 0 54.7484 0C57.3037 0 59.8591 0 62.4144 0C63.756 0 64.2671 0.51107 64.2671 1.85263C64.2671 15.2043 64.2671 28.4922 64.2671 41.8439C64.2671 44.1437 64.2671 46.3796 64.2671 48.6156ZM61.3923 2.93865C41.8439 2.93865 22.3593 2.93865 2.93864 2.93865C2.93864 33.4751 2.93864 63.9477 2.93864 94.3563C22.4871 94.3563 41.9077 94.3563 61.3923 94.3563C61.3923 63.8838 61.3923 33.4112 61.3923 2.93865Z" fill="black"/>
<path d="M82.0906 29.9616C82.5378 29.9616 82.8572 29.9616 83.3044 29.9616C83.3044 29.3228 83.3044 28.7479 83.3044 28.1729C83.3044 27.1508 83.8794 26.5119 84.7738 26.5119C85.6042 26.5119 86.2431 27.1508 86.2431 28.109C86.2431 32.7725 86.2431 37.4999 86.2431 42.1635C86.2431 43.1856 85.6042 43.8244 84.7738 43.8244C83.9433 43.8244 83.3683 43.1217 83.3683 42.0996C83.3683 39.3526 83.3683 36.5417 83.3683 33.7947C83.3683 33.5391 83.3683 33.2836 83.3683 32.9003C82.985 32.9003 82.6017 32.9003 82.2184 32.9003C82.2184 33.1558 82.1545 33.3475 82.1545 33.603C82.1545 36.9889 82.1545 40.4386 82.1545 43.8244C82.1545 44.08 82.2823 44.4633 82.4739 44.6549C83.1767 45.2938 83.4961 45.9965 83.4961 46.8909C83.4961 52.1932 83.4961 57.4317 83.4961 62.734C83.4961 63.9478 82.985 64.8422 81.8351 65.3533C81.6434 65.481 81.3879 65.8005 81.3879 66.056C81.324 66.7587 81.3879 67.4614 81.3879 68.1642C81.3879 68.4836 81.3879 68.8669 81.2601 69.1224C80.238 71.1667 80.3019 73.5304 79.5353 75.6386C79.2798 76.2774 79.2159 76.9162 79.0242 77.5551C78.7687 78.5133 78.066 79.0244 77.1077 79.0883C76.4689 79.0883 75.8939 79.0883 75.2551 79.0883C74.2968 79.0244 73.5941 78.5133 73.3386 77.5551C72.8275 75.7024 72.3803 73.9137 71.8692 72.0611C71.8692 71.9972 71.8054 71.9333 71.8054 71.8694C71.7415 70.975 71.4859 70.0807 71.1026 69.2502C70.7832 68.4836 70.911 67.4614 70.911 66.5671C70.911 65.9282 70.8471 65.481 70.0805 65.1616C69.1861 64.7783 68.7389 63.9478 68.7389 62.9896C68.7389 57.5594 68.7389 52.1293 68.7389 46.6992C68.7389 45.9326 69.0584 45.2299 69.6333 44.7827C70.0166 44.5272 70.0805 44.2077 70.0805 43.7605C70.0805 38.1388 70.0805 32.4531 70.0805 26.8313C70.0805 25.362 70.5277 24.276 71.8692 23.5094C71.997 23.4455 72.1248 23.1261 72.1248 22.9344C72.1887 22.2317 72.1248 21.529 72.1887 20.8901C72.4442 19.2931 73.658 18.2709 75.319 18.207C75.8939 18.207 76.4689 18.207 76.9799 18.207C78.6409 18.2709 79.9825 19.6125 80.0464 21.2735C80.0464 21.4651 80.0464 21.5929 80.0464 21.7845C79.9825 22.6789 80.0464 23.5094 81.0046 24.0205C81.8351 24.4676 82.0906 25.4259 82.0906 26.3842C82.0906 27.5979 82.0906 28.7479 82.0906 29.9616ZM71.5498 62.6063C71.8054 62.6063 71.997 62.6701 72.1887 62.6701C74.744 62.6701 77.2355 62.6701 79.7908 62.6701C80.4935 62.6701 80.6213 62.4146 80.6213 61.8397C80.6213 57.1761 80.6213 52.5126 80.6213 47.8491C80.6213 47.1464 80.3658 47.0186 79.7269 47.0186C77.2994 47.0825 74.8718 47.0825 72.4442 47.0186C71.7415 47.0186 71.5498 47.2103 71.5498 47.913C71.6137 52.1293 71.5498 56.4095 71.5498 60.6259C71.5498 61.2647 71.5498 61.9035 71.5498 62.6063ZM72.9553 32.9003C72.9553 36.6056 72.9553 40.1831 72.9553 43.7605C72.9553 43.8883 73.2747 44.1438 73.4663 44.1438C75.1912 44.1438 76.916 44.1438 78.6409 44.1438C79.0242 44.1438 79.2159 44.0161 79.2159 43.5689C79.2159 40.1831 79.2159 36.7333 79.2159 33.3475C79.2159 33.1558 78.9603 32.9003 78.7687 32.9003C76.8522 32.8364 74.9357 32.9003 72.9553 32.9003ZM79.152 29.9616C79.152 28.8117 79.152 27.7257 79.152 26.6397C79.152 26.448 78.8326 26.1925 78.6409 26.1925C76.916 26.1286 75.1273 26.1925 73.4024 26.1925C73.2108 26.1925 72.9553 26.448 72.9553 26.5758C72.8914 27.7257 72.9553 28.8117 72.9553 29.9616C75.0634 29.9616 77.0438 29.9616 79.152 29.9616ZM78.3215 68.1003C78.3215 67.2698 78.3215 66.4393 78.3215 65.5449C76.8522 65.5449 75.4467 65.5449 74.1052 65.5449C73.9774 65.5449 73.7219 65.8004 73.7219 65.9282C73.658 66.6309 73.7219 67.3337 73.7219 68.1003C75.319 68.1003 76.7883 68.1003 78.3215 68.1003ZM74.4885 71.0389C74.9356 72.7638 75.319 74.3609 75.7661 75.958C75.7661 76.0857 76.0217 76.2135 76.0856 76.2135C76.2133 76.0857 76.405 75.958 76.405 75.8302C76.6605 74.9358 76.8522 74.1053 77.1077 73.211C77.2994 72.5083 77.4271 71.8694 77.6188 71.1028C76.5328 71.0389 75.5745 71.0389 74.4885 71.0389ZM76.0217 23.2538C77.1077 23.2538 77.1077 23.2538 77.1077 22.1678C77.1077 21.0818 77.1077 21.0818 75.8939 21.1457C74.9357 21.1457 74.9357 21.1457 74.9357 22.3595C74.9995 23.2539 74.9995 23.2538 76.0217 23.2538Z" fill="black"/>
<path d="M15.3321 26.7673C15.3321 22.2954 15.3321 17.8235 15.3321 13.3517C15.3321 11.3074 16.6098 9.96582 18.654 9.96582C25.2979 9.96582 31.9419 9.96582 38.5858 9.96582C40.8217 9.96582 43.1215 9.96582 45.3575 9.96582C47.5934 9.96582 48.8072 11.2435 48.8072 13.4155C48.8072 22.2315 48.8072 30.9836 48.8072 39.7995C48.8072 42.291 47.5934 43.4409 45.1019 43.5048C36.3498 43.5048 27.5978 43.5048 18.8457 43.5048C17.4403 43.5048 16.2903 43.0576 15.7154 41.7799C15.4598 41.2689 15.396 40.63 15.396 40.0551C15.3321 35.6471 15.3321 31.2391 15.3321 26.7673ZM43.1215 40.4384C43.1215 39.4162 43.1854 38.458 43.1215 37.4997C42.866 33.9861 40.3106 31.6224 36.7332 31.6224C35.9666 31.6224 35.1361 31.6224 34.3695 31.6224C33.2834 31.6224 32.7724 31.0475 32.7085 29.9614C32.7085 29.3865 32.7085 28.8115 32.7085 28.1727C32.7085 26.8311 32.9001 26.5756 34.1139 26.0645C36.1582 25.1702 37.4998 23.062 37.3081 20.8261C37.1165 18.5901 35.3916 16.6736 33.2196 16.1625C31.0475 15.7154 28.7477 16.7375 27.5978 18.654C26.0007 21.401 27.2145 24.9146 30.1531 26.0645C31.1753 26.5117 31.4308 26.7673 31.4308 27.8533C31.4308 28.4921 31.4308 29.1948 31.4308 29.8337C31.4308 30.9836 30.8558 31.4947 29.7698 31.4947C28.8754 31.4947 27.9811 31.4947 27.0228 31.4947C25.1063 31.5585 23.5731 32.389 22.3593 33.7945C20.7622 35.711 21.0816 38.0108 21.0816 40.3106C28.4922 40.4384 35.7749 40.4384 43.1215 40.4384ZM45.9963 35.9026C45.9963 28.556 45.9963 21.2094 45.9963 13.8627C45.9963 12.8406 45.9963 12.8406 44.9742 12.8406C36.4137 12.8406 27.7894 12.8406 19.229 12.8406C18.2068 12.8406 18.2069 12.8406 18.2069 13.9266C18.2069 21.0816 18.2069 28.2366 18.2069 35.4554C18.2069 35.6471 18.2069 35.8387 18.2069 36.0304C19.6762 30.8558 23.1898 28.4921 28.6199 28.6199C23.2537 25.6173 22.9981 19.5484 25.809 16.0987C28.7477 12.5212 34.1778 12.074 37.6275 15.2682C39.2885 16.8014 40.1829 18.7818 40.1829 21.0816C40.1829 24.4036 38.5858 26.8311 35.7749 28.4921C41.0134 28.556 44.4631 30.9197 45.9963 35.9026Z" fill="black"/>
<path d="M22.8065 55.2597C24.1481 55.3235 25.2341 55.8346 26.1924 56.729C28.4283 58.7094 28.9394 58.7094 31.1753 56.729C33.4751 54.6847 36.3499 54.7486 38.5858 56.8567C38.8414 57.1123 39.0969 57.3039 39.3524 57.5595C40.3746 58.39 41.5883 58.39 42.6105 57.4956C42.9938 57.1762 43.3132 56.8567 43.6326 56.5373C45.6769 54.8125 48.4239 54.8125 50.5321 56.5373C50.7876 56.729 51.0431 56.9845 51.2987 57.24C51.8736 57.7511 52.4486 58.0705 53.2791 58.1344C54.1735 58.1983 54.6845 58.7733 54.6206 59.6037C54.6206 60.4342 54.0457 60.9453 53.0874 60.9453C52.0014 60.9453 50.9793 60.6259 50.0849 59.9232C49.5738 59.5399 49.1905 59.0927 48.6794 58.7094C47.6573 57.815 46.4435 57.815 45.4214 58.7094C45.102 58.9649 44.7825 59.2843 44.4631 59.6037C42.3549 61.3925 39.608 61.3925 37.4998 59.6676C37.1804 59.4121 36.8609 59.0927 36.5415 58.7733C35.4555 57.815 34.2417 57.815 33.1557 58.7733C32.8363 59.0288 32.5169 59.3482 32.1974 59.6037C30.0893 61.3925 27.2784 61.4564 25.2341 59.6676C24.3397 58.901 23.5092 58.0705 22.1677 58.0066C21.4011 57.9428 21.0178 57.1123 21.2094 56.3457C21.2733 55.643 21.8483 55.1958 22.8065 55.2597Z" fill="black"/>
<path d="M52.9596 70.9753C51.6181 70.9753 50.5321 70.4004 49.5738 69.5699C49.1905 69.2505 48.8711 68.8672 48.4878 68.6116C47.5934 67.9728 46.5074 67.9728 45.613 68.6755C45.2297 68.9311 44.9103 69.3144 44.5909 69.5699C42.3549 71.5503 39.4163 71.4864 37.2442 69.506C36.9248 69.2505 36.6693 68.9311 36.286 68.6755C35.3277 67.9089 34.1778 67.9089 33.2196 68.6755C32.964 68.9311 32.6446 69.1866 32.3891 69.4421C30.1531 71.4864 27.2145 71.5503 24.9785 69.506C24.1481 68.8033 23.3814 68.1006 22.1677 68.0367C21.4649 68.0367 21.0178 67.2701 21.0816 66.5674C21.1455 65.8646 21.6566 65.2897 22.4232 65.2897C23.5731 65.2258 24.6591 65.5452 25.5535 66.3118C26.0646 66.6951 26.5756 67.2062 27.0867 67.5895C27.9811 68.3561 29.131 68.3561 30.0892 67.6534C30.6003 67.2701 31.0475 66.8229 31.5586 66.4396C33.539 64.9064 36.2221 64.9703 38.1386 66.5035C38.5858 66.8229 38.9052 67.2062 39.3524 67.5895C40.3745 68.42 41.4606 68.42 42.4827 67.5895C42.866 67.2701 43.2493 66.8868 43.6326 66.5674C45.7408 64.9064 48.4878 64.9064 50.5321 66.6951C50.9154 67.0146 51.1709 67.3979 51.6181 67.5895C52.0653 67.845 52.6402 68.1006 53.1513 68.2283C54.1096 68.42 54.6845 68.9311 54.6206 69.8254C54.5567 70.5282 53.9179 71.0392 52.9596 70.9753Z" fill="black"/>
<path d="M52.9596 81.0048C51.4903 81.0048 50.3404 80.3021 49.3183 79.3438C48.8072 78.8966 48.1684 78.3856 47.4656 78.1939C46.5074 77.8745 45.7408 78.4495 45.0381 79.1522C44.0159 80.1743 42.9299 80.877 41.4606 81.0048C39.9912 81.1326 38.7136 80.7493 37.5637 79.791C37.1803 79.4716 36.7971 79.0883 36.4138 78.7689C35.3277 77.8745 34.1778 77.8745 33.1557 78.7689C32.6446 79.2161 32.1974 79.6632 31.6225 80.0465C29.7698 81.3881 27.2784 81.3242 25.4896 79.9188C25.1063 79.5994 24.723 79.2799 24.3397 78.8966C23.8286 78.3856 23.2537 78.13 22.4871 78.0662C21.5927 78.0023 21.0178 77.3634 21.0816 76.5329C21.1455 75.7663 21.7844 75.1914 22.6787 75.1914C24.0203 75.1914 25.1702 75.7663 26.1923 76.6607C26.5118 76.9162 26.7673 77.2357 27.0867 77.4273C28.1089 78.2578 29.3226 78.2578 30.2809 77.4273C30.6642 77.1079 31.0475 76.7246 31.4308 76.4052C33.4751 74.7442 36.2221 74.8081 38.2025 76.4691C38.5858 76.7885 38.9691 77.1718 39.3524 77.4912C40.3745 78.3217 41.5245 78.3217 42.4827 77.4912C42.866 77.1718 43.1854 76.8524 43.5048 76.5329C45.613 74.7442 48.4878 74.7442 50.5321 76.5968C51.4264 77.3634 52.193 78.13 53.4707 78.1939C54.1734 78.1939 54.6206 79.0244 54.4929 79.7271C54.4929 80.6215 53.9179 81.0687 52.9596 81.0048Z" fill="black"/>
<path d="M12.649 54.3018C13.6072 54.3018 14.5016 54.3018 15.4598 54.3018C16.4181 54.3018 17.0569 54.8767 16.9931 55.7711C16.9931 56.6016 16.3542 57.1765 15.4598 57.1765C13.6072 57.1765 11.7546 57.1765 9.90197 57.1765C9.0076 57.1765 8.36874 56.5377 8.36874 55.7711C8.36874 54.9406 9.0076 54.3656 9.90197 54.3656C10.7963 54.3018 11.7546 54.3656 12.649 54.3018C12.649 54.3656 12.649 54.3656 12.649 54.3018Z" fill="black"/>
<path d="M12.649 68.2918C11.7546 68.2918 10.8603 68.2918 9.902 68.2918C8.94374 68.2918 8.3049 67.7168 8.3049 66.8863C8.3049 66.0558 8.94374 65.417 9.902 65.417C11.7546 65.417 13.5434 65.417 15.396 65.417C16.3542 65.417 16.9931 65.9919 16.9931 66.8863C16.9931 67.7168 16.4181 68.2918 15.4599 68.2918C14.5655 68.2918 13.6072 68.2918 12.649 68.2918Z" fill="black"/>
<path d="M11.4991 76.5971C12.9684 76.5971 14.4377 76.5971 15.9071 76.5971C16.6098 76.5971 16.8653 77.1081 16.9931 77.6831C17.057 78.3219 16.8014 78.8969 16.1626 79.1524C15.9709 79.2163 15.7154 79.2802 15.4599 79.2802C13.5434 79.2802 11.6268 79.2802 9.71033 79.2163C8.94373 79.2163 8.36878 78.6414 8.3049 77.9386C8.3049 77.172 8.81597 76.5332 9.58258 76.4693C10.2214 76.4054 10.8603 76.4693 11.4991 76.4693C11.4991 76.5332 11.4991 76.5332 11.4991 76.5971Z" fill="black"/>
</svg>
