<svg width="46" height="70" fill="none" xmlns="http://www.w3.org/2000/svg"><path d="M21.909 8.51c.207-.636 1.107-.636 1.314 0l2.28 7.02a2.993 2.993 0 002.847 2.068h7.38c.669 0 .947.856.406 1.25l-5.97 4.337a2.993 2.993 0 00-1.088 3.347l2.28 7.018c.207.637-.521 1.166-1.063.773l-5.97-4.338a2.994 2.994 0 00-3.519 0l-5.97 4.338c-.541.393-1.27-.136-1.063-.773l2.28-7.018a2.993 2.993 0 00-1.087-3.347l-.677.931.677-.93-5.97-4.339c-.542-.393-.263-1.25.406-1.25h7.38a2.994 2.994 0 002.846-2.068l2.28-7.018z" stroke="#fff" stroke-width="2.303"/><path d="M14.967 44.21a1.151 1.151 0 10-2.302 0h2.302zm17.5 0a1.151 1.151 0 00-2.302 0h2.302zm-2.732 24.17l-.824.804.824-.804zm-7.828-6.674l.824.803-.824-.803zm1.318 0l-.824.803.824-.803zM12.665 44.21v23.527h2.302V44.21h-2.302zm3.556 24.974l6.51-6.674-1.649-1.608-6.51 6.674 1.649 1.608zm6.18-6.674l6.51 6.674 1.649-1.608-6.51-6.674L22.4 62.51zm10.066 5.227V44.21h-2.302v23.527h2.302zm-3.556 1.447c1.298 1.33 3.556.411 3.556-1.447h-2.302a.245.245 0 01.143-.214.246.246 0 01.252.052l-1.649 1.609zm-6.18-6.674a.23.23 0 01-.33 0l1.648-1.608a2.072 2.072 0 00-2.967 0l1.649 1.608zm-10.066 5.227c0 1.858 2.258 2.777 3.556 1.447l-1.649-1.608a.246.246 0 01.252-.053.245.245 0 01.143.213h-2.302z" fill="#fff"/><path d="M43.98 22.105c0 11.55-9.565 20.954-21.414 20.954-11.85 0-21.415-9.403-21.415-20.954 0-11.55 9.565-20.954 21.415-20.954S43.98 10.555 43.98 22.105z" stroke="#fff" stroke-width="2.303"/></svg>