<svg width="35" height="35" viewBox="0 0 35 35" fill="none" xmlns="http://www.w3.org/2000/svg">
<circle cx="17.5" cy="17.5" r="17.5" fill="#E18370"/>
<path d="M14.7167 26C14.4239 25.9767 14.1936 25.8073 14.0629 25.4751C13.9349 25.1462 14.006 24.7808 14.2419 24.5017C14.6286 24.0465 15.018 23.5947 15.4046 23.1429C16.988 21.2924 18.5742 19.4386 20.1576 17.5882C20.2343 17.4985 20.2315 17.4985 20.1547 17.4088C18.1933 15.1165 16.229 12.8241 14.2675 10.5285C14.1538 10.3956 14.06 10.2494 14.0231 10.0634C13.9321 9.59828 14.1538 9.15975 14.549 9.0335C14.8361 8.94048 15.0749 9.04679 15.2767 9.28267C15.7201 9.79761 16.1608 10.3126 16.6014 10.8275C18.3155 12.8308 20.0268 14.8341 21.741 16.834C21.92 17.0433 22.0195 17.2825 21.9968 17.5815C21.9797 17.8074 21.8859 17.9935 21.7495 18.153C20.2258 19.9403 18.6964 21.7243 17.1671 23.5117C16.5445 24.2392 15.922 24.9635 15.3023 25.691C15.18 25.8372 15.0351 25.9369 14.8673 25.9867C14.8275 26 14.7792 25.9967 14.7167 26Z" fill="white"/>
</svg>
