<svg width="143" height="44" viewBox="0 0 143 44" fill="none" xmlns="http://www.w3.org/2000/svg">
<path d="M69.9969 26.2266H66.4839V40.3398V43.8492H69.9969H77.2483V40.3398H69.9969V26.2266Z" fill="#FFF5ED"/>
<path d="M78.7515 26.2266V29.7549V33.2832V36.8115V40.3398V43.8492H82.2645H90.3989V40.3398H82.2645V36.8115H88.3324V33.2832H82.2645V29.7549H90.3989V26.2266H82.2645H78.7515Z" fill="#FFF5ED"/>
<path d="M5.39162 26.2266H0V43.8492H5.39162C10.2384 43.8492 14.1647 39.9058 14.1647 35.0379C14.1647 30.17 10.2384 26.2266 5.39162 26.2266ZM10.6517 35.0379C10.6517 37.9624 8.30347 40.3209 5.39162 40.3209H3.51301V29.736H5.39162C8.28468 29.7549 10.6517 32.1322 10.6517 35.0379Z" fill="#FFF5ED"/>
<path d="M24.1214 26.0947C19.1995 26.0947 15.2168 30.0947 15.2168 35.0381C15.2168 39.9815 19.1995 43.9815 24.1214 43.9815C29.0434 43.9815 33.026 39.9815 33.026 35.0381C33.026 30.0947 29.0434 26.0947 24.1214 26.0947ZM24.1214 40.2645C21.2659 40.2645 18.9365 37.9249 18.9365 35.057C18.9365 32.1891 21.2659 29.8494 24.1214 29.8494C26.9769 29.8494 29.3064 32.1891 29.3064 35.057C29.3064 37.9249 26.9769 40.2645 24.1214 40.2645Z" fill="#FFF5ED"/>
<path d="M46.1763 35.0568C46.1763 37.9247 45.1994 40.2643 41.9494 40.2643C38.8497 40.2643 37.7226 37.9247 37.7226 35.0568V26.2266H33.9653V35.0379C33.9653 39.9813 36.1445 43.9813 41.9306 43.9813C47.698 43.9813 49.896 39.9813 49.896 35.0379V26.2266H46.1387V35.0568H46.1763Z" fill="#FFF5ED"/>
<path d="M116.643 5.58496C111.721 5.58496 107.738 9.58496 107.738 14.5284C107.738 19.4718 111.721 23.4718 116.643 23.4718C121.565 23.4718 125.548 19.4718 125.548 14.5284C125.548 9.58496 121.565 5.58496 116.643 5.58496ZM116.643 19.7548C113.787 19.7548 111.458 17.4151 111.458 14.5472C111.458 11.6793 113.787 9.33968 116.643 9.33968C119.498 9.33968 121.828 11.6793 121.828 14.5472C121.828 17.4151 119.498 19.7548 116.643 19.7548Z" fill="#FFF5ED"/>
<path d="M138.698 14.547C138.698 17.4149 137.721 19.7545 134.471 19.7545C131.371 19.7545 130.244 17.4149 130.244 14.547V5.7168H126.487V14.5281C126.487 19.4715 128.666 23.4715 134.452 23.4715C140.219 23.4715 142.417 19.4715 142.417 14.5281V5.7168H138.66V14.547H138.698Z" fill="#FFF5ED"/>
<path d="M62.1445 34.2077C62.9711 33.4718 63.4595 32.4718 63.4595 31.2832C63.4595 28.4907 61.6936 26.2266 58.4248 26.2266H55.0809H51.5679V29.7549V32.736V36.2643V40.3398V43.8681H55.0809H59.7774C62.9898 43.8681 65.1502 41.7926 65.1502 38.3586C65.1502 36.0756 63.8352 34.8492 62.1445 34.2077ZM55.0809 29.7549H58.4248C59.289 29.7549 59.8526 30.3964 59.8526 31.2832C59.8526 32.0756 59.2138 32.7171 58.4248 32.7171V32.736H55.0997V29.7549H55.0809ZM59.7774 40.3398H55.0809V36.2643H59.7774C61.0173 36.2643 61.7124 37.2266 61.7124 38.302C61.7312 39.453 60.9422 40.3398 59.7774 40.3398Z" fill="#FFF5ED"/>
<path d="M105.916 5.7168L100.919 12.6225L96.1287 5.7168H91.9019L99.1721 15.8489V23.3394H102.685V15.8489L110.124 5.7168H105.916Z" fill="#FFF5ED"/>
<path d="M90.3988 0H86.9234H86.8858V20.0566H0V23.5849H90.3988V23.4906V20.0566V3.5283H143V0H90.3988Z" fill="#FFF5ED"/>
<path d="M98.2323 29.8108C98.2323 30.6599 97.6123 31.3203 96.8609 31.3203C96.4852 31.3203 96.2034 31.1882 96.0155 30.9618V32.3769H95.1514V28.358H96.0155V28.6222C96.2034 28.3957 96.4852 28.2637 96.8609 28.2637C97.6311 28.2825 98.2323 28.9429 98.2323 29.8108ZM97.3869 29.8108C97.3869 29.3769 97.1051 29.1127 96.7106 29.1127C96.3161 29.1127 96.0343 29.3769 96.0343 29.8108C96.0343 30.2448 96.3161 30.509 96.7106 30.509C97.1051 30.509 97.3869 30.2259 97.3869 29.8108Z" fill="#FFF5ED"/>
<path d="M100.149 30.5464C100.374 30.5464 100.581 30.452 100.693 30.32L101.37 30.7162C101.088 31.1124 100.675 31.3011 100.13 31.3011C99.1529 31.3011 98.5518 30.6407 98.5518 29.7917C98.5518 28.9426 99.1717 28.2822 100.073 28.2822C100.9 28.2822 101.52 28.9237 101.52 29.7917C101.52 29.9049 101.501 30.0181 101.482 30.1313H99.4535C99.5662 30.452 99.8292 30.5464 100.149 30.5464ZM100.675 29.5086C100.581 29.169 100.318 29.0558 100.073 29.0558C99.7541 29.0558 99.5286 29.2256 99.4535 29.5086H100.675Z" fill="#FFF5ED"/>
<path d="M101.839 29.8112C101.839 28.9621 102.478 28.3018 103.361 28.3018C103.906 28.3018 104.413 28.5848 104.657 29.0376L103.906 29.4716C103.812 29.264 103.605 29.1508 103.361 29.1508C102.985 29.1508 102.722 29.415 102.722 29.8112C102.722 30.2074 103.004 30.4716 103.361 30.4716C103.605 30.4716 103.831 30.3584 103.906 30.1508L104.657 30.5848C104.413 31.0376 103.925 31.3206 103.361 31.3206C102.478 31.3206 101.839 30.6602 101.839 29.8112Z" fill="#FFF5ED"/>
<path d="M107.72 28.3773L106.743 31.1508C106.423 32.0565 105.86 32.415 105.108 32.3773V31.5659C105.484 31.5659 105.672 31.4716 105.803 31.1697L104.676 28.3584H105.597L106.254 30.1131L106.799 28.3584H107.72V28.3773Z" fill="#FFF5ED"/>
<path d="M111.082 29.8108C111.082 30.6599 110.462 31.3203 109.711 31.3203C109.335 31.3203 109.053 31.1882 108.865 30.9618V32.3769H108.02V28.358H108.884V28.6222C109.072 28.3957 109.354 28.2637 109.73 28.2637C110.462 28.2825 111.082 28.9429 111.082 29.8108ZM110.237 29.8108C110.237 29.3769 109.955 29.1127 109.56 29.1127C109.166 29.1127 108.884 29.3769 108.884 29.8108C108.884 30.2448 109.166 30.509 109.56 30.509C109.936 30.509 110.237 30.2259 110.237 29.8108Z" fill="#FFF5ED"/>
<path d="M111.401 29.8112C111.401 28.9621 112.04 28.3018 112.923 28.3018C113.468 28.3018 113.975 28.5848 114.219 29.0376L113.468 29.4716C113.374 29.264 113.167 29.1508 112.923 29.1508C112.547 29.1508 112.284 29.415 112.284 29.8112C112.284 30.2074 112.566 30.4716 112.923 30.4716C113.167 30.4716 113.393 30.3584 113.468 30.1508L114.219 30.5848C113.975 31.0376 113.487 31.3206 112.923 31.3206C112.04 31.3206 111.401 30.6602 111.401 29.8112Z" fill="#FFF5ED"/>
<path d="M95.02 36.0368C95.02 35.1877 95.6588 34.5273 96.5417 34.5273C97.0865 34.5273 97.5937 34.8104 97.8379 35.2632L97.0865 35.6972C96.9926 35.4896 96.7859 35.3764 96.5417 35.3764C96.166 35.3764 95.903 35.6406 95.903 36.0368C95.903 36.433 96.1848 36.6972 96.5417 36.6972C96.7859 36.6972 97.0113 36.584 97.0865 36.3764L97.8379 36.8104C97.5937 37.2632 97.1053 37.5462 96.5417 37.5462C95.6775 37.5462 95.02 36.8858 95.02 36.0368Z" fill="#FFF5ED"/>
<path d="M98.0068 36.0368C98.0068 35.1877 98.6831 34.5273 99.5285 34.5273C100.374 34.5273 101.05 35.1877 101.05 36.0368C101.05 36.8858 100.374 37.5462 99.5285 37.5462C98.6831 37.5462 98.0068 36.8858 98.0068 36.0368ZM100.167 36.0368C100.167 35.6217 99.8854 35.3575 99.5097 35.3575C99.134 35.3575 98.8522 35.6217 98.8522 36.0368C98.8522 36.4519 99.134 36.716 99.5097 36.716C99.8854 36.716 100.167 36.433 100.167 36.0368Z" fill="#FFF5ED"/>
<path d="M103.587 36.6783C103.587 37.15 103.173 37.5462 102.403 37.5462C101.839 37.5462 101.426 37.3198 101.201 36.867L101.896 36.4519C101.971 36.6783 102.159 36.8104 102.422 36.8104C102.628 36.8104 102.76 36.7349 102.76 36.584C102.76 36.4519 102.685 36.3764 102.497 36.3764H102.102V35.6594H102.403C102.591 35.6594 102.666 35.584 102.666 35.4707C102.666 35.3387 102.553 35.2632 102.403 35.2632C102.178 35.2632 102.046 35.3575 101.933 35.6028L101.238 35.2066C101.482 34.7349 101.896 34.5273 102.384 34.5273C103.079 34.5273 103.474 34.9424 103.474 35.3953C103.474 35.6594 103.38 35.8858 103.173 36.0179C103.436 36.15 103.587 36.3953 103.587 36.6783Z" fill="#FFF5ED"/>
<path d="M107.062 36.6595V38.2255H106.235V37.4519H104.639V38.2255H103.812V36.6595H104.169C104.319 36.433 104.394 36.1689 104.394 35.6595V34.584H106.686V36.6406H107.062V36.6595ZM105.86 36.6595V35.3576H105.221V35.6595C105.221 36.0746 105.165 36.3953 105.052 36.6595H105.86Z" fill="#FFF5ED"/>
<path d="M110.368 34.6035V37.4714H109.523V37.2073C109.335 37.4337 109.053 37.5657 108.678 37.5657C107.926 37.5657 107.306 36.9054 107.306 36.0563C107.306 35.2073 107.926 34.5469 108.678 34.5469C109.053 34.5469 109.335 34.6789 109.523 34.9054V34.6412H110.368V34.6035ZM109.523 36.0374C109.523 35.6035 109.241 35.3393 108.847 35.3393C108.452 35.3393 108.17 35.6035 108.17 36.0374C108.17 36.4714 108.452 36.7356 108.847 36.7356C109.241 36.7356 109.523 36.4525 109.523 36.0374Z" fill="#FFF5ED"/>
<path d="M113.506 36.6406C113.506 37.1123 113.167 37.4519 112.529 37.4519H110.988V34.584H112.416C113.055 34.584 113.393 34.9236 113.393 35.3953C113.393 35.6406 113.299 35.8481 113.13 35.9802C113.374 36.1312 113.506 36.3576 113.506 36.6406ZM111.796 35.2821V35.6783H112.341C112.491 35.6783 112.585 35.6217 112.585 35.4896C112.585 35.3387 112.491 35.2821 112.341 35.2821H111.796ZM112.679 36.5463C112.679 36.4142 112.585 36.3387 112.435 36.3387H111.815V36.7538H112.435C112.566 36.7538 112.679 36.6783 112.679 36.5463Z" fill="#FFF5ED"/>
<path d="M116.849 34.6035V37.4714H115.985V37.2073C115.797 37.4337 115.516 37.5657 115.14 37.5657C114.389 37.5657 113.769 36.9054 113.769 36.0563C113.769 35.2073 114.389 34.5469 115.14 34.5469C115.516 34.5469 115.797 34.6789 115.985 34.9054V34.6412H116.849V34.6035ZM115.985 36.0374C115.985 35.6035 115.704 35.3393 115.309 35.3393C114.915 35.3393 114.633 35.6035 114.633 36.0374C114.633 36.4714 114.915 36.7356 115.309 36.7356C115.704 36.7356 115.985 36.4525 115.985 36.0374Z" fill="#FFF5ED"/>
<path d="M119.761 35.4142H118.916V37.4519H118.052V35.4142H117.188V34.584H119.761V35.4142Z" fill="#FFF5ED"/>
<path d="M122.542 36.4519C122.542 37.0557 122.109 37.4519 121.414 37.4519H120.081V34.584H120.945V35.4519H121.433C122.109 35.4519 122.542 35.867 122.542 36.4519ZM121.715 36.4519C121.715 36.301 121.602 36.1878 121.433 36.1878H120.945V36.6972H121.433C121.602 36.7161 121.715 36.6029 121.715 36.4519Z" fill="#FFF5ED"/>
<path d="M95.02 42.2633C95.02 41.4143 95.6588 40.7539 96.5417 40.7539C97.0865 40.7539 97.5937 41.0369 97.8379 41.4898L97.0865 41.9237C96.9926 41.7162 96.7859 41.603 96.5417 41.603C96.166 41.603 95.903 41.8671 95.903 42.2633C95.903 42.6596 96.1848 42.9237 96.5417 42.9237C96.7859 42.9237 97.0113 42.8105 97.0865 42.603L97.8379 43.0369C97.5937 43.4898 97.1053 43.7728 96.5417 43.7728C95.6775 43.7728 95.02 43.1124 95.02 42.2633Z" fill="#FFF5ED"/>
<path d="M99.6037 42.9995C99.8291 42.9995 100.036 42.9052 100.148 42.7731L100.825 43.1693C100.543 43.5655 100.13 43.7542 99.5849 43.7542C98.608 43.7542 98.0068 43.0938 98.0068 42.2448C98.0068 41.3957 98.6268 40.7354 99.5285 40.7354C100.355 40.7354 100.975 41.3769 100.975 42.2448C100.975 42.358 100.956 42.4712 100.937 42.5844H98.9086C99.0213 42.9052 99.2843 42.9995 99.6037 42.9995ZM100.13 41.9618C100.036 41.6221 99.7727 41.5089 99.5285 41.5089C99.2091 41.5089 98.9837 41.6787 98.9086 41.9618H100.13Z" fill="#FFF5ED"/>
<path d="M101.294 42.2072C101.294 41.2827 101.464 40.7922 102.384 40.3393C103.004 40.0374 103.248 39.962 103.417 39.5469L104.131 39.962C104.018 40.4525 103.661 40.6601 103.06 40.8865C102.553 41.0752 102.403 41.245 102.328 41.4337C102.534 41.245 102.816 41.1695 103.117 41.1695C103.643 41.1695 104.3 41.6035 104.3 42.4148C104.3 43.1884 103.737 43.7544 102.835 43.7544C101.877 43.7733 101.294 43.094 101.294 42.2072ZM103.417 42.4337C103.417 42.094 103.154 41.8488 102.797 41.8488C102.497 41.8488 102.196 42.0563 102.196 42.3959C102.196 42.7544 102.478 42.9808 102.816 42.9808C103.173 42.9997 103.417 42.7544 103.417 42.4337Z" fill="#FFF5ED"/>
<path d="M107.006 43.698H106.179V42.8678H106.01L105.428 43.698H104.451L105.127 42.7546C104.77 42.5848 104.582 42.2074 104.582 41.8489C104.582 41.3395 104.958 40.8301 105.653 40.8301H107.043V43.698H107.006ZM105.39 41.8678C105.39 42.0376 105.503 42.1508 105.691 42.1508H106.179V41.5848H105.691C105.503 41.5848 105.39 41.698 105.39 41.8678Z" fill="#FFF5ED"/>
</svg>
