<svg width="116" height="116" viewBox="0 0 116 116" fill="none" xmlns="http://www.w3.org/2000/svg">
<g filter="url(#filter0_d)">
<rect x="4" width="108" height="108" rx="21" fill="white"/>
</g>
<path d="M91.0537 93.7848C92.1275 93.7848 93.2014 93.7848 94.0963 93.7848C94.9912 93.7848 95.5281 94.2595 95.5281 94.8924C95.5281 95.5253 94.9912 96 94.0963 96C93.9173 96 93.7383 96 93.5594 96C69.7555 96 45.9516 96 21.9687 96C21.6108 96 21.2528 96 21.0739 96C20.358 95.8418 20 95.5253 20 94.8924C20 94.2595 20.358 93.943 21.0739 93.943C21.9687 93.943 23.0426 93.943 24.1165 93.943C24.1165 92.6772 24.1165 91.5696 24.1165 90.3038C24.1165 87.7722 25.9062 86.1899 28.5909 86.1899C31.8125 86.1899 34.8551 86.1899 38.0766 86.1899C38.7925 86.1899 39.3295 86.3481 40.2244 86.3481C40.2244 85.3987 40.2244 84.4494 40.2244 83.5C40.2244 81.2848 41.8351 79.7025 44.5198 79.5443C45.5936 79.5443 46.8465 79.5443 47.9203 79.5443C48.2783 79.5443 48.6362 79.3861 48.8152 79.0696C50.605 75.9051 52.2158 72.7405 53.8266 69.5759C54.0056 69.1013 54.0055 68.4683 54.1845 67.9937C54.3635 65.462 54.3635 62.9304 54.7215 60.3987C54.9004 59.2911 55.2584 58.1835 55.6163 57.0759C55.9743 56.1266 56.1533 55.1772 56.5112 54.2278C56.6902 53.4367 57.4061 53.1203 58.122 53.2785C58.8379 53.4367 59.1959 54.0696 58.8379 54.8608C58.48 55.9684 58.122 57.0759 57.764 58.3418C59.7328 57.7089 61.5226 57.0759 63.1333 56.443C63.3123 56.443 63.4913 56.1266 63.4913 55.9684C64.2072 54.3861 64.7441 52.6456 65.46 50.9051C65.2811 50.9051 64.9231 50.9051 64.7441 50.7468C64.3862 50.5886 63.8493 50.2721 63.6703 49.9557C63.4913 49.6392 63.8493 49.1646 64.0282 48.8481C64.2072 48.5316 64.5652 48.5316 64.9231 48.3734C68.5026 46.4747 72.0822 44.5759 75.4827 42.6772C77.2725 41.7278 78.3464 40.462 78.1674 38.8797C77.4515 39.1962 76.7356 39.5127 76.0197 39.8291C71.7242 41.8861 67.6078 43.943 63.3123 46C61.8805 46.6329 60.9856 47.5823 60.6277 48.8481C60.4487 49.3228 60.2697 49.9557 60.0908 50.4304C59.9118 51.0633 59.1959 51.3797 58.6589 51.0633C57.943 50.9051 57.5851 50.4304 57.764 49.6392C58.301 48.3734 58.8379 46.9494 59.3748 45.5253C57.943 44.4177 57.2271 42.8354 56.5112 41.2532C55.7953 39.8291 56.5112 38.0886 58.122 37.2975C59.3748 36.6646 60.4487 36.0316 62.0595 36.3481C63.3123 36.5063 64.2072 36.981 64.7441 37.9304C65.46 39.1962 66.1759 40.462 66.8919 41.7278C70.1134 40.1456 73.335 38.7215 76.3776 37.1392C76.5566 36.981 76.7356 36.5063 76.7356 36.1899C76.7356 31.7595 76.7356 27.1709 76.7356 22.7405C76.7356 22.4241 76.7356 22.2658 76.7356 21.9494C76.9145 21.3165 77.2725 21 77.9884 21C78.7043 21 79.0623 21.3165 79.2412 21.9494C79.2412 22.1076 79.2412 22.2658 79.2412 22.5823C79.5992 22.5823 79.9571 22.5823 80.3151 22.5823C84.7895 22.5823 89.2639 22.5823 93.7383 22.5823C94.6332 22.5823 95.5281 22.7405 95.8861 23.6899C96.244 24.481 95.7071 25.1139 94.9912 25.5886C93.9173 26.3797 92.8435 27.1709 91.7696 28.1203C92.6645 28.9114 93.5594 29.5443 94.4542 30.3354C94.8122 30.6519 95.1702 30.8101 95.3491 31.1266C95.8861 31.6013 96.065 32.0759 95.7071 32.7089C95.3491 33.3418 94.9912 33.6582 94.0963 33.8165C93.7383 33.8165 93.3804 33.8165 93.2014 33.8165C88.906 33.8165 84.6105 33.8165 80.1361 33.8165C79.7782 33.8165 79.4202 33.8165 79.0623 33.8165C79.0623 34.4494 79.0623 34.9241 79.0623 35.3987C79.0623 35.557 79.2412 35.7152 79.2412 35.7152C80.3151 35.8734 80.3151 36.6646 80.4941 37.4557C80.6731 39.038 80.3151 40.462 79.4202 41.7278C79.0623 42.2025 78.8833 42.8354 78.8833 43.3101C78.8833 49.0063 78.8833 54.7025 78.8833 60.3987C78.8833 60.7152 78.8833 61.0316 78.8833 61.3481C79.2412 61.3481 79.5992 61.3481 79.9571 61.3481C81.9259 61.3481 83.8946 61.3481 86.0424 61.3481C88.906 61.3481 90.6957 63.2468 90.6957 65.462C90.6957 74.3228 90.6957 83.3418 90.6957 92.2025C91.0537 92.9937 91.0537 93.3101 91.0537 93.7848ZM88.548 93.7848C88.548 93.4683 88.548 93.1519 88.548 92.8354C88.548 83.9747 88.548 74.9557 88.548 66.0949C88.548 64.5127 88.0111 64.038 86.2213 64.038C83.1787 64.038 80.3151 64.038 77.2725 64.038C75.4827 64.038 74.9458 64.6709 74.9458 66.0949C74.9458 71.1582 74.9458 76.3797 74.9458 81.443C74.9458 82.2342 74.5879 82.7089 73.693 82.7089C72.7981 82.7089 72.4401 82.2342 72.4401 81.443C72.4401 79.8608 72.4401 78.2785 72.4401 76.6962C72.4401 75.2721 71.9032 74.6392 70.1134 74.6392C67.0708 74.6392 64.0282 74.6392 60.9856 74.6392C59.3748 74.6392 58.8379 75.1139 58.8379 76.538C58.8379 81.9177 58.8379 87.2975 58.8379 92.6772C58.8379 92.9937 58.8379 93.3101 58.8379 93.4684C63.4913 93.4684 67.9657 93.4684 72.4401 93.4684C72.4401 91.4114 72.4401 89.3544 72.4401 87.2975C72.4401 86.3481 72.7981 85.8734 73.693 85.8734C74.4089 85.8734 74.9458 86.3481 74.9458 87.2975C74.9458 88.4051 74.9458 89.6709 74.9458 90.7785C74.9458 91.7278 74.9458 92.519 74.9458 93.4684C79.4202 93.7848 83.8946 93.7848 88.548 93.7848ZM56.3322 93.7848C56.3322 93.4683 56.3322 93.3101 56.3322 92.9937C56.3322 89.8291 56.3322 86.8228 56.3322 83.6582C56.3322 82.2342 55.7953 81.7595 54.1845 81.7595C51.1419 81.7595 48.0993 81.7595 44.8777 81.7595C43.267 81.7595 42.73 82.2342 42.73 83.6582C42.73 86.6646 42.73 89.8291 42.73 92.8354C42.73 93.1519 42.73 93.3101 42.73 93.6266C47.3834 93.7848 51.8578 93.7848 56.3322 93.7848ZM76.7356 44.8924C76.5566 44.8924 76.5566 44.8924 76.5566 44.8924C74.0509 46.1582 71.5453 47.5823 69.0396 48.8481C68.8606 49.0063 68.6816 49.3228 68.5026 49.6392C67.6078 51.8544 66.8919 54.0696 65.997 56.2848C65.818 56.9177 65.818 57.2342 66.3549 57.5506C67.7867 59.1329 69.3975 60.7152 70.8293 62.1392C71.7242 63.0886 72.2612 64.038 72.0822 65.3038C71.9032 66.4114 71.7242 67.3608 71.5453 68.4683C71.3663 69.8924 71.1873 71.1582 71.0083 72.5823C71.5452 72.7405 71.9032 72.7405 72.4401 72.8987C72.4401 70.3671 72.4401 67.9937 72.4401 65.6202C72.4401 63.8797 73.8719 62.4557 75.6617 61.981C76.0197 61.981 76.3776 61.8228 76.7356 61.8228C76.7356 56.1266 76.7356 50.4304 76.7356 44.8924ZM79.2412 31.7595C83.5367 31.7595 87.8321 31.7595 92.1276 31.7595C91.2327 31.1266 90.5168 30.4937 89.8009 29.8608C88.548 28.7532 88.548 27.962 89.8009 27.0127C90.5168 26.3797 91.2327 25.7468 92.1276 25.1139C87.6531 25.1139 83.5367 25.1139 79.2412 25.1139C79.2412 27.4873 79.2412 29.5443 79.2412 31.7595ZM40.2244 93.7848C40.2244 92.519 40.2244 91.2532 40.2244 90.1456C40.2244 89.038 39.5084 88.4051 38.2556 88.4051C35.034 88.4051 31.8124 88.4051 28.4119 88.4051C27.517 88.4051 26.6221 88.7215 26.6221 89.5127C26.4432 90.9367 26.6221 92.3608 26.6221 93.7848C31.2755 93.7848 35.571 93.7848 40.2244 93.7848ZM51.3209 79.3861L51.4999 79.5443C51.6788 79.3861 52.0368 79.2278 52.2158 78.9114C54.7215 76.0633 57.0481 73.2152 59.5538 70.3671C60.0907 69.7342 60.4487 68.7848 60.6277 67.9937C60.9856 66.7278 61.1646 65.3038 61.5226 63.8797C61.8805 62.2975 62.2385 60.557 62.5964 58.8165C60.8067 59.4494 59.1959 60.0823 57.5851 60.7152C57.0481 60.8734 56.8692 61.0316 56.8692 61.5063C56.6902 63.7215 56.6902 65.9367 56.5112 68.3101C56.3322 69.2595 56.1533 70.2089 55.7953 71C54.5425 73.5316 53.1107 76.0633 51.6788 78.5949C51.4999 78.9114 51.4999 79.2278 51.3209 79.3861ZM65.1021 59.6076C64.9231 60.7152 64.7441 61.6646 64.5652 62.6139C64.2072 63.4051 64.3862 64.038 65.46 64.3544C66.7129 64.8291 67.0708 65.6202 67.2498 66.8861C67.4288 68.6266 67.6078 70.3671 67.7867 71.9494C67.7867 72.1076 67.9657 72.424 68.1447 72.5823C68.1447 72.5823 68.5026 72.5823 68.6816 72.424C68.8606 72.2658 68.8606 71.9494 68.8606 71.6329C69.2186 69.4177 69.3975 67.3608 69.7555 65.1456C69.7555 64.8291 69.7555 64.3544 69.5765 64.1962C67.9657 62.6139 66.5339 61.1899 65.1021 59.6076ZM61.7015 38.7215C59.3748 38.7215 58.48 39.9873 59.3748 41.5696C59.7328 42.2025 60.0907 42.6772 60.4487 43.3101C60.8067 43.943 61.5226 44.2595 62.2385 44.1013C63.4913 43.7848 64.3862 43.1519 64.3862 42.3608C64.3862 42.2025 64.3862 42.0443 64.2072 41.7278C63.6703 40.9367 63.3123 39.9873 62.7754 39.1962C62.2385 39.038 61.8805 38.8797 61.7015 38.7215ZM63.8493 65.9367C63.3123 68.3101 63.3123 70.6835 60.9856 72.424C62.5964 72.424 63.8493 72.424 65.1021 72.424C64.9231 70.5253 64.7441 68.6266 64.3862 66.7278C64.3862 66.4114 64.2072 66.2532 63.8493 65.9367ZM56.3322 79.8608C56.3322 79.2278 56.3322 78.7532 56.3322 78.1203C55.7953 78.7532 55.4374 79.0696 55.0794 79.5443C55.4374 79.7025 55.7953 79.7025 56.3322 79.8608Z" fill="#E18370"/>
<defs>
<filter id="filter0_d" x="0" y="0" width="116" height="116" filterUnits="userSpaceOnUse" color-interpolation-filters="sRGB">
<feFlood flood-opacity="0" result="BackgroundImageFix"/>
<feColorMatrix in="SourceAlpha" type="matrix" values="0 0 0 0 0 0 0 0 0 0 0 0 0 0 0 0 0 0 127 0"/>
<feOffset dy="4"/>
<feGaussianBlur stdDeviation="2"/>
<feColorMatrix type="matrix" values="0 0 0 0 0.882353 0 0 0 0 0.513726 0 0 0 0 0.439216 0 0 0 0.25 0"/>
<feBlend mode="normal" in2="BackgroundImageFix" result="effect1_dropShadow"/>
<feBlend mode="normal" in="SourceGraphic" in2="effect1_dropShadow" result="shape"/>
</filter>
</defs>
</svg>
