<svg width="71" height="70" fill="none" xmlns="http://www.w3.org/2000/svg"><path d="M66.317 67.933h2.84c.835 0 1.336.442 1.336 1.033S69.992 70 69.156 70H1.002C.334 69.852 0 69.557 0 68.966c0-.59.334-.886 1.002-.886h2.84v-3.397c0-2.362 1.67-3.84 4.176-3.84h8.854c.668 0 1.169.149 2.004.149v-2.659c0-2.067 1.503-3.544 4.01-3.692h3.173c.334 0 .668-.147.835-.443 1.67-2.953 3.174-5.907 4.678-8.86.166-.444.166-1.034.334-1.477.167-2.363.167-4.726.5-7.089.168-1.034.502-2.067.836-3.101.334-.886.501-1.772.835-2.658.167-.739.835-1.034 1.504-.886.668.147 1.002.738.668 1.476a88.42 88.42 0 00-1.003 3.25 84.41 84.41 0 005.012-1.773c.167 0 .334-.295.334-.443.668-1.477 1.17-3.101 1.837-4.726-.167 0-.5 0-.668-.147-.334-.148-.835-.443-1.002-.739-.167-.295.167-.738.334-1.033.167-.296.501-.296.835-.444 3.341-1.772 6.682-3.544 9.856-5.316 1.67-.886 2.673-2.067 2.506-3.544l-2.005.886c-4.009 1.92-7.851 3.84-11.86 5.76-1.336.59-2.172 1.476-2.506 2.658-.167.443-.334 1.033-.501 1.476-.167.591-.835.886-1.336.591-.669-.148-1.003-.59-.836-1.329.502-1.181 1.003-2.51 1.504-3.84-1.337-1.034-2.005-2.51-2.673-3.987-.668-1.33 0-2.954 1.504-3.692 1.169-.59 2.171-1.181 3.674-.886 1.17.148 2.005.59 2.506 1.477l2.005 3.544c3.007-1.477 6.013-2.806 8.853-4.283.167-.147.334-.59.334-.886V1.624.886c.167-.59.501-.886 1.17-.886.668 0 1.002.295 1.169.886v.59H68.822c.836 0 1.67.148 2.005 1.035.334.738-.167 1.329-.835 1.772-1.002.738-2.005 1.476-3.007 2.363.835.738 1.67 1.329 2.506 2.067.334.295.668.443.835.738.501.444.668.887.334 1.477-.334.591-.668.886-1.504 1.034H55.125v1.477c0 .147.167.295.167.295 1.002.148 1.002.886 1.17 1.625.166 1.476-.168 2.806-1.003 3.987a2.615 2.615 0 00-.501 1.477v16.835H61.64c2.672 0 4.343 1.772 4.343 3.84v24.958c.334.738.334 1.033.334 1.477zm-2.339 0v-.887V42.09c0-1.477-.501-1.92-2.171-1.92h-8.353c-1.67 0-2.171.59-2.171 1.92v14.325c0 .738-.334 1.18-1.17 1.18-.835 0-1.169-.442-1.169-1.18v-4.43c0-1.33-.501-1.92-2.172-1.92h-8.519c-1.503 0-2.004.442-2.004 1.771v15.802h12.695v-5.76c0-.885.334-1.329 1.17-1.329.668 0 1.169.444 1.169 1.33v5.759c4.176.296 8.352.296 12.695.296zm-30.068 0v-.739-8.713c0-1.33-.501-1.772-2.004-1.772h-8.687c-1.503 0-2.004.443-2.004 1.772v9.304c4.343.148 8.519.148 12.695.148zM52.953 22.3h-.167c-2.339 1.181-4.677 2.51-7.016 3.692-.167.147-.334.443-.5.738-.836 2.067-1.504 4.135-2.34 6.202-.166.591-.166.887.335 1.182 1.336 1.477 2.84 2.954 4.176 4.283.835.886 1.336 1.772 1.169 2.953-.167 1.034-.334 1.92-.501 2.954-.167 1.329-.334 2.51-.501 3.84.5.147.835.147 1.336.295v-6.793c0-1.625 1.337-2.954 3.007-3.397.334 0 .668-.148 1.002-.148V22.3zm2.339-12.258h12.027c-.835-.59-1.503-1.181-2.172-1.772-1.169-1.034-1.169-1.772 0-2.658.669-.59 1.337-1.182 2.172-1.772H55.292v6.202zm-36.416 57.89v-3.396c0-1.034-.668-1.625-1.837-1.625H7.85c-.835 0-1.67.296-1.67 1.034-.167 1.33 0 2.658 0 3.988h12.695zm10.357-13.438l.167.147c.167-.147.501-.295.668-.59 2.339-2.659 4.51-5.317 6.849-7.975.501-.59.835-1.477 1.002-2.215.334-1.182.501-2.51.835-3.84.335-1.477.669-3.101 1.003-4.726-1.67.591-3.174 1.182-4.678 1.773-.5.147-.668.295-.668.738-.167 2.067-.167 4.135-.334 6.35-.167.886-.334 1.772-.668 2.51-1.17 2.364-2.506 4.726-3.842 7.09-.167.295-.167.59-.334.738zm12.862-18.46a104.61 104.61 0 01-.5 2.806c-.335.738-.168 1.329.834 1.624 1.17.443 1.504 1.182 1.67 2.363.168 1.625.335 3.249.502 4.726 0 .147.167.443.334.59 0 0 .334 0 .501-.147.167-.148.167-.443.167-.739.334-2.067.501-3.987.835-6.054 0-.296 0-.739-.167-.887-1.503-1.476-2.84-2.806-4.176-4.282zM38.921 16.54c-2.171 0-3.006 1.181-2.171 2.658.334.591.668 1.034 1.002 1.625.334.59 1.002.886 1.67.738 1.17-.295 2.005-.886 2.005-1.624 0-.148 0-.296-.167-.591-.501-.738-.835-1.625-1.336-2.363-.501-.148-.835-.295-1.003-.443zm2.005 25.4c-.501 2.216-.501 4.431-2.673 6.056h3.842c-.167-1.772-.334-3.544-.668-5.317 0-.295-.167-.443-.501-.738zM33.91 54.938v-1.625c-.501.591-.835.886-1.17 1.33.335.147.669.147 1.17.295z" fill="#fff"/></svg>