<svg width="116" height="116" viewBox="0 0 116 116" fill="none" xmlns="http://www.w3.org/2000/svg">
<g filter="url(#filter0_d)">
<rect x="4" width="108" height="108" rx="21" fill="white"/>
</g>
<path d="M36.3494 90.2631C36.3494 88.842 36.3494 87.421 36.3494 85.8421C36.3494 85.2105 36.1928 84.421 36.3494 83.7894C36.6627 81.2631 36.0361 79.2105 34.3133 77.4737C33.8434 77 33.3735 76.2105 32.9036 75.5789C32.2771 74.6316 32.1205 74 32.9036 73.5263C33.5301 73.0526 34.1566 73.2105 34.7831 74.1579C36.3494 76.2105 37.7591 78.1052 39.3253 80.1579C39.6386 80.6315 40.4217 81.1052 40.8916 81.1052C44.1807 81.2631 47.4699 81.1052 50.759 81.1052C51.6988 81.1052 52.3253 80.3158 52.4819 79.5263C52.6386 78.5789 52.1687 77.6315 51.3856 77.3158C50.9157 77.1579 50.4458 77 49.8193 77C47.6265 77 45.2771 77 43.0843 77C42.3012 77 41.8313 76.6842 41.3614 76.0526C39.6386 73.6842 37.759 71.1579 35.8795 68.7895C35.5663 68.4737 35.4096 68.1579 35.0964 67.8421C34.6265 67.5263 34.3133 67.5263 33.6868 67.8421C31.0241 69.421 28.5181 69.421 25.8554 67.8421C25.5422 67.6842 25.2289 67.6842 24.9157 67.8421C23.8193 68.4737 23.1928 69.421 23.1928 70.6842C23.1928 73.0526 23.1928 75.421 23.1928 77.9473C23.1928 78.8947 22.8795 79.3684 22.0964 79.3684C21.3133 79.3684 21 78.8947 21 77.9473C21 75.5789 21 73.2105 21 70.8421C21 68.7895 21.7831 67.2105 23.506 66.1053C23.6627 65.9474 23.6627 65.9474 23.8193 65.7895C22.5663 64.0526 22.5663 62 22.5663 59.9474C22.5663 58.3684 22.5663 56.6316 22.5663 55.0526C22.5663 52.6842 24.4458 50.7895 26.6386 50.6316C28.6747 50.4737 30.7109 50.4737 32.9036 50.6316C35.253 50.7895 36.9759 52.6842 36.9759 55.0526C36.9759 56.6316 36.9759 58.2105 36.9759 59.7895C36.9759 61.8421 36.9759 63.7368 35.8795 65.4737C38.0723 67.2105 39.3253 69.5789 41.0482 71.6316C41.6747 72.2631 42.1446 73.0526 42.6145 73.6842C42.9277 74.3158 43.5542 74.4737 44.1807 74.4737C45.2771 74.4737 46.5301 74.4737 47.7831 74.4737C47.7831 73.2105 47.9398 71.9473 47.7831 70.8421C47.6265 68.4737 48.7229 66.8947 50.6024 65.6316C51.2289 65.1579 52.0121 64.8421 52.6386 64.5263C51.8554 61.2105 52.3253 57.8947 52.3253 54.579C52.3253 52.6842 54.3614 50.7895 56.241 50.6316C59.3735 50.4737 62.506 50.6316 65.4819 50.6316C66.2651 50.6316 66.735 50.9474 66.735 51.7369C66.735 55.5263 66.7349 59.3158 66.5783 63.1053C66.5783 63.5789 66.4217 63.8947 66.2651 64.5263C66.4217 64.6842 66.735 64.6842 67.0482 64.8421C68.1446 65.4737 69.241 66.1053 70.1807 66.8947C71.2771 67.8421 71.747 69.1052 71.747 70.5263C71.747 71.9473 71.747 73.2105 71.747 74.6316C73.3133 74.6316 74.5663 74.6316 75.9759 74.6316C76.1325 74.6316 76.4458 74.3158 76.6024 74.1579C78.1687 72.1052 79.7349 69.8947 81.4578 67.8421C82.0843 67.0526 82.7108 66.421 83.3374 65.6316C81.6145 62.1579 82.5542 58.3684 82.3976 54.579C82.3976 52.6842 84.2771 50.7895 86.3133 50.6316C88.506 50.4737 90.6988 50.4737 92.8916 50.6316C94.9277 50.7895 96.8072 52.8421 96.8072 54.7369C96.8072 57.2632 96.9639 59.6316 96.8072 62.1579C96.8072 63.4211 96.1807 64.5263 95.8675 65.9474C95.8675 65.9474 96.0241 66.1053 96.3374 66.2632C97.747 67.3684 98.5301 68.7895 98.5301 70.5263C98.5301 72.8947 98.5301 75.421 98.5301 77.7894C98.5301 78.7368 98.0602 79.3684 97.4337 79.3684C96.6506 79.3684 96.3374 78.8947 96.3374 77.7894C96.3374 75.421 96.3374 73.0526 96.3374 70.6842C96.3374 69.8947 95.8675 69.1052 95.5542 68.4737C94.9277 67.5263 94.3012 67.5263 93.3615 68C91.0121 69.2631 88.6627 69.2631 86.3133 68C85.2169 67.3684 84.747 67.3684 83.9639 68.4737C82.5542 70.3684 81.1446 72.421 79.5783 74.3158C77.2289 77.4737 78.4819 76.8421 74.5663 76.8421C73 76.8421 71.2771 76.8421 69.7108 76.8421C68.3012 76.8421 67.3615 77.6315 67.3615 78.8947C67.3615 80 67.988 80.7894 69.0844 80.9473C69.3976 80.9473 69.7108 80.9473 70.0241 80.9473C72.6867 80.9473 75.506 80.9473 78.1687 80.9473C79.4217 80.9473 80.2048 80.4736 80.8313 79.5263C82.241 77.6315 83.6506 75.7368 85.0602 73.8421C85.2169 73.6842 85.2169 73.5263 85.3735 73.3684C85.8434 72.7368 86.4699 72.7368 87.0964 73.0526C87.5663 73.5263 87.7229 74.1579 87.253 74.7894C86.1566 76.2105 85.0602 77.6315 84.1205 79.0526C83.8072 79.5263 83.6506 80.1579 83.6506 80.6315C83.6506 83.6315 83.6506 86.6315 83.6506 89.6315C88.0361 89.6315 92.2651 89.6315 96.8072 89.6315C96.8072 88.5263 96.8072 87.5789 96.8072 86.4736C96.8072 85.3684 96.8072 84.2631 96.8072 83.3158C96.8072 82.5263 97.2771 82.0526 97.9036 82.0526C98.5301 82.0526 99 82.5263 99 83.3158C99 84.421 99 85.5263 99 86.4736C99 87.8947 99 89.1578 99 90.5789C99 91.5263 98.5301 91.9999 97.5904 91.9999C97.4337 91.9999 97.1205 91.9999 96.9639 91.9999C72.5301 91.9999 48.0964 91.9999 23.6627 91.9999C23.506 91.9999 23.1928 91.9999 23.0361 91.9999C22.0964 91.9999 21.7831 91.5263 21.7831 90.5789C21.7831 88.2105 21.7831 85.6842 21.7831 83.3158C21.7831 82.5263 22.253 82.0526 22.8795 82.0526C23.506 82.0526 23.9759 82.5263 23.9759 83.3158C23.9759 85.3684 23.9759 87.421 23.9759 89.6315C27.735 90.2631 31.9639 90.2631 36.3494 90.2631ZM80.6747 90.2631C80.6747 88.0526 80.6747 85.8421 80.6747 83.7894C66.5783 83.7894 52.6386 83.7894 38.6988 83.7894C38.6988 86 38.6988 88.0526 38.6988 90.2631C52.7952 90.2631 66.7349 90.2631 80.6747 90.2631ZM65.0121 81.421C64.3856 79.8421 64.3855 78.421 65.3253 77C66.2651 75.5789 67.6747 75.1052 69.3976 74.9473C69.3976 73.6842 69.241 72.5789 69.3976 71.4737C69.5542 69.7368 68.7711 68.7895 67.3615 68C66.7349 67.6842 66.2651 67.3684 65.6386 67.0526C65.3253 66.8947 64.8554 67.0526 64.6988 67.2105C62.0362 69.8947 57.9639 70.2105 55.1446 67.8421C54.0482 66.8947 53.2651 67.0526 52.3253 67.6842C51.6988 68.1579 51.2289 68.4737 50.6024 69.1053C50.2892 69.421 50.1325 69.7368 50.1325 70.2105C50.1325 71.7895 50.1325 73.3684 50.1325 75.1052C53.2651 75.1052 55.9277 77.7894 54.5181 81.5789C57.9639 81.421 61.4096 81.421 65.0121 81.421ZM54.5181 58.5263C54.5181 59.7895 54.5181 60.8947 54.5181 62C54.5181 64.0526 55.9277 65.9474 57.8072 66.5789C59.8434 67.2105 62.0361 66.5789 63.2892 65C64.8554 62.9474 64.2289 60.7368 64.3856 58.5263C61.0964 58.5263 57.8072 58.5263 54.5181 58.5263ZM24.9157 61.2105C27.1084 62 29.1446 61.2105 29.7711 59.1579C29.9277 58.5263 30.0843 57.8947 30.0843 57.2632C30.241 55.8421 31.0241 55.5263 32.2771 56.3158C33.0603 56.7895 33.8434 57.1053 34.9398 56.9474C34.9398 56.4737 34.9398 56 34.9398 55.5263C34.9398 54.1053 34 53.1579 32.5904 53.1579C30.8675 53.1579 28.988 53.1579 27.2651 53.1579C26.012 53.1579 25.0723 53.9474 25.0723 55.2105C24.759 57.2632 24.9157 59.3158 24.9157 61.2105ZM94.4578 61.2105C94.4578 59.1579 94.4578 57.2632 94.4578 55.2105C94.4578 54.1053 93.5181 53.1579 92.2651 53.1579C90.3855 53.1579 88.506 53.1579 86.6265 53.1579C85.5301 53.1579 84.9036 53.7895 84.5904 54.7369C84.4337 55.3684 84.4337 56.1579 84.4337 56.7895C85.5301 56.9474 86.1566 56.7895 87.253 56.1579C88.3494 55.3684 89.1325 55.8421 89.2892 57.1053C89.2892 57.2632 89.2892 57.579 89.2892 57.7369C89.759 60.8947 91.6386 62.3158 94.4578 61.2105ZM25.2289 63.7368C25.8554 65.4737 27.1084 66.421 28.6747 66.8947C30.5542 67.3684 32.2771 66.7368 33.6868 65.3158C35.253 63.5789 34.7831 61.3684 34.7831 59.4737C33.8434 59.3158 33.0603 59.1579 32.1205 59C31.3374 62.4737 28.988 64.2105 25.2289 63.7368ZM84.5904 59.3158C84.5904 60.1053 84.5904 60.8947 84.5904 61.6842C84.5904 65 87.4096 67.3684 90.6988 66.7368C92.2651 66.421 93.8313 65 94.1446 63.5789C90.3856 64.0526 88.1928 62.3158 87.4097 58.6842C86.3133 59 85.5301 59.1579 84.5904 59.3158ZM54.5181 56.1579C57.8072 56.1579 61.0964 56.1579 64.3856 56.1579C64.3856 55.0526 64.3856 54.1053 64.3856 53C61.8795 53 59.5301 53 57.1807 53C55.1446 53.1579 54.3615 54.1053 54.5181 56.1579Z" fill="#E18370"/>
<path d="M60.1566 26.1579C60.6265 26.1579 60.9398 26.1579 61.253 26.1579C67.2048 26.1579 73.1566 26.1579 78.9518 26.1579C81.1446 26.1579 82.8675 26.9473 83.9639 28.8421C84.4337 29.6316 84.747 30.7368 84.747 31.6842C84.9036 35.3158 84.747 39.1052 84.747 42.7368C84.747 44.9473 83.3374 47.1578 81.1446 47.7894C80.5181 47.9473 80.3614 48.2631 80.3614 48.8947C80.3614 49.9999 80.3614 51.2631 80.3614 52.3683C80.3614 52.842 80.0482 53.4736 79.7349 53.4736C79.4217 53.6315 78.6386 53.4736 78.3253 53.1578C77.0723 51.8947 75.6627 50.6315 74.5663 49.3684C73.7831 48.421 72.8434 48.1052 71.5904 48.1052C70.3373 48.2631 69.0843 48.1052 67.8313 48.1052C67.5181 48.1052 67.2048 48.1052 66.8916 47.9473C66.5783 47.6315 66.1084 47.3157 66.1084 46.9999C66.1084 46.6841 66.4217 46.2105 66.7349 45.8947C66.8916 45.7368 67.3614 45.7368 67.6747 45.7368C69.5542 45.7368 71.2771 45.7368 73.1566 45.7368C73.9398 45.7368 74.5663 45.8947 75.0361 46.5263C75.9759 47.4736 76.9157 48.421 78.0121 49.3684C78.0121 48.7368 78.0121 47.9473 78.0121 47.3157C78.0121 46.2105 78.3253 45.8947 79.4217 45.7368C81.3012 45.421 82.3976 44.3157 82.3976 42.421C82.3976 38.9473 82.3976 35.4736 82.3976 32C82.3976 30.2631 81.1446 28.3684 78.7952 28.3684C74.4096 28.3684 69.8675 28.3684 65.4819 28.3684C63.6024 28.3684 61.8795 28.3684 59.8434 28.3684C59.8434 29.3158 59.8434 30.2631 59.8434 31.2105C59.8434 32.9473 59.8434 34.6842 59.8434 36.421C60 40.5263 56.7108 43.842 52.9518 43.6842C52.7952 43.6842 52.6385 43.6842 52.3253 43.6842C52.7952 44.9473 53.7349 45.7368 54.988 45.7368C57.0241 45.7368 59.0602 45.7368 61.0964 45.7368C61.4096 45.7368 61.5663 45.7368 61.8795 45.7368C62.506 45.8947 62.9759 46.2105 62.9759 46.9999C62.9759 47.6315 62.506 48.1052 61.8795 48.1052C59.3735 48.1052 56.7109 48.2631 54.2048 47.9473C52.1687 47.7894 50.759 46.3684 50.1325 44.3157C49.9759 43.842 49.6626 43.6842 49.1928 43.6842C44.3373 43.6842 39.6385 43.6842 34.7831 43.6842C34.4699 43.6842 34 43.842 33.6867 44.1578C32.2771 45.5789 30.7108 46.9999 29.3012 48.5789C28.8313 49.0526 28.3614 49.3684 27.7349 49.0526C27.1084 48.7368 27.1084 48.2631 27.1084 47.6315C27.1084 46.5263 27.1084 45.421 27.1084 44.3157C27.1084 43.842 26.9518 43.6842 26.4819 43.5263C23.1928 42.5789 21.3133 40.0526 21.3133 36.5789C21.3133 32.4737 21.3133 28.3684 21.3133 24.2631C21.3133 20.1579 24.1325 17.1579 28.3615 17C36.506 17 44.8072 17 52.9518 17C57.0241 17 59.8434 20 60 24.2631C60.1566 24.8947 60.1566 25.5263 60.1566 26.1579ZM29.6144 45.1052C29.6144 45.1052 29.7711 45.1052 29.7711 45.2631C30.7108 44.3157 31.6506 43.3684 32.5904 42.2631C33.0602 41.6315 33.6867 41.4736 34.4699 41.4736C40.7349 41.4736 47 41.4736 53.1084 41.4736C55.7711 41.4736 57.6506 39.421 57.6506 36.7368C57.6506 32.6315 57.6506 28.5263 57.6506 24.421C57.6506 21.421 55.7711 19.5263 52.9518 19.3684C44.8072 19.3684 36.6626 19.3684 28.5181 19.3684C25.3855 19.3684 23.6627 22.0526 23.6627 24.421C23.8193 28.3684 23.6627 32.3158 23.6627 36.2631C23.6627 39.421 25.0723 40.9999 28.2048 41.4736C28.988 41.6315 29.4578 41.9473 29.4578 42.7368C29.6145 43.5263 29.6144 44.3157 29.6144 45.1052Z" fill="#E18370"/>
<path d="M40.8916 23.3157C44.1807 23.3157 47.4699 23.3157 50.759 23.3157C51.0723 23.3157 51.3855 23.3157 51.6988 23.3157C52.0121 23.4736 52.4819 23.9473 52.4819 24.263C52.4819 24.5788 52.1687 25.0525 51.8554 25.3683C51.5422 25.5262 51.0723 25.5262 50.759 25.5262C44.1807 25.5262 37.6024 25.5262 31.0241 25.5262C30.8675 25.5262 30.7108 25.5262 30.5542 25.5262C29.7711 25.5262 29.1446 25.0525 29.1446 24.4209C29.1446 23.7894 29.6145 23.3157 30.5542 23.3157C34.1566 23.3157 37.6024 23.3157 40.8916 23.3157Z" fill="#E18370"/>
<path d="M40.8916 31.6842C37.6024 31.6842 34.1566 31.6842 30.8675 31.6842C29.9277 31.6842 29.3012 31.3684 29.3012 30.5789C29.3012 29.9473 29.9277 29.4736 30.8675 29.4736C37.6024 29.4736 44.3373 29.4736 51.0723 29.4736C52.012 29.4736 52.6386 29.9473 52.6386 30.5789C52.6386 31.2105 52.1687 31.6842 51.2289 31.6842C47.7831 31.6842 44.3374 31.6842 40.8916 31.6842Z" fill="#E18370"/>
<path d="M35.7229 35.3157C37.2892 35.3157 39.012 35.3157 40.5783 35.3157C41.5181 35.3157 41.9879 35.7894 41.9879 36.4209C41.9879 37.0525 41.5181 37.5262 40.5783 37.5262C37.2891 37.5262 34 37.5262 30.7108 37.5262C29.7711 37.5262 29.3012 37.0525 29.3012 36.4209C29.3012 35.7894 29.7711 35.3157 30.7108 35.3157C32.4337 35.3157 34.1566 35.3157 35.7229 35.3157Z" fill="#E18370"/>
<defs>
<filter id="filter0_d" x="0" y="0" width="116" height="116" filterUnits="userSpaceOnUse" color-interpolation-filters="sRGB">
<feFlood flood-opacity="0" result="BackgroundImageFix"/>
<feColorMatrix in="SourceAlpha" type="matrix" values="0 0 0 0 0 0 0 0 0 0 0 0 0 0 0 0 0 0 127 0"/>
<feOffset dy="4"/>
<feGaussianBlur stdDeviation="2"/>
<feColorMatrix type="matrix" values="0 0 0 0 0.882353 0 0 0 0 0.513726 0 0 0 0 0.439216 0 0 0 0.25 0"/>
<feBlend mode="normal" in2="BackgroundImageFix" result="effect1_dropShadow"/>
<feBlend mode="normal" in="SourceGraphic" in2="effect1_dropShadow" result="shape"/>
</filter>
</defs>
</svg>
