<svg width="47" height="46" viewBox="0 0 47 46" fill="none" xmlns="http://www.w3.org/2000/svg">
<path d="M46.706 22.877C46.706 26.3209 46.706 29.7647 46.706 32.9626C46.706 36.1604 45.7227 38.8663 43.756 41.3262C41.7894 43.7861 39.0852 45.262 35.8894 45.754C35.1519 45.754 34.4145 46 33.9228 46C27.0395 46 20.4021 46 13.5188 46C8.11057 46 3.43978 42.8021 1.47313 37.8824C0.981472 36.4064 0.489807 34.9305 0.489807 33.4545C0.489807 26.5668 0.489807 19.6791 0.489807 12.7914C0.489807 7.37968 3.68561 2.70588 8.60223 0.983957C10.0772 0.491979 11.798 0 13.273 0C20.1563 0 27.0395 0 33.9228 0C38.5936 0 42.281 2.2139 44.7393 6.14973C46.2143 8.11765 46.706 10.3315 46.706 12.7914C46.706 16.2353 46.706 19.6791 46.706 22.877ZM23.5979 10.0856C16.4688 10.0856 10.8147 15.7433 10.8147 22.877C10.8147 30.0107 16.4688 35.6684 23.5979 35.6684C30.727 35.6684 36.3811 30.0107 36.3811 22.877C36.3811 15.7433 30.727 10.0856 23.5979 10.0856ZM41.5436 7.62567C41.5436 6.14973 40.3144 5.16578 39.0852 5.16578C37.6103 5.16578 36.6269 6.39572 36.6269 7.62567C36.6269 9.1016 37.8561 10.0856 39.0852 10.0856C40.5602 10.0856 41.5436 8.85561 41.5436 7.62567Z" fill="#FFF2E9"/>
<path d="M15.9772 22.8771C15.9772 18.6953 19.4188 15.2515 23.5979 15.2515C27.777 15.2515 31.2186 18.6953 31.2186 22.8771C31.2186 27.059 27.777 30.5028 23.5979 30.5028C19.4188 30.7488 15.9772 27.3049 15.9772 22.8771Z" fill="#FFF2E9"/>
</svg>
