<svg width="137" height="42" viewBox="0 0 137 42" fill="none" xmlns="http://www.w3.org/2000/svg">
<path d="M67.0602 25.0343H63.6946V38.506V41.8559H67.0602H74.0074V38.506H67.0602V25.0343Z" fill="#FFF5ED"/>
<path d="M75.4472 25.0343V28.4022V31.7701V35.1381V38.506V41.8559H78.8128H86.6059V38.506H78.8128V35.1381H84.6261V31.7701H78.8128V28.4022H86.6059V25.0343H78.8128H75.4472Z" fill="#FFF5ED"/>
<path d="M5.1654 25.0343H0V41.8559H5.1654C9.80885 41.8559 13.5704 38.0918 13.5704 33.4451C13.5704 28.7985 9.80885 25.0343 5.1654 25.0343ZM10.2048 33.4451C10.2048 36.2367 7.95507 38.488 5.1654 38.488H3.36561V28.3842H5.1654C7.93707 28.4022 10.2048 30.6715 10.2048 33.4451Z" fill="#FFF5ED"/>
<path d="M23.1093 24.9082C18.3938 24.9082 14.5783 28.7264 14.5783 33.4451C14.5783 38.1638 18.3938 41.982 23.1093 41.982C27.8247 41.982 31.6403 38.1638 31.6403 33.4451C31.6403 28.7264 27.8247 24.9082 23.1093 24.9082ZM23.1093 38.434C20.3736 38.434 18.1419 36.2007 18.1419 33.4631C18.1419 30.7256 20.3736 28.4923 23.1093 28.4923C25.845 28.4923 28.0767 30.7256 28.0767 33.4631C28.0767 36.2007 25.845 38.434 23.1093 38.434Z" fill="#FFF5ED"/>
<path d="M44.2388 33.4631C44.2388 36.2007 43.3029 38.434 40.1893 38.434C37.2197 38.434 36.1398 36.2007 36.1398 33.4631V25.0343H32.5402V33.4451C32.5402 38.1638 34.628 41.982 40.1713 41.982C45.6967 41.982 47.8024 38.1638 47.8024 33.4451V25.0343H44.2028V33.4631H44.2388Z" fill="#FFF5ED"/>
<path d="M111.749 5.33105C107.034 5.33105 103.218 9.14924 103.218 13.8679C103.218 18.5866 107.034 22.4048 111.749 22.4048C116.464 22.4048 120.28 18.5866 120.28 13.8679C120.28 9.14924 116.464 5.33105 111.749 5.33105ZM111.749 18.8568C109.013 18.8568 106.782 16.6235 106.782 13.8859C106.782 11.1484 109.013 8.9151 111.749 8.9151C114.485 8.9151 116.716 11.1484 116.716 13.8859C116.716 16.6235 114.485 18.8568 111.749 18.8568Z" fill="#FFF5ED"/>
<path d="M132.878 13.8859C132.878 16.6235 131.943 18.8568 128.829 18.8568C125.859 18.8568 124.779 16.6235 124.779 13.8859V5.45712H121.18V13.8679C121.18 18.5866 123.268 22.4048 128.811 22.4048C134.336 22.4048 136.442 18.5866 136.442 13.8679V5.45712H132.842V13.8859H132.878Z" fill="#FFF5ED"/>
<path d="M59.537 32.6527C60.329 31.9503 60.7969 30.9957 60.7969 29.8611C60.7969 27.1955 59.1051 25.0343 55.9735 25.0343H52.7698H49.4042V28.4022V31.2479V34.6158V38.506V41.8739H52.7698H57.2693C60.347 41.8739 62.4167 39.8928 62.4167 36.6149C62.4167 34.4357 61.1569 33.265 59.537 32.6527ZM52.7698 28.4022H55.9735C56.8014 28.4022 57.3413 29.0146 57.3413 29.8611C57.3413 30.6175 56.7294 31.2298 55.9735 31.2298V31.2479H52.7878V28.4022H52.7698ZM57.2693 38.506H52.7698V34.6158H57.2693C58.4572 34.6158 59.1231 35.5343 59.1231 36.5609C59.1411 37.6595 58.3852 38.506 57.2693 38.506Z" fill="#FFF5ED"/>
<path d="M101.472 5.45712L96.6847 12.0489L92.0952 5.45712H88.0457L95.0109 15.1287V22.2787H98.3765V15.1287L105.504 5.45712H101.472Z" fill="#FFF5ED"/>
<path d="M86.6059 0H83.2763H83.2403V19.1449H0V22.5129H86.6059V22.4228V19.1449V3.36792H137V0H86.6059Z" fill="#FFF5ED"/>
</svg>
