<svg width="143" height="44" viewBox="0 0 143 44" fill="none" xmlns="http://www.w3.org/2000/svg">
<path d="M69.9971 26.2266H66.4841V40.3398V43.8492H69.9971H77.2486V40.3398H69.9971V26.2266Z" fill="#FFF5ED"/>
<path d="M78.7515 26.2266V29.7549V33.2832V36.8115V40.3398V43.8492H82.2645H90.3989V40.3398H82.2645V36.8115H88.3324V33.2832H82.2645V29.7549H90.3989V26.2266H82.2645H78.7515Z" fill="#FFF5ED"/>
<path d="M5.39162 26.2266H0V43.8492H5.39162C10.2384 43.8492 14.1647 39.9058 14.1647 35.0379C14.1647 30.17 10.2384 26.2266 5.39162 26.2266ZM10.6517 35.0379C10.6517 37.9624 8.30347 40.3209 5.39162 40.3209H3.51301V29.736H5.39162C8.28468 29.7549 10.6517 32.1322 10.6517 35.0379Z" fill="#FFF5ED"/>
<path d="M24.1214 26.0942C19.1994 26.0942 15.2167 30.0942 15.2167 35.0376C15.2167 39.981 19.1994 43.981 24.1214 43.981C29.0433 43.981 33.026 39.981 33.026 35.0376C33.026 30.0942 29.0433 26.0942 24.1214 26.0942ZM24.1214 40.264C21.2659 40.264 18.9364 37.9244 18.9364 35.0565C18.9364 32.1886 21.2659 29.849 24.1214 29.849C26.9769 29.849 29.3063 32.1886 29.3063 35.0565C29.3063 37.9244 26.9769 40.264 24.1214 40.264Z" fill="#FFF5ED"/>
<path d="M46.1763 35.0568C46.1763 37.9247 45.1994 40.2643 41.9494 40.2643C38.8497 40.2643 37.7226 37.9247 37.7226 35.0568V26.2266H33.9653V35.0379C33.9653 39.9813 36.1445 43.9813 41.9306 43.9813C47.698 43.9813 49.896 39.9813 49.896 35.0379V26.2266H46.1387V35.0568H46.1763Z" fill="#FFF5ED"/>
<path d="M116.643 5.58496C111.721 5.58496 107.738 9.58496 107.738 14.5284C107.738 19.4718 111.721 23.4718 116.643 23.4718C121.565 23.4718 125.548 19.4718 125.548 14.5284C125.548 9.58496 121.565 5.58496 116.643 5.58496ZM116.643 19.7548C113.788 19.7548 111.458 17.4151 111.458 14.5472C111.458 11.6793 113.788 9.33968 116.643 9.33968C119.499 9.33968 121.828 11.6793 121.828 14.5472C121.828 17.4151 119.499 19.7548 116.643 19.7548Z" fill="#FFF5ED"/>
<path d="M138.698 14.547C138.698 17.4149 137.721 19.7545 134.471 19.7545C131.371 19.7545 130.244 17.4149 130.244 14.547V5.7168H126.487V14.5281C126.487 19.4715 128.666 23.4715 134.452 23.4715C140.22 23.4715 142.418 19.4715 142.418 14.5281V5.7168H138.66V14.547H138.698Z" fill="#FFF5ED"/>
<path d="M62.1445 34.2077C62.9711 33.4718 63.4596 32.4718 63.4596 31.2832C63.4596 28.4907 61.6937 26.2266 58.4249 26.2266H55.0809H51.5679V29.7549V32.736V36.2643V40.3398V43.8681H55.0809H59.7775C62.9899 43.8681 65.1503 41.7926 65.1503 38.3586C65.1503 36.0756 63.8353 34.8492 62.1445 34.2077ZM55.0809 29.7549H58.4249C59.289 29.7549 59.8526 30.3964 59.8526 31.2832C59.8526 32.0756 59.2139 32.7171 58.4249 32.7171V32.736H55.0997V29.7549H55.0809ZM59.7775 40.3398H55.0809V36.2643H59.7775C61.0174 36.2643 61.7124 37.2266 61.7124 38.302C61.7312 39.453 60.9422 40.3398 59.7775 40.3398Z" fill="#FFF5ED"/>
<path d="M105.916 5.7168L100.919 12.6225L96.1286 5.7168H91.9017L99.1719 15.8489V23.3394H102.685V15.8489L110.124 5.7168H105.916Z" fill="#FFF5ED"/>
<path d="M90.3988 0H86.9234H86.8858V20.0566H0V23.5849H90.3988V23.4906V20.0566V3.5283H143V0H90.3988Z" fill="#FFF5ED"/>
<path d="M98.2327 29.8113C98.2327 30.6604 97.6127 31.3208 96.8613 31.3208C96.4855 31.3208 96.2038 31.1887 96.0159 30.9623V32.3774H95.1517V28.3585H96.0159V28.6226C96.2038 28.3962 96.4855 28.2642 96.8613 28.2642C97.6315 28.283 98.2327 28.9434 98.2327 29.8113ZM97.3873 29.8113C97.3873 29.3774 97.1055 29.1132 96.711 29.1132C96.3165 29.1132 96.0347 29.3774 96.0347 29.8113C96.0347 30.2453 96.3165 30.5094 96.711 30.5094C97.1055 30.5094 97.3873 30.2264 97.3873 29.8113Z" fill="#FFF5ED"/>
<path d="M100.149 30.5474C100.374 30.5474 100.581 30.453 100.694 30.3209L101.37 30.7172C101.088 31.1134 100.675 31.3021 100.13 31.3021C99.1532 31.3021 98.552 30.6417 98.552 29.7926C98.552 28.9436 99.172 28.2832 100.074 28.2832C100.9 28.2832 101.52 28.9247 101.52 29.7926C101.52 29.9058 101.501 30.0191 101.483 30.1323H99.4538C99.5665 30.453 99.8295 30.5474 100.149 30.5474ZM100.675 29.5096C100.581 29.17 100.318 29.0568 100.074 29.0568C99.7544 29.0568 99.5289 29.2266 99.4538 29.5096H100.675Z" fill="#FFF5ED"/>
<path d="M101.84 29.8112C101.84 28.9621 102.478 28.3018 103.361 28.3018C103.906 28.3018 104.413 28.5848 104.658 29.0376L103.906 29.4716C103.812 29.264 103.606 29.1508 103.361 29.1508C102.986 29.1508 102.723 29.415 102.723 29.8112C102.723 30.2074 103.004 30.4716 103.361 30.4716C103.606 30.4716 103.831 30.3584 103.906 30.1508L104.658 30.5848C104.413 31.0376 103.925 31.3206 103.361 31.3206C102.478 31.3206 101.84 30.6602 101.84 29.8112Z" fill="#FFF5ED"/>
<path d="M107.72 28.3773L106.743 31.1508C106.423 32.0565 105.86 32.415 105.108 32.3773V31.5659C105.484 31.5659 105.672 31.4716 105.803 31.1697L104.676 28.3584H105.597L106.254 30.1131L106.799 28.3584H107.72V28.3773Z" fill="#FFF5ED"/>
<path d="M111.082 29.8113C111.082 30.6604 110.462 31.3208 109.711 31.3208C109.335 31.3208 109.053 31.1887 108.866 30.9623V32.3774H108.02V28.3585H108.884V28.6226C109.072 28.3962 109.354 28.2642 109.73 28.2642C110.462 28.283 111.082 28.9434 111.082 29.8113ZM110.237 29.8113C110.237 29.3774 109.955 29.1132 109.561 29.1132C109.166 29.1132 108.884 29.3774 108.884 29.8113C108.884 30.2453 109.166 30.5094 109.561 30.5094C109.936 30.5094 110.237 30.2264 110.237 29.8113Z" fill="#FFF5ED"/>
<path d="M111.402 29.8112C111.402 28.9621 112.04 28.3018 112.923 28.3018C113.468 28.3018 113.975 28.5848 114.22 29.0376L113.468 29.4716C113.374 29.264 113.168 29.1508 112.923 29.1508C112.548 29.1508 112.285 29.415 112.285 29.8112C112.285 30.2074 112.566 30.4716 112.923 30.4716C113.168 30.4716 113.393 30.3584 113.468 30.1508L114.22 30.5848C113.975 31.0376 113.487 31.3206 112.923 31.3206C112.04 31.3206 111.402 30.6602 111.402 29.8112Z" fill="#FFF5ED"/>
<path d="M95.0202 36.0378C95.0202 35.1887 95.659 34.5283 96.5419 34.5283C97.0867 34.5283 97.5939 34.8113 97.8381 35.2642L97.0867 35.6981C96.9928 35.4906 96.7861 35.3774 96.5419 35.3774C96.1662 35.3774 95.9032 35.6415 95.9032 36.0378C95.9032 36.434 96.185 36.6981 96.5419 36.6981C96.7861 36.6981 97.0116 36.5849 97.0867 36.3774L97.8381 36.8113C97.5939 37.2642 97.1055 37.5472 96.5419 37.5472C95.6778 37.5472 95.0202 36.8868 95.0202 36.0378Z" fill="#FFF5ED"/>
<path d="M98.0072 36.0378C98.0072 35.1887 98.6835 34.5283 99.5289 34.5283C100.374 34.5283 101.051 35.1887 101.051 36.0378C101.051 36.8868 100.374 37.5472 99.5289 37.5472C98.6835 37.5472 98.0072 36.8868 98.0072 36.0378ZM100.168 36.0378C100.168 35.6227 99.8858 35.3585 99.5101 35.3585C99.1344 35.3585 98.8526 35.6227 98.8526 36.0378C98.8526 36.4529 99.1344 36.717 99.5101 36.717C99.8858 36.717 100.168 36.434 100.168 36.0378Z" fill="#FFF5ED"/>
<path d="M103.587 36.6793C103.587 37.151 103.173 37.5472 102.403 37.5472C101.84 37.5472 101.426 37.3208 101.201 36.8679L101.896 36.4529C101.971 36.6793 102.159 36.8113 102.422 36.8113C102.629 36.8113 102.76 36.7359 102.76 36.5849C102.76 36.4529 102.685 36.3774 102.497 36.3774H102.103V35.6604H102.403C102.591 35.6604 102.666 35.5849 102.666 35.4717C102.666 35.3396 102.553 35.2642 102.403 35.2642C102.178 35.2642 102.046 35.3585 101.934 35.6038L101.238 35.2076C101.483 34.7359 101.896 34.5283 102.384 34.5283C103.079 34.5283 103.474 34.9434 103.474 35.3962C103.474 35.6604 103.38 35.8868 103.173 36.0189C103.436 36.151 103.587 36.3962 103.587 36.6793Z" fill="#FFF5ED"/>
<path d="M107.062 36.6604V38.2265H106.236V37.4529H104.639V38.2265H103.812V36.6604H104.169C104.319 36.434 104.395 36.1699 104.395 35.6604V34.585H106.686V36.6416H107.062V36.6604ZM105.86 36.6604V35.3585H105.221V35.6604C105.221 36.0755 105.165 36.3963 105.052 36.6604H105.86Z" fill="#FFF5ED"/>
<path d="M110.369 34.604V37.4719H109.523V37.2077C109.335 37.4342 109.053 37.5662 108.678 37.5662C107.926 37.5662 107.306 36.9059 107.306 36.0568C107.306 35.2077 107.926 34.5474 108.678 34.5474C109.053 34.5474 109.335 34.6794 109.523 34.9059V34.6417H110.369V34.604ZM109.523 36.0379C109.523 35.604 109.241 35.3398 108.847 35.3398C108.452 35.3398 108.171 35.604 108.171 36.0379C108.171 36.4719 108.452 36.736 108.847 36.736C109.241 36.736 109.523 36.453 109.523 36.0379Z" fill="#FFF5ED"/>
<path d="M113.506 36.6416C113.506 37.1133 113.168 37.4529 112.529 37.4529H110.988V34.585H112.416C113.055 34.585 113.393 34.9246 113.393 35.3963C113.393 35.6416 113.299 35.8491 113.13 35.9812C113.374 36.1321 113.506 36.3585 113.506 36.6416ZM111.796 35.2831V35.6793H112.341C112.491 35.6793 112.585 35.6227 112.585 35.4906C112.585 35.3397 112.491 35.2831 112.341 35.2831H111.796ZM112.679 36.5472C112.679 36.4152 112.585 36.3397 112.435 36.3397H111.815V36.7548H112.435C112.566 36.7548 112.679 36.6793 112.679 36.5472Z" fill="#FFF5ED"/>
<path d="M116.85 34.604V37.4719H115.986V37.2077C115.798 37.4342 115.516 37.5662 115.14 37.5662C114.389 37.5662 113.769 36.9059 113.769 36.0568C113.769 35.2077 114.389 34.5474 115.14 34.5474C115.516 34.5474 115.798 34.6794 115.986 34.9059V34.6417H116.85V34.604ZM115.986 36.0379C115.986 35.604 115.704 35.3398 115.309 35.3398C114.915 35.3398 114.633 35.604 114.633 36.0379C114.633 36.4719 114.915 36.736 115.309 36.736C115.704 36.736 115.986 36.453 115.986 36.0379Z" fill="#FFF5ED"/>
<path d="M119.762 35.4152H118.916V37.4529H118.052V35.4152H117.188V34.585H119.762V35.4152Z" fill="#FFF5ED"/>
<path d="M122.542 36.4529C122.542 37.0567 122.11 37.4529 121.415 37.4529H120.081V34.585H120.945V35.4529H121.434C122.11 35.4529 122.542 35.868 122.542 36.4529ZM121.715 36.4529C121.715 36.3019 121.603 36.1887 121.434 36.1887H120.945V36.6982H121.434C121.603 36.717 121.715 36.6038 121.715 36.4529Z" fill="#FFF5ED"/>
<path d="M95.0202 42.2643C95.0202 41.4153 95.659 40.7549 96.5419 40.7549C97.0867 40.7549 97.5939 41.0379 97.8381 41.4907L97.0867 41.9247C96.9928 41.7171 96.7861 41.6039 96.5419 41.6039C96.1662 41.6039 95.9032 41.8681 95.9032 42.2643C95.9032 42.6605 96.185 42.9247 96.5419 42.9247C96.7861 42.9247 97.0116 42.8115 97.0867 42.6039L97.8381 43.0379C97.5939 43.4907 97.1055 43.7738 96.5419 43.7738C95.6778 43.7738 95.0202 43.1134 95.0202 42.2643Z" fill="#FFF5ED"/>
<path d="M99.6041 43C99.8295 43 100.036 42.9057 100.149 42.7736L100.825 43.1698C100.543 43.566 100.13 43.7547 99.5853 43.7547C98.6084 43.7547 98.0072 43.0943 98.0072 42.2453C98.0072 41.3962 98.6272 40.7358 99.5289 40.7358C100.355 40.7358 100.975 41.3773 100.975 42.2453C100.975 42.3585 100.957 42.4717 100.938 42.5849H98.909C99.0217 42.9057 99.2847 43 99.6041 43ZM100.13 41.9623C100.036 41.6226 99.7731 41.5094 99.5289 41.5094C99.2095 41.5094 98.9841 41.6792 98.909 41.9623H100.13Z" fill="#FFF5ED"/>
<path d="M101.295 42.2077C101.295 41.2832 101.464 40.7926 102.384 40.3398C103.004 40.0379 103.249 39.9625 103.418 39.5474L104.131 39.9625C104.019 40.453 103.662 40.6606 103.061 40.887C102.553 41.0757 102.403 41.2455 102.328 41.4342C102.535 41.2455 102.816 41.17 103.117 41.17C103.643 41.17 104.301 41.604 104.301 42.4153C104.301 43.1889 103.737 43.7549 102.835 43.7549C101.877 43.7738 101.295 43.0945 101.295 42.2077ZM103.418 42.4342C103.418 42.0945 103.155 41.8492 102.798 41.8492C102.497 41.8492 102.197 42.0568 102.197 42.3964C102.197 42.7549 102.478 42.9813 102.816 42.9813C103.173 43.0002 103.418 42.7549 103.418 42.4342Z" fill="#FFF5ED"/>
<path d="M107.006 43.698H106.179V42.8678H106.01L105.428 43.698H104.451L105.127 42.7546C104.77 42.5848 104.582 42.2074 104.582 41.8489C104.582 41.3395 104.958 40.8301 105.653 40.8301H107.043V43.698H107.006ZM105.39 41.8678C105.39 42.0376 105.503 42.1508 105.691 42.1508H106.179V41.5848H105.691C105.503 41.5848 105.39 41.698 105.39 41.8678Z" fill="#FFF5ED"/>
</svg>
