<svg width="73" height="70" fill="none" xmlns="http://www.w3.org/2000/svg"><path d="M14.326 68.379v-4.126c0-.59-.146-1.327 0-1.916.292-2.358-.292-4.274-1.9-5.895-.439-.442-.877-1.179-1.316-1.768-.585-.884-.73-1.474 0-1.916.585-.442 1.17-.295 1.754.59 1.462 1.915 2.778 3.684 4.24 5.6.292.442 1.023.884 1.462.884 3.07.147 6.14 0 9.21 0 .876 0 1.461-.737 1.607-1.474.146-.884-.292-1.768-1.023-2.063-.439-.148-.877-.295-1.462-.295h-6.286c-.73 0-1.17-.295-1.608-.884-1.608-2.21-3.362-4.569-5.116-6.78-.293-.294-.439-.588-.731-.883-.439-.295-.731-.295-1.316 0-2.485 1.473-4.824 1.473-7.31 0a.925.925 0 00-.876 0c-1.024.59-1.608 1.473-1.608 2.652v6.78c0 .884-.293 1.326-1.024 1.326-.73 0-1.023-.442-1.023-1.327v-6.631c0-1.916.73-3.39 2.339-4.421l.292-.295c-1.17-1.621-1.17-3.537-1.17-5.453v-4.568c0-2.21 1.755-3.98 3.802-4.126 1.9-.148 3.8-.148 5.847 0 2.193.147 3.8 1.915 3.8 4.126v4.42c0 1.917 0 3.685-1.022 5.306 2.046 1.621 3.216 3.832 4.824 5.748.584.589 1.023 1.326 1.462 1.915.292.59.877.737 1.461.737h3.363c0-1.179.146-2.358 0-3.39-.147-2.21.877-3.684 2.631-4.862.585-.443 1.316-.737 1.9-1.032-.73-3.095-.292-6.19-.292-9.284 0-1.769 1.9-3.537 3.655-3.684 2.923-.148 5.847 0 8.624 0 .731 0 1.17.294 1.17 1.031 0 3.537 0 7.074-.146 10.61 0 .443-.146.738-.293 1.327.147.147.439.147.731.295 1.024.59 2.047 1.179 2.924 1.916 1.023.884 1.462 2.063 1.462 3.389v3.832h3.947c.146 0 .438-.295.585-.443 1.462-1.915 2.923-3.979 4.531-5.894.585-.737 1.17-1.327 1.755-2.063-1.608-3.242-.731-6.78-.878-10.316 0-1.769 1.755-3.537 3.655-3.684a42.68 42.68 0 016.14 0c1.9.147 3.654 2.063 3.654 3.831 0 2.358.147 4.569 0 6.927 0 1.178-.584 2.21-.877 3.536 0 0 .147.148.439.295 1.316 1.032 2.047 2.358 2.047 3.979v6.779c0 .884-.439 1.474-1.024 1.474-.73 0-1.023-.442-1.023-1.474v-6.632c0-.736-.439-1.473-.731-2.063-.585-.884-1.17-.884-2.047-.442-2.192 1.179-4.385 1.179-6.578 0-1.023-.59-1.462-.59-2.193.442-1.315 1.769-2.631 3.684-4.093 5.453-2.193 2.947-1.023 2.358-4.678 2.358h-4.531c-1.316 0-2.193.737-2.193 1.916 0 1.031.584 1.768 1.608 1.915H53.358c1.169 0 1.9-.442 2.485-1.326l3.947-5.305c.146-.148.146-.295.292-.442.438-.59 1.023-.59 1.608-.295.439.442.585 1.031.146 1.62-1.023 1.327-2.046 2.654-2.923 3.98a2.86 2.86 0 00-.44 1.474v8.4h12.28v-2.948-2.947c0-.737.439-1.18 1.024-1.18s1.023.443 1.023 1.18v6.779c0 .884-.438 1.326-1.316 1.326H1.9c-.877 0-1.17-.442-1.17-1.326v-6.78c0-.736.44-1.178 1.024-1.178.585 0 1.024.442 1.024 1.179v5.895c3.508.589 7.455.589 11.548.589zm41.37 0v-6.042H16.52v6.042h39.177zm-14.618-8.253c-.585-1.473-.585-2.8.292-4.126.877-1.326 2.193-1.768 3.801-1.916 0-1.179-.146-2.21 0-3.242.146-1.62-.585-2.505-1.9-3.242-.585-.295-1.024-.59-1.608-.884-.293-.148-.731 0-.877.147-2.486 2.505-6.286 2.8-8.918.59-1.023-.885-1.754-.737-2.631-.148-.585.443-1.023.737-1.608 1.327-.292.294-.439.59-.439 1.031v4.569c2.924 0 5.41 2.505 4.094 6.042 3.216-.148 6.432-.148 9.794-.148zm-9.794-21.368V42c0 1.916 1.315 3.684 3.07 4.274 1.9.59 3.946 0 5.116-1.474 1.462-1.916.877-3.979 1.023-6.042h-9.21zm-27.63 2.505c2.047.737 3.948 0 4.532-1.916.147-.589.293-1.178.293-1.768.146-1.326.877-1.621 2.046-.884.731.442 1.462.737 2.486.59v-1.327c0-1.326-.878-2.21-2.193-2.21h-4.97c-1.17 0-2.047.736-2.047 1.915-.293 1.916-.146 3.832-.146 5.6zm64.907 0v-5.6c0-1.031-.877-1.915-2.047-1.915h-5.262c-1.024 0-1.609.589-1.9 1.473-.147.59-.147 1.327-.147 1.916 1.023.147 1.608 0 2.631-.59 1.023-.736 1.754-.294 1.9.885v.59c.44 2.947 2.193 4.273 4.825 3.241zM3.947 43.621c.585 1.621 1.754 2.505 3.216 2.947 1.754.443 3.362-.147 4.678-1.473 1.462-1.621 1.023-3.684 1.023-5.453-.877-.147-1.608-.295-2.485-.442-.73 3.242-2.924 4.863-6.432 4.421zm55.404-4.126v2.21c0 3.095 2.631 5.306 5.701 4.716 1.462-.295 2.924-1.62 3.216-2.947-3.508.442-5.555-1.18-6.286-4.569a21.633 21.633 0 01-2.63.59zm-28.067-2.947h9.21V33.6h-6.725c-1.9.148-2.632 1.032-2.485 2.947z" fill="#fff"/><path d="M36.546 8.547H54.09c2.046 0 3.654.737 4.677 2.506.439.736.731 1.768.731 2.652.147 3.39 0 6.927 0 10.316 0 2.063-1.315 4.126-3.362 4.716-.585.147-.73.442-.73 1.031v3.242c0 .443-.293 1.032-.586 1.032-.292.147-1.023 0-1.315-.295-1.17-1.179-2.485-2.358-3.509-3.537-.73-.884-1.608-1.178-2.777-1.178-1.17.147-2.34 0-3.509 0-.292 0-.584 0-.877-.148-.292-.295-.73-.59-.73-.884 0-.295.292-.737.584-1.032.146-.147.585-.147.877-.147h5.117c.73 0 1.315.147 1.754.737.877.884 1.754 1.768 2.777 2.652v-1.915c0-1.032.293-1.327 1.316-1.474 1.754-.295 2.778-1.326 2.778-3.095V14c0-1.621-1.17-3.39-3.363-3.39H36.254v7.516c.146 3.832-2.924 6.927-6.432 6.78h-.585c.439 1.178 1.316 1.915 2.485 1.915H38.154c.585.147 1.024.442 1.024 1.179 0 .59-.439 1.032-1.024 1.032-2.339 0-4.824.147-7.163-.148-1.9-.147-3.216-1.474-3.8-3.39-.147-.441-.44-.589-.878-.589H12.864c-.292 0-.73.148-1.023.442-1.316 1.327-2.777 2.653-4.093 4.127-.439.442-.877.736-1.462.442-.585-.295-.585-.737-.585-1.327v-3.094c0-.442-.146-.59-.584-.737-3.07-.884-4.825-3.242-4.825-6.484V6.779C.292 2.947 2.924.147 6.871 0h22.95c3.802 0 6.433 2.8 6.58 6.779.145.59.145 1.179.145 1.768zM8.04 26.231s.146 0 .146.148c.878-.884 1.755-1.769 2.632-2.8.438-.59 1.023-.737 1.754-.737h17.396c2.485 0 4.24-1.916 4.24-4.421V6.926c0-2.8-1.755-4.568-4.386-4.715H7.017c-2.924 0-4.532 2.505-4.532 4.715.146 3.684 0 7.369 0 11.053 0 2.947 1.316 4.421 4.24 4.863.73.147 1.17.442 1.17 1.179.145.737.145 1.474.145 2.21z" fill="#fff"/><path d="M18.566 5.895H28.653c.292.147.73.589.73.884 0 .294-.292.737-.584 1.031-.293.148-.731.148-1.023.148H8.918c-.731 0-1.316-.442-1.316-1.032 0-.59.439-1.031 1.316-1.031h9.648zM18.566 13.705H9.21c-.877 0-1.462-.295-1.462-1.032 0-.589.585-1.031 1.462-1.031h18.858c.877 0 1.462.442 1.462 1.031 0 .59-.439 1.032-1.316 1.032h-9.648zM13.742 17.095h4.531c.878 0 1.316.442 1.316 1.031 0 .59-.438 1.032-1.316 1.032h-9.21c-.876 0-1.315-.443-1.315-1.032 0-.59.439-1.032 1.316-1.032h4.678z" fill="#fff"/></svg>