<svg width="5" height="11" viewBox="0 0 5 11" fill="none" xmlns="http://www.w3.org/2000/svg">
<path d="M0.447923 11C0.264925 10.985 0.121014 10.8753 0.0392866 10.6604C-0.0406639 10.4475 0.00375302 10.2111 0.151217 10.0305C0.392846 9.736 0.63625 9.44365 0.877879 9.15129C1.86749 7.95393 2.85887 6.75442 3.84848 5.55706C3.89645 5.49902 3.89468 5.49902 3.84671 5.44098C2.6208 3.95771 1.39312 2.47444 0.167207 0.989026C0.0961403 0.90304 0.0375099 0.808455 0.0144131 0.688074C-0.0424406 0.387121 0.0961403 0.103366 0.343099 0.0216785C0.522543 -0.0385121 0.671784 0.0302771 0.797928 0.182903C1.07509 0.516101 1.35047 0.849298 1.62586 1.1825C2.6972 2.47874 3.76676 3.77499 4.83809 5.06908C4.95002 5.20451 5.01221 5.35929 4.99799 5.55276C4.98733 5.69893 4.9287 5.81932 4.84342 5.9225C3.89112 7.07902 2.93527 8.23339 1.97942 9.3899C1.59033 9.86068 1.20123 10.3293 0.813918 10.8001C0.737521 10.8947 0.646911 10.9592 0.542087 10.9914C0.517213 11 0.487009 10.9979 0.447923 11Z" fill="black"/>
</svg>
