<svg width="74" height="106" viewBox="0 0 74 106" fill="none" xmlns="http://www.w3.org/2000/svg">
<path d="M52.7015 29.206C52.399 29.206 52.0964 29.0851 51.9149 28.8432L44.049 19.4102C43.686 18.987 43.7465 18.3218 44.17 17.959C44.5936 17.5962 45.2592 17.6567 45.6222 18.08L52.762 26.6059L71.6402 4.71658C72.0032 4.29331 72.6688 4.23284 73.0924 4.59565C73.5159 4.95845 73.5764 5.6236 73.2134 6.04687L53.4881 28.8432C53.3066 29.0851 53.004 29.206 52.7015 29.206Z" fill="black"/>
<path d="M73.4554 4.17247C72.7898 3.56779 71.7612 3.68872 71.1561 4.35387L68.6754 7.19585L68.2518 7.6796L67.8283 8.16334L67.2837 8.76802L66.8601 9.25176L66.5576 9.67503L60.5069 16.6893L58.3892 19.1685L52.9435 25.5176L52.762 25.699L50.2207 22.6756L46.0458 17.7172C45.8037 17.4149 45.3802 17.173 44.9566 17.173C44.5331 17.1126 44.1095 17.2335 43.807 17.5358C43.1414 18.1405 43.0204 19.108 43.6255 19.8336L46.0458 22.7361L48.345 25.4571L50.2207 27.6944L51.4914 29.2666C51.7939 29.6294 52.2175 29.8713 52.7015 29.8713C52.762 29.8713 52.8225 29.8713 52.883 29.8713C53.3066 29.8108 53.6696 29.6294 53.9117 29.3271L68.3728 12.517L68.7964 12.0333L69.2199 11.5495L69.7645 10.8844L70.188 10.4006L70.6116 9.9169L73.5764 6.53071C74.1815 5.74463 74.121 4.71668 73.4554 4.17247ZM52.7015 28.6014C52.5805 28.6014 52.4595 28.541 52.399 28.4805L50.1602 25.8199L49.8577 25.4571L47.5584 22.7361L44.4726 19.0475C44.3516 18.8661 44.3516 18.6243 44.5331 18.5033C44.5936 18.4429 44.7146 18.3824 44.7751 18.3824H44.8356C44.9566 18.3824 45.0171 18.4429 45.0776 18.5033L48.587 22.6756L52.7015 27.513L52.883 27.2712L59.1153 20.015L60.87 18.0196L67.2837 10.582L67.7072 10.0983L68.1308 9.61456L68.6754 9.00989L69.0989 8.52615L69.5225 8.0424L72.1242 5.01902C72.2453 4.83761 72.5478 4.83761 72.6688 4.95855C72.8503 5.07948 72.8503 5.38182 72.7293 5.50276L70.0065 8.64708L69.583 9.13082L69.1594 9.61456L68.6148 10.2797L68.1913 10.7635L67.7677 11.2472L60.87 19.2289L59.6598 20.6197L53.0041 28.4805C52.9435 28.541 52.9435 28.541 52.883 28.6014C52.8225 28.6014 52.762 28.6014 52.7015 28.6014Z" fill="black"/>
<path d="M70.2486 10.3398C70.1275 10.1584 70.0065 9.977 69.8855 9.79559C69.7645 9.61419 69.6435 9.43279 69.5225 9.25138C69.4015 9.00951 69.2199 8.76764 69.0384 8.58624C68.9174 8.40483 68.7964 8.2839 68.6754 8.1025C68.5544 7.92109 68.4334 7.80016 68.3123 7.61875C64.5609 3.32554 59.1153 0.604492 52.9436 0.604492C44.2306 0.604492 36.7277 6.16753 33.9444 13.9679C33.6419 14.8749 33.3393 15.7819 33.1578 16.6889C32.8553 18.0192 32.7343 19.41 32.7343 20.8007C32.7343 21.4659 32.7948 22.0705 32.8553 22.7357C32.8553 22.9776 32.9158 23.2194 32.9158 23.4008C33.0368 24.066 33.1578 24.7916 33.2788 25.4567C33.3393 25.6986 33.3998 25.9405 33.4603 26.1219C33.5208 26.4847 33.6419 26.8475 33.7629 27.2103C34.3679 29.0848 35.2755 30.8384 36.3647 32.4105C36.8487 33.1362 37.3933 33.8013 37.9984 34.406C38.0589 34.4664 38.1194 34.5269 38.1194 34.5874C39.632 36.22 41.4473 37.6108 43.5045 38.6992C44.3516 39.1829 45.2592 39.5457 46.2273 39.8481C47.4374 40.2713 48.7686 40.5737 50.0998 40.8156C51.0074 40.9365 51.915 40.997 52.8226 40.997H52.8831C54.6983 40.997 56.453 40.7551 58.0867 40.3318C58.9943 40.0899 59.9019 39.7876 60.8095 39.3643C68.0098 36.2805 73.0924 29.1453 73.0924 20.8007C73.1529 16.9308 72.1243 13.3632 70.2486 10.3398ZM60.87 37.127C60.0229 37.5503 59.1153 37.9131 58.1472 38.2154C56.5135 38.6992 54.7588 38.9411 52.9436 38.9411H52.8831C51.9755 38.9411 51.0679 38.8806 50.1603 38.6992C48.8291 38.5178 47.498 38.155 46.2878 37.6712C45.3197 37.3084 44.4121 36.8247 43.565 36.3409C39.7531 34.0432 36.9092 30.4151 35.5781 26.1219C35.5176 25.88 35.4571 25.6986 35.3966 25.4567C35.215 24.7916 35.094 24.1265 34.973 23.4008C34.9125 23.159 34.9125 22.9171 34.9125 22.7357C34.852 22.0705 34.7915 21.4659 34.7915 20.8007C34.7915 19.41 34.973 18.0192 35.2755 16.6889C35.5176 15.7819 35.7596 14.8144 36.1226 13.9679C38.8455 7.31641 45.3802 2.59993 52.9436 2.59993C58.5707 2.59993 63.5928 5.13958 66.9207 9.19092C67.0417 9.37232 67.1627 9.49325 67.2837 9.67466C67.4047 9.85606 67.5258 9.977 67.6468 10.1584C67.8283 10.4003 67.9493 10.6421 68.1308 10.8235C68.2518 11.0049 68.3728 11.1864 68.4939 11.3678C68.6149 11.5492 68.7359 11.7306 68.7964 11.912C70.2486 14.5121 71.0957 17.5355 71.0957 20.7403C71.1562 27.9359 66.9812 34.1641 60.87 37.127Z" fill="black"/>
<path d="M69.2805 11.4284C69.1594 11.247 69.0989 11.0656 68.9779 10.8842C68.8569 10.7028 68.7359 10.5214 68.6149 10.34C68.4939 10.0981 68.3123 9.85625 68.1308 9.67484C68.0098 9.49344 67.8888 9.3725 67.7678 9.1911C67.6468 9.0097 67.5258 8.88876 67.4047 8.70736C63.8953 4.59555 58.7522 1.99544 52.9436 1.99544C45.0172 1.99544 38.1799 6.95379 35.4571 13.9076C35.094 14.7541 34.852 15.7216 34.61 16.6286C34.3074 17.9589 34.1259 19.3497 34.1259 20.7404C34.1259 21.4056 34.1864 22.0103 34.2469 22.6754C34.2469 22.9173 34.3074 23.1592 34.3074 23.3406C34.4285 24.0057 34.5495 24.7313 34.731 25.3965C34.7915 25.6383 34.852 25.8802 34.9125 26.0616C35.1545 26.9686 35.5176 27.8756 35.9411 28.7222C36.4252 29.8106 37.0303 30.7781 37.7563 31.7456C39.269 33.8619 41.2657 35.676 43.565 36.9458C44.4121 37.4295 45.3197 37.8528 46.2878 38.2156C47.498 38.6994 48.8291 39.0017 50.1603 39.2436C51.0679 39.3645 51.9755 39.425 52.8831 39.4855H52.9436C54.7588 39.4855 56.5135 39.2436 58.1472 38.7598C59.0548 38.518 60.0229 38.1552 60.87 37.7319C67.2837 34.769 71.7007 28.2384 71.7007 20.7404C71.7612 17.4147 70.8536 14.2099 69.2805 11.4284ZM60.87 36.4621C60.0229 36.8853 59.1153 37.3086 58.1472 37.5505C56.5135 38.0947 54.7588 38.3366 52.9436 38.3366H52.8831C51.9755 38.3366 51.0679 38.2761 50.1603 38.0947C48.8291 37.9133 47.498 37.49 46.2878 37.0063C45.3197 36.6435 44.4121 36.1597 43.565 35.6155C40.1161 33.4387 37.4538 30.0525 36.2437 26.1221C36.1832 25.8802 36.1226 25.6988 36.0621 25.4569C35.8806 24.7918 35.6991 24.1266 35.6386 23.401C35.5781 23.1592 35.5781 22.9173 35.5781 22.7359C35.5176 22.0707 35.4571 21.4661 35.4571 20.8009C35.4571 19.4102 35.6386 18.0194 35.9411 16.6891C36.1832 15.7216 36.4857 14.8146 36.8487 13.9681C39.4505 7.61894 45.6827 3.20479 52.9436 3.20479C58.3892 3.20479 63.2903 5.74444 66.4971 9.61438C66.6181 9.79578 66.7392 9.91671 66.8602 10.0981C66.9812 10.2795 67.1022 10.4005 67.2232 10.5819C67.4047 10.8237 67.5258 11.0656 67.7073 11.3075C67.8283 11.4889 67.9493 11.6703 68.0098 11.8517C68.1308 12.0331 68.2518 12.2145 68.3123 12.3959C69.6435 14.8751 70.4301 17.7171 70.4301 20.7404C70.5511 27.6338 66.6181 33.5596 60.87 36.4621ZM69.2805 11.4284C69.1594 11.247 69.0989 11.0656 68.9779 10.8842C68.8569 10.7028 68.7359 10.5214 68.6149 10.34C68.4939 10.0981 68.3123 9.85625 68.1308 9.67484C68.0098 9.49344 67.8888 9.3725 67.7678 9.1911C67.6468 9.0097 67.5258 8.88876 67.4047 8.70736C63.8953 4.59555 58.7522 1.99544 52.9436 1.99544C45.0172 1.99544 38.1799 6.95379 35.4571 13.9076C35.094 14.7541 34.852 15.7216 34.61 16.6286C34.3074 17.9589 34.1259 19.3497 34.1259 20.7404C34.1259 21.4056 34.1864 22.0103 34.2469 22.6754C34.2469 22.9173 34.3074 23.1592 34.3074 23.3406C34.4285 24.0057 34.5495 24.7313 34.731 25.3965C34.7915 25.6383 34.852 25.8802 34.9125 26.0616C35.1545 26.9686 35.5176 27.8756 35.9411 28.7222C36.4252 29.8106 37.0303 30.7781 37.7563 31.7456C39.269 33.8619 41.2657 35.676 43.565 36.9458C44.4121 37.4295 45.3197 37.8528 46.2878 38.2156C47.498 38.6994 48.8291 39.0017 50.1603 39.2436C51.0679 39.3645 51.9755 39.425 52.8831 39.4855H52.9436C54.7588 39.4855 56.5135 39.2436 58.1472 38.7598C59.0548 38.518 60.0229 38.1552 60.87 37.7319C67.2837 34.769 71.7007 28.2384 71.7007 20.7404C71.7612 17.4147 70.8536 14.2099 69.2805 11.4284ZM60.87 36.4621C60.0229 36.8853 59.1153 37.3086 58.1472 37.5505C56.5135 38.0947 54.7588 38.3366 52.9436 38.3366H52.8831C51.9755 38.3366 51.0679 38.2761 50.1603 38.0947C48.8291 37.9133 47.498 37.49 46.2878 37.0063C45.3197 36.6435 44.4121 36.1597 43.565 35.6155C40.1161 33.4387 37.4538 30.0525 36.2437 26.1221C36.1832 25.8802 36.1226 25.6988 36.0621 25.4569C35.8806 24.7918 35.6991 24.1266 35.6386 23.401C35.5781 23.1592 35.5781 22.9173 35.5781 22.7359C35.5176 22.0707 35.4571 21.4661 35.4571 20.8009C35.4571 19.4102 35.6386 18.0194 35.9411 16.6891C36.1832 15.7216 36.4857 14.8146 36.8487 13.9681C39.4505 7.61894 45.6827 3.20479 52.9436 3.20479C58.3892 3.20479 63.2903 5.74444 66.4971 9.61438C66.6181 9.79578 66.7392 9.91671 66.8602 10.0981C66.9812 10.2795 67.1022 10.4005 67.2232 10.5819C67.4047 10.8237 67.5258 11.0656 67.7073 11.3075C67.8283 11.4889 67.9493 11.6703 68.0098 11.8517C68.1308 12.0331 68.2518 12.2145 68.3123 12.3959C69.6435 14.8751 70.4301 17.7171 70.4301 20.7404C70.5511 27.6338 66.6181 33.5596 60.87 36.4621ZM69.2805 11.4284C69.1594 11.247 69.0989 11.0656 68.9779 10.8842C68.8569 10.7028 68.7359 10.5214 68.6149 10.34C68.4939 10.0981 68.3123 9.85625 68.1308 9.67484C68.0098 9.49344 67.8888 9.3725 67.7678 9.1911C67.6468 9.0097 67.5258 8.88876 67.4047 8.70736C63.8953 4.59555 58.7522 1.99544 52.9436 1.99544C45.0172 1.99544 38.1799 6.95379 35.4571 13.9076C35.094 14.7541 34.852 15.7216 34.61 16.6286C34.3074 17.9589 34.1259 19.3497 34.1259 20.7404C34.1259 21.4056 34.1864 22.0103 34.2469 22.6754C34.2469 22.9173 34.3074 23.1592 34.3074 23.3406C34.4285 24.0057 34.5495 24.7313 34.731 25.3965C34.7915 25.6383 34.852 25.8802 34.9125 26.0616C35.1545 26.9686 35.5176 27.8756 35.9411 28.7222C36.4252 29.8106 37.0303 30.7781 37.7563 31.7456C39.269 33.8619 41.2657 35.676 43.565 36.9458C44.4121 37.4295 45.3197 37.8528 46.2878 38.2156C47.498 38.6994 48.8291 39.0017 50.1603 39.2436C51.0679 39.3645 51.9755 39.425 52.8831 39.4855H52.9436C54.7588 39.4855 56.5135 39.2436 58.1472 38.7598C59.0548 38.518 60.0229 38.1552 60.87 37.7319C67.2837 34.769 71.7007 28.2384 71.7007 20.7404C71.7612 17.4147 70.8536 14.2099 69.2805 11.4284ZM60.87 36.4621C60.0229 36.8853 59.1153 37.3086 58.1472 37.5505C56.5135 38.0947 54.7588 38.3366 52.9436 38.3366H52.8831C51.9755 38.3366 51.0679 38.2761 50.1603 38.0947C48.8291 37.9133 47.498 37.49 46.2878 37.0063C45.3197 36.6435 44.4121 36.1597 43.565 35.6155C40.1161 33.4387 37.4538 30.0525 36.2437 26.1221C36.1832 25.8802 36.1226 25.6988 36.0621 25.4569C35.8806 24.7918 35.6991 24.1266 35.6386 23.401C35.5781 23.1592 35.5781 22.9173 35.5781 22.7359C35.5176 22.0707 35.4571 21.4661 35.4571 20.8009C35.4571 19.4102 35.6386 18.0194 35.9411 16.6891C36.1832 15.7216 36.4857 14.8146 36.8487 13.9681C39.4505 7.61894 45.6827 3.20479 52.9436 3.20479C58.3892 3.20479 63.2903 5.74444 66.4971 9.61438C66.6181 9.79578 66.7392 9.91671 66.8602 10.0981C66.9812 10.2795 67.1022 10.4005 67.2232 10.5819C67.4047 10.8237 67.5258 11.0656 67.7073 11.3075C67.8283 11.4889 67.9493 11.6703 68.0098 11.8517C68.1308 12.0331 68.2518 12.2145 68.3123 12.3959C69.6435 14.8751 70.4301 17.7171 70.4301 20.7404C70.5511 27.6338 66.6181 33.5596 60.87 36.4621ZM69.2805 11.4284C69.1594 11.247 69.0989 11.0656 68.9779 10.8842C68.8569 10.7028 68.7359 10.5214 68.6149 10.34C68.4939 10.0981 68.3123 9.85625 68.1308 9.67484C68.0098 9.49344 67.8888 9.3725 67.7678 9.1911C67.6468 9.0097 67.5258 8.88876 67.4047 8.70736C63.8953 4.59555 58.7522 1.99544 52.9436 1.99544C45.0172 1.99544 38.1799 6.95379 35.4571 13.9076C35.094 14.7541 34.852 15.7216 34.61 16.6286C34.3074 17.9589 34.1259 19.3497 34.1259 20.7404C34.1259 21.4056 34.1864 22.0103 34.2469 22.6754C34.2469 22.9173 34.3074 23.1592 34.3074 23.3406C34.4285 24.0057 34.5495 24.7313 34.731 25.3965C34.7915 25.6383 34.852 25.8802 34.9125 26.0616C35.1545 26.9686 35.5176 27.8756 35.9411 28.7222C36.4252 29.8106 37.0303 30.7781 37.7563 31.7456C39.269 33.8619 41.2657 35.676 43.565 36.9458C44.4121 37.4295 45.3197 37.8528 46.2878 38.2156C47.498 38.6994 48.8291 39.0017 50.1603 39.2436C51.0679 39.3645 51.9755 39.425 52.8831 39.4855H52.9436C54.7588 39.4855 56.5135 39.2436 58.1472 38.7598C59.0548 38.518 60.0229 38.1552 60.87 37.7319C67.2837 34.769 71.7007 28.2384 71.7007 20.7404C71.7612 17.4147 70.8536 14.2099 69.2805 11.4284ZM60.87 36.4621C60.0229 36.8853 59.1153 37.3086 58.1472 37.5505C56.5135 38.0947 54.7588 38.3366 52.9436 38.3366H52.8831C51.9755 38.3366 51.0679 38.2761 50.1603 38.0947C48.8291 37.9133 47.498 37.49 46.2878 37.0063C45.3197 36.6435 44.4121 36.1597 43.565 35.6155C40.1161 33.4387 37.4538 30.0525 36.2437 26.1221C36.1832 25.8802 36.1226 25.6988 36.0621 25.4569C35.8806 24.7918 35.6991 24.1266 35.6386 23.401C35.5781 23.1592 35.5781 22.9173 35.5781 22.7359C35.5176 22.0707 35.4571 21.4661 35.4571 20.8009C35.4571 19.4102 35.6386 18.0194 35.9411 16.6891C36.1832 15.7216 36.4857 14.8146 36.8487 13.9681C39.4505 7.61894 45.6827 3.20479 52.9436 3.20479C58.3892 3.20479 63.2903 5.74444 66.4971 9.61438C66.6181 9.79578 66.7392 9.91671 66.8602 10.0981C66.9812 10.2795 67.1022 10.4005 67.2232 10.5819C67.4047 10.8237 67.5258 11.0656 67.7073 11.3075C67.8283 11.4889 67.9493 11.6703 68.0098 11.8517C68.1308 12.0331 68.2518 12.2145 68.3123 12.3959C69.6435 14.8751 70.4301 17.7171 70.4301 20.7404C70.5511 27.6338 66.6181 33.5596 60.87 36.4621ZM69.2805 11.4284C69.1594 11.247 69.0989 11.0656 68.9779 10.8842C68.8569 10.7028 68.7359 10.5214 68.6149 10.34C68.4939 10.0981 68.3123 9.85625 68.1308 9.67484C68.0098 9.49344 67.8888 9.3725 67.7678 9.1911C67.6468 9.0097 67.5258 8.88876 67.4047 8.70736C63.8953 4.59555 58.7522 1.99544 52.9436 1.99544C45.0172 1.99544 38.1799 6.95379 35.4571 13.9076C35.094 14.7541 34.852 15.7216 34.61 16.6286C34.3074 17.9589 34.1259 19.3497 34.1259 20.7404C34.1259 21.4056 34.1864 22.0103 34.2469 22.6754C34.2469 22.9173 34.3074 23.1592 34.3074 23.3406C34.4285 24.0057 34.5495 24.7313 34.731 25.3965C34.7915 25.6383 34.852 25.8802 34.9125 26.0616C35.1545 26.9686 35.5176 27.8756 35.9411 28.7222C36.4252 29.8106 37.0303 30.7781 37.7563 31.7456C39.269 33.8619 41.2657 35.676 43.565 36.9458C44.4121 37.4295 45.3197 37.8528 46.2878 38.2156C47.498 38.6994 48.8291 39.0017 50.1603 39.2436C51.0679 39.3645 51.9755 39.425 52.8831 39.4855H52.9436C54.7588 39.4855 56.5135 39.2436 58.1472 38.7598C59.0548 38.518 60.0229 38.1552 60.87 37.7319C67.2837 34.769 71.7007 28.2384 71.7007 20.7404C71.7612 17.4147 70.8536 14.2099 69.2805 11.4284ZM60.87 36.4621C60.0229 36.8853 59.1153 37.3086 58.1472 37.5505C56.5135 38.0947 54.7588 38.3366 52.9436 38.3366H52.8831C51.9755 38.3366 51.0679 38.2761 50.1603 38.0947C48.8291 37.9133 47.498 37.49 46.2878 37.0063C45.3197 36.6435 44.4121 36.1597 43.565 35.6155C40.1161 33.4387 37.4538 30.0525 36.2437 26.1221C36.1832 25.8802 36.1226 25.6988 36.0621 25.4569C35.8806 24.7918 35.6991 24.1266 35.6386 23.401C35.5781 23.1592 35.5781 22.9173 35.5781 22.7359C35.5176 22.0707 35.4571 21.4661 35.4571 20.8009C35.4571 19.4102 35.6386 18.0194 35.9411 16.6891C36.1832 15.7216 36.4857 14.8146 36.8487 13.9681C39.4505 7.61894 45.6827 3.20479 52.9436 3.20479C58.3892 3.20479 63.2903 5.74444 66.4971 9.61438C66.6181 9.79578 66.7392 9.91671 66.8602 10.0981C66.9812 10.2795 67.1022 10.4005 67.2232 10.5819C67.4047 10.8237 67.5258 11.0656 67.7073 11.3075C67.8283 11.4889 67.9493 11.6703 68.0098 11.8517C68.1308 12.0331 68.2518 12.2145 68.3123 12.3959C69.6435 14.8751 70.4301 17.7171 70.4301 20.7404C70.5511 27.6338 66.6181 33.5596 60.87 36.4621ZM69.2805 11.4284C69.1594 11.247 69.0989 11.0656 68.9779 10.8842C68.8569 10.7028 68.7359 10.5214 68.6149 10.34C68.4939 10.0981 68.3123 9.85625 68.1308 9.67484C68.0098 9.49344 67.8888 9.3725 67.7678 9.1911C67.6468 9.0097 67.5258 8.88876 67.4047 8.70736C63.8953 4.59555 58.7522 1.99544 52.9436 1.99544C45.0172 1.99544 38.1799 6.95379 35.4571 13.9076C35.094 14.7541 34.852 15.7216 34.61 16.6286C34.3074 17.9589 34.1259 19.3497 34.1259 20.7404C34.1259 21.4056 34.1864 22.0103 34.2469 22.6754C34.2469 22.9173 34.3074 23.1592 34.3074 23.3406C34.4285 24.0057 34.5495 24.7313 34.731 25.3965C34.7915 25.6383 34.852 25.8802 34.9125 26.0616C35.1545 26.9686 35.5176 27.8756 35.9411 28.7222C36.4252 29.8106 37.0303 30.7781 37.7563 31.7456C39.269 33.8619 41.2657 35.676 43.565 36.9458C44.4121 37.4295 45.3197 37.8528 46.2878 38.2156C47.498 38.6994 48.8291 39.0017 50.1603 39.2436C51.0679 39.3645 51.9755 39.425 52.8831 39.4855H52.9436C54.7588 39.4855 56.5135 39.2436 58.1472 38.7598C59.0548 38.518 60.0229 38.1552 60.87 37.7319C67.2837 34.769 71.7007 28.2384 71.7007 20.7404C71.7612 17.4147 70.8536 14.2099 69.2805 11.4284ZM60.87 36.4621C60.0229 36.8853 59.1153 37.3086 58.1472 37.5505C56.5135 38.0947 54.7588 38.3366 52.9436 38.3366H52.8831C51.9755 38.3366 51.0679 38.2761 50.1603 38.0947C48.8291 37.9133 47.498 37.49 46.2878 37.0063C45.3197 36.6435 44.4121 36.1597 43.565 35.6155C40.1161 33.4387 37.4538 30.0525 36.2437 26.1221C36.1832 25.8802 36.1226 25.6988 36.0621 25.4569C35.8806 24.7918 35.6991 24.1266 35.6386 23.401C35.5781 23.1592 35.5781 22.9173 35.5781 22.7359C35.5176 22.0707 35.4571 21.4661 35.4571 20.8009C35.4571 19.4102 35.6386 18.0194 35.9411 16.6891C36.1832 15.7216 36.4857 14.8146 36.8487 13.9681C39.4505 7.61894 45.6827 3.20479 52.9436 3.20479C58.3892 3.20479 63.2903 5.74444 66.4971 9.61438C66.6181 9.79578 66.7392 9.91671 66.8602 10.0981C66.9812 10.2795 67.1022 10.4005 67.2232 10.5819C67.4047 10.8237 67.5258 11.0656 67.7073 11.3075C67.8283 11.4889 67.9493 11.6703 68.0098 11.8517C68.1308 12.0331 68.2518 12.2145 68.3123 12.3959C69.6435 14.8751 70.4301 17.7171 70.4301 20.7404C70.5511 27.6338 66.6181 33.5596 60.87 36.4621ZM70.6721 9.85625C70.5511 9.67484 70.4301 9.49344 70.3091 9.31204C70.1881 9.13063 70.067 8.94923 69.946 8.76783C69.7645 8.52596 69.6435 8.28408 69.462 8.10268C69.341 7.92128 69.2199 7.80034 69.0989 7.61894C68.9779 7.43754 68.8569 7.3166 68.7359 7.1352C64.8634 2.78152 59.2363 0 52.9436 0C43.8675 0 36.1226 5.80491 33.3393 13.9681C33.0368 14.8751 32.7948 15.7821 32.6132 16.6891C32.3712 18.0194 32.1897 19.4102 32.1897 20.8009C32.1897 21.4661 32.2502 22.0707 32.3107 22.7359C32.3107 22.9778 32.3712 23.2196 32.3712 23.401C32.4317 24.0662 32.5527 24.7918 32.7343 25.4569C32.7948 25.6988 32.8553 25.9407 32.9158 26.1221C32.9763 26.3639 33.0368 26.6663 33.1578 26.9082C33.7629 28.7827 34.61 30.5967 35.6991 32.2293C36.4252 33.3177 37.2118 34.2852 38.1194 35.2527C38.2404 35.3736 38.3009 35.4946 38.4219 35.555C39.9951 37.0667 41.7498 38.397 43.686 39.3645C44.5331 39.7878 45.4407 40.2111 46.4088 40.5134C47.619 40.9367 48.9501 41.239 50.2813 41.4204C51.1889 41.5414 52.0965 41.6018 53.0041 41.6018H53.0646C54.8798 41.6018 56.6345 41.36 58.2682 40.9367C59.1758 40.6948 60.0834 40.3925 60.991 40.0297C68.5544 36.8853 73.879 29.4478 73.879 20.8009C73.758 16.7496 72.6083 13.0006 70.6721 9.85625ZM60.87 38.6994C59.9624 39.0622 59.0548 39.425 58.1472 39.6669C56.5135 40.1506 54.7588 40.3925 52.9436 40.3925H52.8831C51.9755 40.3925 51.0679 40.332 50.1603 40.2111C48.8291 40.0297 47.5585 39.6669 46.2878 39.2436C45.3197 38.8808 44.4121 38.518 43.565 38.0342C41.4473 36.8853 39.5715 35.3736 38.0589 33.5596C36.6067 31.8665 35.3966 29.8711 34.61 27.7547C34.4285 27.271 34.2469 26.7268 34.1259 26.1825C34.0654 25.9407 34.0049 25.7593 33.9444 25.5174C33.7629 24.8523 33.6419 24.1871 33.5814 23.4615C33.5814 23.2196 33.5209 22.9778 33.5209 22.7963C33.4603 22.1312 33.3998 21.5265 33.3998 20.8614C33.3998 19.4706 33.5209 18.0799 33.8234 16.7496C34.0049 15.8426 34.3074 14.8751 34.61 14.0285C37.3933 6.53052 44.5936 1.20936 52.9436 1.20936C58.9338 1.20936 64.2584 3.86994 67.8888 8.10268C68.0098 8.22362 68.1308 8.40502 68.2518 8.58642C68.3729 8.76783 68.4939 8.88876 68.6149 9.07017C68.7964 9.31204 68.9174 9.49344 69.0989 9.73531C69.2199 9.91671 69.341 10.0981 69.462 10.2795C69.583 10.4609 69.704 10.6423 69.825 10.8237C71.5797 13.7262 72.5478 17.1728 72.5478 20.8009C72.5478 28.7827 67.7678 35.6155 60.87 38.6994ZM69.2805 11.4284C69.1594 11.247 69.0989 11.0656 68.9779 10.8842C68.8569 10.7028 68.7359 10.5214 68.6149 10.34C68.4939 10.0981 68.3123 9.85625 68.1308 9.67484C68.0098 9.49344 67.8888 9.3725 67.7678 9.1911C67.6468 9.0097 67.5258 8.88876 67.4047 8.70736C63.8953 4.59555 58.7522 1.99544 52.9436 1.99544C45.0172 1.99544 38.1799 6.95379 35.4571 13.9076C35.094 14.7541 34.852 15.7216 34.61 16.6286C34.3074 17.9589 34.1259 19.3497 34.1259 20.7404C34.1259 21.4056 34.1864 22.0103 34.2469 22.6754C34.2469 22.9173 34.3074 23.1592 34.3074 23.3406C34.4285 24.0057 34.5495 24.7313 34.731 25.3965C34.7915 25.6383 34.852 25.8802 34.9125 26.0616C35.1545 26.9686 35.5176 27.8756 35.9411 28.7222C36.4252 29.8106 37.0303 30.7781 37.7563 31.7456C39.269 33.8619 41.2657 35.676 43.565 36.9458C44.4121 37.4295 45.3197 37.8528 46.2878 38.2156C47.498 38.6994 48.8291 39.0017 50.1603 39.2436C51.0679 39.3645 51.9755 39.425 52.8831 39.4855H52.9436C54.7588 39.4855 56.5135 39.2436 58.1472 38.7598C59.0548 38.518 60.0229 38.1552 60.87 37.7319C67.2837 34.769 71.7007 28.2384 71.7007 20.7404C71.7612 17.4147 70.8536 14.2099 69.2805 11.4284ZM60.87 36.4621C60.0229 36.8853 59.1153 37.3086 58.1472 37.5505C56.5135 38.0947 54.7588 38.3366 52.9436 38.3366H52.8831C51.9755 38.3366 51.0679 38.2761 50.1603 38.0947C48.8291 37.9133 47.498 37.49 46.2878 37.0063C45.3197 36.6435 44.4121 36.1597 43.565 35.6155C40.1161 33.4387 37.4538 30.0525 36.2437 26.1221C36.1832 25.8802 36.1226 25.6988 36.0621 25.4569C35.8806 24.7918 35.6991 24.1266 35.6386 23.401C35.5781 23.1592 35.5781 22.9173 35.5781 22.7359C35.5176 22.0707 35.4571 21.4661 35.4571 20.8009C35.4571 19.4102 35.6386 18.0194 35.9411 16.6891C36.1832 15.7216 36.4857 14.8146 36.8487 13.9681C39.4505 7.61894 45.6827 3.20479 52.9436 3.20479C58.3892 3.20479 63.2903 5.74444 66.4971 9.61438C66.6181 9.79578 66.7392 9.91671 66.8602 10.0981C66.9812 10.2795 67.1022 10.4005 67.2232 10.5819C67.4047 10.8237 67.5258 11.0656 67.7073 11.3075C67.8283 11.4889 67.9493 11.6703 68.0098 11.8517C68.1308 12.0331 68.2518 12.2145 68.3123 12.3959C69.6435 14.8751 70.4301 17.7171 70.4301 20.7404C70.5511 27.6338 66.6181 33.5596 60.87 36.4621ZM69.2805 11.4284C69.1594 11.247 69.0989 11.0656 68.9779 10.8842C68.8569 10.7028 68.7359 10.5214 68.6149 10.34C68.4939 10.0981 68.3123 9.85625 68.1308 9.67484C68.0098 9.49344 67.8888 9.3725 67.7678 9.1911C67.6468 9.0097 67.5258 8.88876 67.4047 8.70736C63.8953 4.59555 58.7522 1.99544 52.9436 1.99544C45.0172 1.99544 38.1799 6.95379 35.4571 13.9076C35.094 14.7541 34.852 15.7216 34.61 16.6286C34.3074 17.9589 34.1259 19.3497 34.1259 20.7404C34.1259 21.4056 34.1864 22.0103 34.2469 22.6754C34.2469 22.9173 34.3074 23.1592 34.3074 23.3406C34.4285 24.0057 34.5495 24.7313 34.731 25.3965C34.7915 25.6383 34.852 25.8802 34.9125 26.0616C35.1545 26.9686 35.5176 27.8756 35.9411 28.7222C36.4252 29.8106 37.0303 30.7781 37.7563 31.7456C39.269 33.8619 41.2657 35.676 43.565 36.9458C44.4121 37.4295 45.3197 37.8528 46.2878 38.2156C47.498 38.6994 48.8291 39.0017 50.1603 39.2436C51.0679 39.3645 51.9755 39.425 52.8831 39.4855H52.9436C54.7588 39.4855 56.5135 39.2436 58.1472 38.7598C59.0548 38.518 60.0229 38.1552 60.87 37.7319C67.2837 34.769 71.7007 28.2384 71.7007 20.7404C71.7612 17.4147 70.8536 14.2099 69.2805 11.4284ZM60.87 36.4621C60.0229 36.8853 59.1153 37.3086 58.1472 37.5505C56.5135 38.0947 54.7588 38.3366 52.9436 38.3366H52.8831C51.9755 38.3366 51.0679 38.2761 50.1603 38.0947C48.8291 37.9133 47.498 37.49 46.2878 37.0063C45.3197 36.6435 44.4121 36.1597 43.565 35.6155C40.1161 33.4387 37.4538 30.0525 36.2437 26.1221C36.1832 25.8802 36.1226 25.6988 36.0621 25.4569C35.8806 24.7918 35.6991 24.1266 35.6386 23.401C35.5781 23.1592 35.5781 22.9173 35.5781 22.7359C35.5176 22.0707 35.4571 21.4661 35.4571 20.8009C35.4571 19.4102 35.6386 18.0194 35.9411 16.6891C36.1832 15.7216 36.4857 14.8146 36.8487 13.9681C39.4505 7.61894 45.6827 3.20479 52.9436 3.20479C58.3892 3.20479 63.2903 5.74444 66.4971 9.61438C66.6181 9.79578 66.7392 9.91671 66.8602 10.0981C66.9812 10.2795 67.1022 10.4005 67.2232 10.5819C67.4047 10.8237 67.5258 11.0656 67.7073 11.3075C67.8283 11.4889 67.9493 11.6703 68.0098 11.8517C68.1308 12.0331 68.2518 12.2145 68.3123 12.3959C69.6435 14.8751 70.4301 17.7171 70.4301 20.7404C70.5511 27.6338 66.6181 33.5596 60.87 36.4621ZM69.2805 11.4284C69.1594 11.247 69.0989 11.0656 68.9779 10.8842C68.8569 10.7028 68.7359 10.5214 68.6149 10.34C68.4939 10.0981 68.3123 9.85625 68.1308 9.67484C68.0098 9.49344 67.8888 9.3725 67.7678 9.1911C67.6468 9.0097 67.5258 8.88876 67.4047 8.70736C63.8953 4.59555 58.7522 1.99544 52.9436 1.99544C45.0172 1.99544 38.1799 6.95379 35.4571 13.9076C35.094 14.7541 34.852 15.7216 34.61 16.6286C34.3074 17.9589 34.1259 19.3497 34.1259 20.7404C34.1259 21.4056 34.1864 22.0103 34.2469 22.6754C34.2469 22.9173 34.3074 23.1592 34.3074 23.3406C34.4285 24.0057 34.5495 24.7313 34.731 25.3965C34.7915 25.6383 34.852 25.8802 34.9125 26.0616C35.1545 26.9686 35.5176 27.8756 35.9411 28.7222C36.4252 29.8106 37.0303 30.7781 37.7563 31.7456C39.269 33.8619 41.2657 35.676 43.565 36.9458C44.4121 37.4295 45.3197 37.8528 46.2878 38.2156C47.498 38.6994 48.8291 39.0017 50.1603 39.2436C51.0679 39.3645 51.9755 39.425 52.8831 39.4855H52.9436C54.7588 39.4855 56.5135 39.2436 58.1472 38.7598C59.0548 38.518 60.0229 38.1552 60.87 37.7319C67.2837 34.769 71.7007 28.2384 71.7007 20.7404C71.7612 17.4147 70.8536 14.2099 69.2805 11.4284ZM60.87 36.4621C60.0229 36.8853 59.1153 37.3086 58.1472 37.5505C56.5135 38.0947 54.7588 38.3366 52.9436 38.3366H52.8831C51.9755 38.3366 51.0679 38.2761 50.1603 38.0947C48.8291 37.9133 47.498 37.49 46.2878 37.0063C45.3197 36.6435 44.4121 36.1597 43.565 35.6155C40.1161 33.4387 37.4538 30.0525 36.2437 26.1221C36.1832 25.8802 36.1226 25.6988 36.0621 25.4569C35.8806 24.7918 35.6991 24.1266 35.6386 23.401C35.5781 23.1592 35.5781 22.9173 35.5781 22.7359C35.5176 22.0707 35.4571 21.4661 35.4571 20.8009C35.4571 19.4102 35.6386 18.0194 35.9411 16.6891C36.1832 15.7216 36.4857 14.8146 36.8487 13.9681C39.4505 7.61894 45.6827 3.20479 52.9436 3.20479C58.3892 3.20479 63.2903 5.74444 66.4971 9.61438C66.6181 9.79578 66.7392 9.91671 66.8602 10.0981C66.9812 10.2795 67.1022 10.4005 67.2232 10.5819C67.4047 10.8237 67.5258 11.0656 67.7073 11.3075C67.8283 11.4889 67.9493 11.6703 68.0098 11.8517C68.1308 12.0331 68.2518 12.2145 68.3123 12.3959C69.6435 14.8751 70.4301 17.7171 70.4301 20.7404C70.5511 27.6338 66.6181 33.5596 60.87 36.4621ZM69.2805 11.4284C69.1594 11.247 69.0989 11.0656 68.9779 10.8842C68.8569 10.7028 68.7359 10.5214 68.6149 10.34C68.4939 10.0981 68.3123 9.85625 68.1308 9.67484C68.0098 9.49344 67.8888 9.3725 67.7678 9.1911C67.6468 9.0097 67.5258 8.88876 67.4047 8.70736C63.8953 4.59555 58.7522 1.99544 52.9436 1.99544C45.0172 1.99544 38.1799 6.95379 35.4571 13.9076C35.094 14.7541 34.852 15.7216 34.61 16.6286C34.3074 17.9589 34.1259 19.3497 34.1259 20.7404C34.1259 21.4056 34.1864 22.0103 34.2469 22.6754C34.2469 22.9173 34.3074 23.1592 34.3074 23.3406C34.4285 24.0057 34.5495 24.7313 34.731 25.3965C34.7915 25.6383 34.852 25.8802 34.9125 26.0616C35.1545 26.9686 35.5176 27.8756 35.9411 28.7222C36.4252 29.8106 37.0303 30.7781 37.7563 31.7456C39.269 33.8619 41.2657 35.676 43.565 36.9458C44.4121 37.4295 45.3197 37.8528 46.2878 38.2156C47.498 38.6994 48.8291 39.0017 50.1603 39.2436C51.0679 39.3645 51.9755 39.425 52.8831 39.4855H52.9436C54.7588 39.4855 56.5135 39.2436 58.1472 38.7598C59.0548 38.518 60.0229 38.1552 60.87 37.7319C67.2837 34.769 71.7007 28.2384 71.7007 20.7404C71.7612 17.4147 70.8536 14.2099 69.2805 11.4284ZM60.87 36.4621C60.0229 36.8853 59.1153 37.3086 58.1472 37.5505C56.5135 38.0947 54.7588 38.3366 52.9436 38.3366H52.8831C51.9755 38.3366 51.0679 38.2761 50.1603 38.0947C48.8291 37.9133 47.498 37.49 46.2878 37.0063C45.3197 36.6435 44.4121 36.1597 43.565 35.6155C40.1161 33.4387 37.4538 30.0525 36.2437 26.1221C36.1832 25.8802 36.1226 25.6988 36.0621 25.4569C35.8806 24.7918 35.6991 24.1266 35.6386 23.401C35.5781 23.1592 35.5781 22.9173 35.5781 22.7359C35.5176 22.0707 35.4571 21.4661 35.4571 20.8009C35.4571 19.4102 35.6386 18.0194 35.9411 16.6891C36.1832 15.7216 36.4857 14.8146 36.8487 13.9681C39.4505 7.61894 45.6827 3.20479 52.9436 3.20479C58.3892 3.20479 63.2903 5.74444 66.4971 9.61438C66.6181 9.79578 66.7392 9.91671 66.8602 10.0981C66.9812 10.2795 67.1022 10.4005 67.2232 10.5819C67.4047 10.8237 67.5258 11.0656 67.7073 11.3075C67.8283 11.4889 67.9493 11.6703 68.0098 11.8517C68.1308 12.0331 68.2518 12.2145 68.3123 12.3959C69.6435 14.8751 70.4301 17.7171 70.4301 20.7404C70.5511 27.6338 66.6181 33.5596 60.87 36.4621ZM69.2805 11.4284C69.1594 11.247 69.0989 11.0656 68.9779 10.8842C68.8569 10.7028 68.7359 10.5214 68.6149 10.34C68.4939 10.0981 68.3123 9.85625 68.1308 9.67484C68.0098 9.49344 67.8888 9.3725 67.7678 9.1911C67.6468 9.0097 67.5258 8.88876 67.4047 8.70736C63.8953 4.59555 58.7522 1.99544 52.9436 1.99544C45.0172 1.99544 38.1799 6.95379 35.4571 13.9076C35.094 14.7541 34.852 15.7216 34.61 16.6286C34.3074 17.9589 34.1259 19.3497 34.1259 20.7404C34.1259 21.4056 34.1864 22.0103 34.2469 22.6754C34.2469 22.9173 34.3074 23.1592 34.3074 23.3406C34.4285 24.0057 34.5495 24.7313 34.731 25.3965C34.7915 25.6383 34.852 25.8802 34.9125 26.0616C35.1545 26.9686 35.5176 27.8756 35.9411 28.7222C36.4252 29.8106 37.0303 30.7781 37.7563 31.7456C39.269 33.8619 41.2657 35.676 43.565 36.9458C44.4121 37.4295 45.3197 37.8528 46.2878 38.2156C47.498 38.6994 48.8291 39.0017 50.1603 39.2436C51.0679 39.3645 51.9755 39.425 52.8831 39.4855H52.9436C54.7588 39.4855 56.5135 39.2436 58.1472 38.7598C59.0548 38.518 60.0229 38.1552 60.87 37.7319C67.2837 34.769 71.7007 28.2384 71.7007 20.7404C71.7612 17.4147 70.8536 14.2099 69.2805 11.4284ZM60.87 36.4621C60.0229 36.8853 59.1153 37.3086 58.1472 37.5505C56.5135 38.0947 54.7588 38.3366 52.9436 38.3366H52.8831C51.9755 38.3366 51.0679 38.2761 50.1603 38.0947C48.8291 37.9133 47.498 37.49 46.2878 37.0063C45.3197 36.6435 44.4121 36.1597 43.565 35.6155C40.1161 33.4387 37.4538 30.0525 36.2437 26.1221C36.1832 25.8802 36.1226 25.6988 36.0621 25.4569C35.8806 24.7918 35.6991 24.1266 35.6386 23.401C35.5781 23.1592 35.5781 22.9173 35.5781 22.7359C35.5176 22.0707 35.4571 21.4661 35.4571 20.8009C35.4571 19.4102 35.6386 18.0194 35.9411 16.6891C36.1832 15.7216 36.4857 14.8146 36.8487 13.9681C39.4505 7.61894 45.6827 3.20479 52.9436 3.20479C58.3892 3.20479 63.2903 5.74444 66.4971 9.61438C66.6181 9.79578 66.7392 9.91671 66.8602 10.0981C66.9812 10.2795 67.1022 10.4005 67.2232 10.5819C67.4047 10.8237 67.5258 11.0656 67.7073 11.3075C67.8283 11.4889 67.9493 11.6703 68.0098 11.8517C68.1308 12.0331 68.2518 12.2145 68.3123 12.3959C69.6435 14.8751 70.4301 17.7171 70.4301 20.7404C70.5511 27.6338 66.6181 33.5596 60.87 36.4621Z" fill="black"/>
<path d="M60.87 59.9233V53.5137C60.87 48.9786 60.87 44.504 60.87 39.9689V36.4013C60.0229 36.8246 59.1153 37.2479 58.1472 37.4897V103.158H2.78332V16.6888H35.8806C36.1226 15.7213 36.4252 14.8143 36.7882 13.9678H1.93622C0.363042 13.9678 0 14.391 0 15.9632C0 27.2102 0 38.5782 0 49.8252C0 67.8446 0 85.9244 0 103.944C0 105.576 0.363042 105.939 1.99673 105.939C16.0343 105.939 30.1325 105.939 44.1701 105.939C49.1921 105.939 54.1537 105.939 59.1758 105.939C59.8414 105.939 60.4464 105.818 60.6885 105.214C60.87 104.851 60.87 104.367 60.87 103.944C60.87 89.3106 60.87 74.6169 60.87 59.9233ZM60.749 16.9307L60.5069 16.6888L58.3892 19.168L58.8127 19.6517L59.1758 20.1355L59.4783 20.4983C59.5388 20.5588 59.6598 20.6797 59.7204 20.7402C59.9019 20.8611 60.0834 20.982 60.2649 21.0425C60.3859 21.103 60.5675 21.103 60.6885 21.103C60.749 21.103 60.8095 21.103 60.87 21.103V16.8098L60.749 16.9307Z" fill="black"/>
<path d="M46.2878 38.3364C46.2878 38.0945 46.2878 37.9131 46.2878 37.6713C46.2878 37.4294 46.2878 37.248 46.2878 37.0061C45.3197 36.6433 44.4121 36.1596 43.565 35.6154V47.8903C42.1128 43.1134 38.8455 40.9365 33.8839 40.997C36.1831 39.6062 37.6353 37.6713 37.9984 35.1921C38.0589 34.9502 38.0589 34.6479 38.0589 34.406C38.0589 34.2851 38.0589 34.1037 38.0589 33.9827C38.0589 33.8013 38.0589 33.6804 38.0589 33.499C38.0589 32.8943 37.9379 32.3501 37.7563 31.8059C37.4538 30.657 36.7882 29.6895 35.9411 28.7825C35.8201 28.6616 35.7596 28.6011 35.6386 28.4802C35.3361 28.1778 34.973 27.936 34.61 27.6941C34.3679 27.5127 34.0654 27.3918 33.8234 27.2103C33.5814 27.0894 33.3393 26.9685 33.0973 26.908C30.1325 25.8196 26.6231 26.6661 24.5053 29.2663C21.843 32.471 22.085 38.2155 27.1676 41.1179C21.964 40.997 18.6966 43.2343 17.305 48.1322V27.1499C17.305 26.1219 17.305 26.1219 18.2731 26.1219C23.1137 26.1219 28.0147 26.1219 32.9158 26.1219H36.3042C36.2437 25.8801 36.1832 25.6987 36.1226 25.4568C35.9411 24.7916 35.7596 24.1265 35.6991 23.4009H32.4317C27.5912 23.4009 22.6901 23.4009 17.8495 23.4009C15.9133 23.4009 14.7032 24.6102 14.7032 26.6057V39.3039C14.7032 43.4762 14.7032 47.7089 14.7032 51.9417C14.7032 52.4859 14.8242 53.0906 15.0057 53.5743C15.6108 54.7836 16.6999 55.2069 17.9706 55.2069C26.26 55.2069 34.5495 55.2069 42.8389 55.2069C45.2592 55.2069 46.3483 54.1185 46.3483 51.6998V39.183C46.3483 38.8806 46.3483 38.6388 46.2878 38.3364ZM40.9027 52.1835H20.0278C20.0278 50.0067 19.6648 47.8903 21.2379 46.0158C22.3876 44.6251 23.8397 43.839 25.6549 43.839C26.502 43.839 27.3491 43.839 28.2567 43.839C29.3459 43.839 29.8299 43.2948 29.8299 42.2668C29.8299 41.6621 29.8299 40.997 29.8299 40.3923C29.8299 39.3644 29.5879 39.062 28.6198 38.6992C25.8365 37.5503 24.6868 34.2851 26.1995 31.685C27.2281 29.8709 29.4064 28.843 31.5241 29.3267C33.6419 29.75 35.215 31.6245 35.3966 33.6804C35.5781 35.7968 34.3679 37.8527 32.3712 38.6388C31.2216 39.1225 31.0401 39.3644 31.0401 40.6342C31.0401 41.1784 31.0401 41.7226 31.0401 42.3273C31.0401 43.3552 31.5846 43.839 32.6132 43.8995C33.3393 43.8995 34.1259 43.8995 34.852 43.8995C38.1799 43.8995 40.6607 46.1368 40.8422 49.4625C40.9632 50.309 40.9027 51.2161 40.9027 52.1835Z" fill="black"/>
<path d="M21.601 66.2119C22.8716 66.2724 23.9002 66.7561 24.8079 67.6027C26.9256 69.4772 27.4097 69.4772 29.5274 67.6027C31.7056 65.6677 34.4285 65.7282 36.5462 67.7236C36.7882 67.9655 37.0303 68.1469 37.2723 68.3888C38.2404 69.1749 39.39 69.1749 40.3581 68.3283C40.7212 68.026 41.0237 67.7236 41.3263 67.4213C43.323 65.7887 45.8643 65.7887 47.861 67.4213C48.103 67.6027 48.3451 67.8446 48.5871 68.0864C49.1316 68.5702 49.6762 68.8725 50.4628 68.933C51.3099 68.9935 51.794 69.5377 51.7334 70.3237C51.7334 71.1098 51.1889 71.5936 50.2813 71.5936C49.2527 71.5936 48.2845 71.2912 47.4375 70.6261C46.9534 70.2633 46.5904 69.84 46.1063 69.4772C45.1382 68.6306 43.9886 68.6306 43.0204 69.4772C42.7179 69.7191 42.4154 70.0214 42.1128 70.3237C40.1161 72.0168 37.5143 72.0168 35.5176 70.3842C35.215 70.1423 34.9125 69.84 34.61 69.5377C33.5814 68.6306 32.4317 68.6306 31.4031 69.5377C31.1006 69.7795 30.798 70.0819 30.4955 70.3237C28.4988 72.0168 25.8365 72.0773 23.9002 70.3842C23.0532 69.6586 22.2666 68.8725 20.9959 68.8121C20.2698 68.7516 19.9068 67.9655 20.0883 67.2399C20.1488 66.5747 20.7539 66.1515 21.601 66.2119Z" fill="black"/>
<path d="M50.2208 81.1475C48.9501 81.1475 47.9215 80.6033 47.0139 79.8172C46.6509 79.5148 46.3483 79.152 45.9853 78.9102C45.1382 78.3055 44.1096 78.3055 43.2625 78.9706C42.8994 79.2125 42.5969 79.5753 42.2944 79.8172C40.1766 81.6917 37.3933 81.6312 35.3361 79.7567C35.0335 79.5148 34.7915 79.2125 34.4285 78.9706C33.5208 78.245 32.4317 78.245 31.5241 78.9706C31.2821 79.2125 30.9796 79.4544 30.7375 79.6962C28.6198 81.6312 25.8365 81.6917 23.7187 79.7567C22.9321 79.0916 22.206 78.4264 21.0564 78.3659C20.3908 78.3659 19.9673 77.6403 20.0278 76.9752C20.0883 76.31 20.5724 75.7658 21.2984 75.7658C22.3876 75.7054 23.4162 76.0077 24.2633 76.7333C24.7473 77.0961 25.2314 77.5799 25.7155 77.9427C26.5625 78.6683 27.6517 78.6683 28.5593 78.0031C29.0433 77.6403 29.4669 77.2171 29.9509 76.8542C31.8267 75.403 34.3679 75.4635 36.1832 76.9147C36.6067 77.217 36.9092 77.5799 37.3328 77.9427C38.3009 78.7287 39.3295 78.7287 40.2976 77.9427C40.6607 77.6403 41.0237 77.2775 41.3868 76.9752C43.3835 75.403 45.9853 75.403 47.9215 77.0961C48.2845 77.3985 48.5266 77.7613 48.9501 77.9427C49.3737 78.1845 49.9182 78.4264 50.4023 78.5473C51.3099 78.7287 51.8545 79.2125 51.7939 80.059C51.6729 80.6637 51.0679 81.1475 50.2208 81.1475Z" fill="black"/>
<path d="M50.2208 90.5806C48.8291 90.5806 47.74 89.9155 46.7719 89.0085C46.2878 88.5852 45.6828 88.1015 45.0172 87.9201C44.1096 87.6177 43.3835 88.1619 42.7179 88.8271C41.7498 89.7946 40.7212 90.4597 39.3295 90.5806C37.9379 90.7016 36.7277 90.3388 35.6386 89.4318C35.2756 89.1294 34.9125 88.7666 34.5495 88.4643C33.5209 87.6177 32.4317 87.6177 31.4636 88.4643C30.9796 88.8875 30.556 89.3108 30.0114 89.6736C28.2567 90.9435 25.897 90.883 24.2028 89.5527C23.8397 89.2504 23.4767 88.948 23.1137 88.5852C22.6296 88.1015 22.085 87.8596 21.359 87.7991C20.5119 87.7387 19.9673 87.134 20.0278 86.3479C20.0883 85.6223 20.6934 85.0781 21.5405 85.0781C22.8111 85.0781 23.9002 85.6223 24.8684 86.4688C25.1709 86.7107 25.4129 87.013 25.7155 87.1944C26.6836 87.9805 27.8332 87.9805 28.7408 87.1944C29.1038 86.8921 29.4669 86.5293 29.8299 86.227C31.7662 84.6548 34.368 84.7153 36.2437 86.2874C36.6067 86.5898 36.9697 86.9526 37.3328 87.2549C38.3009 88.041 39.39 88.041 40.2976 87.2549C40.6607 86.9526 40.9632 86.6502 41.2657 86.3479C43.2625 84.6548 45.9853 84.6548 47.9215 86.4084C48.7686 87.134 49.4947 87.8596 50.7048 87.9201C51.3704 87.9201 51.794 88.7061 51.6729 89.3713C51.6729 90.2178 51.1284 90.6411 50.2208 90.5806Z" fill="black"/>
<path d="M12.0409 65.3652C12.9485 65.3652 13.7956 65.3652 14.7032 65.3652C15.6108 65.3652 16.2159 65.9094 16.1553 66.756C16.1553 67.5421 15.5503 68.0863 14.7032 68.0863C12.9485 68.0863 11.1938 68.0863 9.43908 68.0863C8.59198 68.0863 7.98691 67.4816 7.98691 66.756C7.98691 65.9699 8.59198 65.4257 9.43908 65.4257C10.2862 65.3652 11.1938 65.3652 12.0409 65.3652Z" fill="black"/>
<path d="M12.0409 78.5472C11.1938 78.5472 10.3467 78.5472 9.4391 78.5472C8.53149 78.5472 7.92642 78.003 7.92642 77.2169C7.92642 76.4308 8.53149 75.8262 9.4391 75.8262C11.1938 75.8262 12.888 75.8262 14.6427 75.8262C15.5503 75.8262 16.1554 76.3704 16.1554 77.2169C16.1554 78.003 15.6108 78.5472 14.7032 78.5472C13.7956 78.5472 12.9485 78.5472 12.0409 78.5472Z" fill="black"/>
<path d="M10.9518 86.4081C12.3434 86.4081 13.7351 86.4081 15.1267 86.4081C15.7923 86.4081 16.0344 86.8918 16.1554 87.436C16.2159 88.0407 15.9738 88.5849 15.3688 88.8268C15.1873 88.8872 14.9452 88.9477 14.7032 88.9477C12.888 88.9477 11.0728 88.9477 9.25757 88.8872C8.53149 88.8872 7.98693 88.343 7.92642 87.6779C7.92642 86.9523 8.41048 86.3476 9.13656 86.2871C9.74163 86.2267 10.3467 86.2871 10.9518 86.2871C10.9518 86.3476 10.9518 86.3476 10.9518 86.4081Z" fill="black"/>
</svg>
