<svg width="97" height="97" viewBox="0 0 97 97" fill="none" xmlns="http://www.w3.org/2000/svg">
<path d="M70.3351 64.4885C70.8159 64.4885 71.1163 64.5486 71.4768 64.5486C76.2239 64.5486 80.9109 64.4885 85.6581 64.6087C91.7872 64.7289 96.8948 69.8966 96.9549 76.0258C97.015 79.2106 97.015 82.3953 96.9549 85.5801C96.8948 91.529 91.8473 96.6967 85.8984 96.9371C85.2374 96.9971 84.5764 96.9371 83.9154 96.9371C59.9997 96.9371 36.0839 96.9371 12.1682 96.9371C8.44262 96.9371 5.37804 95.6151 2.91436 92.7909C1.23184 90.8079 0.210314 88.5245 0.0901347 85.9406C-0.0300449 82.5155 -0.0300449 79.1505 0.0901347 75.7253C0.330494 69.5962 5.37804 64.6688 11.5072 64.5486C16.074 64.4885 20.7009 64.4885 25.2678 64.4885C25.448 64.4885 25.5682 64.4885 25.8687 64.4285C14.6319 54.8141 10.065 42.7961 12.9494 28.3145C14.692 19.6014 19.379 12.631 26.4095 7.28303C40.4705 -3.35287 60.1199 -2.21116 72.7988 9.86689C80.6706 17.3781 84.5764 26.692 84.0957 37.6284C83.615 48.5647 78.8078 57.3979 70.3351 64.4885ZM37.7064 67.3729C37.7064 67.4329 37.6463 67.493 37.6463 67.5531C37.4059 67.5531 37.1656 67.5531 36.8651 67.5531C29.2938 67.5531 21.7225 67.5531 14.1512 67.5531C13.1296 67.5531 12.1682 67.5531 11.1467 67.6132C6.70002 67.8536 3.03454 71.6392 2.97445 76.0258C2.91436 79.1505 2.91436 82.2751 2.97445 85.3998C3.03454 88.4644 4.47669 90.868 7.06055 92.4904C8.74307 93.6321 10.6659 93.8725 12.709 93.8725C35.9638 93.8725 59.2185 93.8725 82.4733 93.8725C83.4347 93.8725 84.3962 93.8725 85.2975 93.8725C89.9845 93.7523 93.7702 89.9065 93.8303 85.2796C93.8904 82.215 93.8303 79.1505 93.8303 76.0859C93.8303 74.824 93.5298 73.6222 92.989 72.5406C91.2464 69.1756 88.4823 67.5531 84.6966 67.5531C76.1639 67.5531 67.6311 67.5531 59.1584 67.5531C58.9181 67.5531 58.6777 67.5531 58.4374 67.493C66.6697 64.4885 72.9791 59.2607 77.1253 51.5692C81.2715 43.8176 82.1127 35.6454 79.8293 27.1728C76.1038 13.4122 63.0042 3.3171 48.823 3.07674C33.7404 2.83638 20.6409 12.631 16.4947 26.7521C14.3915 33.8427 14.6319 40.8732 17.2758 47.7836C21.0615 57.3979 28.0319 63.8876 37.7064 67.3729Z" fill="black"/>
<path d="M37.8266 26.6918C41.0113 23.9276 44.0158 21.0433 45.518 16.9572C45.8185 16.2361 45.9387 15.3949 46.0589 14.6137C46.3593 12.811 47.3207 11.429 49.0633 10.8281C50.866 10.2272 52.5486 10.5877 53.9907 11.9097C54.832 12.7509 55.1324 13.8325 55.4329 14.9142C56.2741 18.5196 56.3342 22.0048 54.5916 25.3698C54.5315 25.4299 54.5315 25.5501 54.5315 25.7303C54.8921 25.7303 55.1324 25.7303 55.4329 25.7303C59.0984 25.7303 62.7037 25.7303 66.3692 25.7303C69.1333 25.7303 71.1163 27.8335 70.9961 30.5375C70.936 31.6191 70.5755 32.5806 69.7943 33.3617C69.554 33.6021 69.4338 33.8425 69.6742 34.203C70.6356 36.0658 70.3952 37.8685 69.0733 39.4909C68.9531 39.6712 68.893 40.0317 68.9531 40.2721C70.0347 42.6156 69.4338 44.9591 67.2706 46.3411C66.91 46.5815 66.91 46.7618 67.0302 47.0622C67.4508 48.5044 67.2706 49.8264 66.4293 51.0882C65.528 52.3501 64.3262 53.0111 62.8239 53.0111C58.3172 53.0111 53.8705 53.0111 49.3638 53.0111C45.2777 53.0111 41.1916 53.0111 37.1656 53.0111C36.8651 53.0111 36.6248 53.1313 36.3243 53.2515C35.6032 53.4317 34.8821 53.6721 34.1611 53.7923C33.2597 53.9125 32.2983 53.7923 31.3969 53.7923C28.5126 53.7923 26.5898 51.8694 26.5898 48.925C26.5898 45.0793 26.5898 41.2936 26.5898 37.4479C26.5898 34.8039 26.5898 32.1599 26.5898 29.516C26.5898 26.9922 28.5727 25.0093 31.0965 25.0093C32.0579 25.0093 33.0194 25.0093 33.9808 25.0093C35.3028 25.0093 36.4445 25.49 37.4059 26.3913C37.466 26.4514 37.5862 26.5115 37.6463 26.5716C37.6463 26.6317 37.7064 26.6918 37.8266 26.6918ZM38.6678 49.9465C38.8481 49.9465 39.0283 50.0066 39.1485 50.0066C40.8911 50.0066 42.5736 50.0066 44.3163 50.0066C47.9817 50.0066 51.5871 50.0066 55.2526 50.0066C57.7163 50.0066 60.1199 50.0066 62.5836 50.0066C63.4248 50.0066 63.9055 49.6461 64.1459 49.0452C64.5064 47.9636 63.8454 47.0021 62.6437 47.0021C61.2015 47.0021 59.7593 47.0021 58.3172 47.0021C57.2957 47.0021 56.6347 46.3411 56.6948 45.3797C56.7548 44.5385 57.4759 43.9375 58.4374 43.9375C60.6006 43.9375 62.7638 43.9375 64.9871 43.9375C65.3477 43.9375 65.7683 43.7573 66.0688 43.4568C66.5495 43.0362 66.6697 42.4954 66.4293 41.8945C66.1289 41.2335 65.6481 40.9331 64.9271 40.9331C62.8239 40.9331 60.7208 40.9331 58.5575 40.9331C58.2571 40.9331 57.8966 40.9331 57.5961 40.8129C56.9351 40.5725 56.5746 39.8514 56.6948 39.1304C56.8149 38.4093 57.4158 37.9286 58.197 37.8685C60.6607 37.8685 63.0643 37.8685 65.528 37.8084C65.9486 37.8084 66.4894 37.6281 66.7898 37.3277C67.2706 36.907 67.3907 36.3662 67.0903 35.7052C66.7898 35.0443 66.3091 34.8039 65.588 34.8039C63.2445 34.8039 60.901 34.8039 58.5575 34.8039C58.2571 34.8039 57.8966 34.8039 57.5961 34.6837C56.875 34.4434 56.5145 33.7223 56.6347 32.9411C56.7548 32.2801 57.3557 31.7393 58.1369 31.7393C60.7208 31.7393 63.3647 31.7393 65.9486 31.7393C66.1889 31.7393 66.4293 31.7393 66.6697 31.7393C67.3907 31.6191 67.8715 31.0783 67.9316 30.4173C67.9916 29.7564 67.571 29.0353 66.91 28.855C66.6096 28.7949 66.3091 28.7949 66.0087 28.7949C61.2015 28.7949 56.3342 28.7949 51.527 28.7949C50.806 28.7949 50.2651 28.5546 49.9647 27.8936C49.6042 27.1725 49.9046 26.6317 50.3252 26.0308C50.866 25.3698 51.4069 24.7088 51.8275 23.9276C53.3898 20.9832 53.0894 17.9187 52.2481 14.8541C51.9477 13.8926 51.4069 13.5321 50.5055 13.5922C49.7243 13.6523 49.2436 14.133 49.1234 15.0944C48.8831 16.8971 48.2822 18.5796 47.3808 20.2021C45.3979 23.8075 42.6337 26.6317 39.5091 29.1555C38.9082 29.6362 38.6678 30.177 38.6678 30.9581C38.7279 36.5465 38.6678 42.1349 38.6678 47.7232C38.6678 48.5044 38.6678 49.2255 38.6678 49.9465ZM35.6032 39.4308C35.5431 36.2461 35.6032 33.0012 35.5431 29.8164C35.5431 28.6146 35.0023 28.0738 33.8005 28.0738C32.9593 28.0738 32.1781 28.0738 31.3368 28.0738C30.075 28.0738 29.5342 28.6146 29.5342 29.8765C29.5342 36.3061 29.5342 42.6757 29.5342 49.1053C29.5342 49.9465 30.0149 50.6075 30.8561 50.7277C31.7575 50.8479 32.6588 50.7878 33.5602 50.7878C35.0624 50.7878 35.6032 50.247 35.6032 48.6847C35.6032 45.6201 35.6032 42.5555 35.6032 39.4308Z" fill="black"/>
<path d="M20.3404 88.6449C19.5592 88.705 18.8983 88.2243 18.1772 87.8037C16.6749 86.7821 16.6749 86.7821 15.1126 87.8037C13.9108 88.6449 12.709 89.0055 11.3269 88.1642C10.1852 87.4431 9.64442 86.1211 9.94487 84.7992C10.0651 84.2584 10.3054 83.7176 10.4857 83.2368C10.6059 82.8763 10.5458 82.696 10.2453 82.4557C9.7646 82.1552 9.34397 81.8548 8.92334 81.5543C7.78164 80.7731 7.30092 79.4512 7.66146 78.2494C8.022 76.9274 9.10361 76.0261 10.5458 75.966C11.2068 75.966 11.8677 75.966 12.5287 75.966C12.8893 75.966 13.1296 75.8458 13.2498 75.4252C13.37 74.8843 13.6104 74.4036 13.7906 73.9229C14.2713 72.661 15.413 71.9399 16.6148 71.9399C17.9368 71.9399 19.0184 72.7211 19.4992 73.983C19.6794 74.4637 19.9198 74.9444 20.04 75.4252C20.1601 75.9059 20.4005 76.0261 20.8211 75.966C21.422 75.966 22.083 75.966 22.6839 75.966C24.066 76.0261 25.2077 76.8072 25.5682 78.1292C25.9889 79.4512 25.5081 80.7731 24.3063 81.5543C23.8857 81.8548 23.405 82.1552 22.9844 82.4557C22.6839 82.6359 22.6238 82.8763 22.744 83.2368C22.9243 83.7176 23.1045 84.1983 23.2848 84.679C23.9458 86.6619 22.4436 88.6449 20.3404 88.6449ZM13.0695 85.2799C13.1296 85.34 13.1897 85.34 13.2498 85.4001C14.2713 84.7391 15.2328 84.0781 16.2543 83.4171C16.6148 83.1767 16.8552 83.1767 17.2157 83.4171C18.057 84.018 18.9583 84.6189 19.8597 85.1597C19.9799 85.2198 20.1601 85.2799 20.4005 85.4602C20.1601 84.679 19.9198 84.0781 19.7395 83.4772C19.0785 81.5543 19.0785 81.5543 20.7009 80.4727C21.3018 80.1122 21.8427 79.6915 22.4436 79.2709C22.4436 79.2108 22.3835 79.1507 22.3835 79.0906C22.2032 79.0906 21.9628 79.0305 21.7826 79.0305C20.8211 79.0305 19.7996 79.0305 18.8382 79.0305C18.3574 79.0305 18.1171 78.9104 17.9969 78.4296C17.7565 77.5884 17.396 76.7471 17.0956 75.8458C17.0355 75.6655 16.9153 75.4852 16.735 75.0646C16.3144 76.3265 15.8938 77.348 15.5332 78.4296C15.413 78.8503 15.1727 78.9704 14.7521 78.9704C13.9108 78.9704 13.1296 78.9704 12.2884 78.9704C11.8677 78.9704 11.5072 78.9704 11.0866 78.9704C11.2068 79.2709 11.3269 79.331 11.4471 79.4512C12.2283 79.992 13.0095 80.5929 13.8507 81.0736C14.3314 81.374 14.3915 81.6745 14.2112 82.1552C13.7305 83.2969 13.4301 84.2584 13.0695 85.2799Z" fill="black"/>
<path d="M41.6122 88.765C41.0714 88.5247 40.4705 88.4045 39.9898 88.104C39.2687 87.7435 38.6077 86.9022 37.8866 86.9623C37.1656 86.9623 36.5046 87.7435 35.7835 88.1641C34.7019 88.8251 33.6203 88.8852 32.5386 88.2242C31.3368 87.5031 30.796 86.1812 31.2167 84.7991C31.3368 84.2583 31.6373 83.7776 31.6974 83.2969C31.7575 83.0565 31.6373 82.696 31.457 82.5758C31.0965 82.2753 30.6759 82.035 30.2552 81.7946C28.2723 80.4726 28.2122 77.8287 30.075 76.6269C30.5557 76.3264 31.2167 76.2063 31.8176 76.0861C32.3584 76.026 32.9593 76.026 33.5001 76.0861C33.9808 76.0861 34.2812 75.9659 34.4014 75.4251C34.5216 74.9444 34.7019 74.4636 34.8821 74.043C35.3629 72.7811 36.5046 72.0601 37.7064 72.0601C39.0283 72.0601 40.11 72.8412 40.5907 74.1031C40.7709 74.5838 41.0113 75.1246 41.1315 75.6054C41.2517 75.9659 41.492 76.0861 41.8526 76.0861C42.4535 76.0861 43.1145 76.0861 43.7153 76.0861C45.1575 76.0861 46.2992 76.9273 46.6597 78.2493C47.0804 79.5713 46.5997 80.8933 45.3979 81.6744C44.9772 81.9749 44.6167 82.2753 44.136 82.5157C43.7153 82.756 43.6553 83.0565 43.8355 83.4771C44.0158 83.9578 44.1961 84.4386 44.3162 84.9193C45.0974 86.7821 43.5952 88.6448 41.6122 88.765ZM38.0068 75.365C37.9467 75.365 37.8866 75.365 37.8265 75.365C37.466 76.3865 37.0454 77.4681 36.6848 78.5498C36.5647 78.9704 36.3243 79.0906 35.9037 79.0906C34.8221 79.0906 33.7404 79.0906 32.6588 79.0906C32.4786 79.0906 32.3584 79.1507 32.0579 79.2107C33.0794 79.9318 33.9207 80.5327 34.8221 81.0735C35.423 81.4341 35.483 81.7946 35.2427 82.4556C34.8821 83.417 34.5817 84.3785 34.2212 85.3399C34.2812 85.4 34.2812 85.4 34.3413 85.4601C35.2427 84.8592 36.144 84.3184 36.9853 83.6574C37.5862 83.1767 38.0068 83.1767 38.6077 83.6574C39.449 84.3184 40.3503 84.8592 41.3718 85.5202C41.3118 85.2197 41.3118 85.0995 41.2517 84.9794C40.9512 84.078 40.6508 83.1767 40.2902 82.2753C40.11 81.7946 40.11 81.4942 40.5907 81.1937C41.1916 80.8933 41.7324 80.4726 42.2732 80.1121C42.6938 79.8717 43.0544 79.5713 43.475 79.2708C43.3548 79.1507 43.3548 79.1507 43.2947 79.1507C42.5736 79.1507 41.8526 79.1507 41.0714 79.1507C39.1485 79.1507 39.1485 79.1507 38.4875 77.348C38.4274 76.6269 38.1871 75.9659 38.0068 75.365Z" fill="black"/>
<path d="M83.9755 88.6452C83.1944 88.7053 82.5334 88.2847 81.8123 87.8039C80.25 86.7824 80.25 86.7824 78.7477 87.8039C77.5459 88.6452 76.3441 89.0057 75.0222 88.2246C73.8204 87.5035 73.2195 86.1214 73.58 84.7995C73.7002 84.3187 73.8804 83.838 74.0607 83.4174C74.241 82.9968 74.1809 82.6963 73.7603 82.4559C73.2795 82.1555 72.7988 81.8551 72.3181 81.4945C71.2365 80.6533 70.876 79.3914 71.2966 78.1295C71.6571 76.9277 72.7387 76.1465 74.0607 76.0263C74.7217 75.9662 75.3827 75.9662 76.0437 76.0263C76.4643 76.0263 76.7047 75.9062 76.8248 75.4855C76.945 74.9447 77.1854 74.4039 77.3657 73.9232C77.9065 72.7214 78.8078 72.0604 80.0697 72.0604C81.3917 72.0003 82.4132 72.6613 82.954 73.8631C83.1944 74.4039 83.3746 75.0048 83.5549 75.5456C83.6751 75.9062 83.8554 76.0864 84.276 76.0864C84.8769 76.0864 85.5379 76.0864 86.1388 76.0864C87.641 76.0864 88.7226 76.9277 89.1433 78.2497C89.5038 79.5115 89.0231 80.8335 87.8213 81.6748C87.4007 81.9752 86.9199 82.2156 86.4993 82.5761C86.319 82.6963 86.2589 83.0569 86.319 83.2972C86.4392 83.838 86.6796 84.3788 86.8599 84.9196C87.4607 86.7824 86.0186 88.6452 83.9755 88.6452ZM85.9585 79.2712C85.9585 79.2111 85.8984 79.151 85.8984 79.0909C85.1773 79.0909 84.3962 79.0909 83.6751 79.0909C81.6921 79.0909 81.6921 79.0909 81.0311 77.2281C80.7908 76.6272 80.6105 76.0263 80.3701 75.3654C80.3101 75.3654 80.25 75.3654 80.1899 75.3654C80.1298 75.6057 80.0096 75.8461 79.9495 76.0263C79.6491 76.8075 79.3486 77.5887 79.1083 78.4299C78.928 78.9106 78.6876 79.0909 78.1468 79.0909C77.3056 79.0308 76.5244 79.0909 75.6831 79.0909C75.3226 79.0909 74.9621 79.0909 74.6015 79.0909C74.6015 79.151 74.5414 79.2111 74.5414 79.2712C74.7217 79.3914 74.8419 79.5115 75.0222 79.6317C75.7432 80.1124 76.4042 80.5932 77.1253 81.0138C77.7262 81.3743 77.9666 81.7349 77.606 82.4559C77.2455 83.1169 77.0652 83.8981 76.8248 84.5591C76.7648 84.7995 76.6446 85.0398 76.5845 85.3403C76.7047 85.3403 76.7648 85.3403 76.8248 85.2802C77.4858 84.8595 78.1468 84.4389 78.7477 84.0183C80.1899 83.0568 80.1899 83.0568 81.632 84.0183C82.293 84.4389 82.954 84.9196 83.615 85.3403C83.6751 85.2802 83.7352 85.2802 83.7352 85.2201C83.3746 84.1986 83.0141 83.177 82.6536 82.1555C82.4733 81.7349 82.4733 81.4344 82.954 81.134C84.0957 80.5932 85.0572 79.9322 85.9585 79.2712Z" fill="black"/>
<path d="M62.7638 88.8251C62.1029 88.5247 61.2616 88.3444 60.7208 87.8637C59.5791 86.8422 58.6176 86.8422 57.4759 87.8637C56.3943 88.765 55.0723 89.0655 53.7504 88.2242C52.6087 87.5031 52.0078 86.1211 52.4284 84.7991C52.5486 84.3184 52.7288 83.8377 52.9091 83.417C53.1495 82.9363 52.9692 82.696 52.6087 82.4556C52.1279 82.1551 51.6472 81.8547 51.1665 81.4942C50.145 80.713 49.7844 79.4511 50.145 78.2493C50.5055 76.9874 51.527 76.2063 52.849 76.0861C53.5701 76.026 54.2912 76.026 55.0123 76.0861C55.4329 76.0861 55.6732 75.9659 55.7333 75.5453C55.8535 75.0645 56.0939 74.5838 56.2741 74.1031C56.7549 72.8412 57.8365 72.0601 59.0383 72.0601C60.3602 72.0601 61.502 72.8412 61.9827 74.1031C62.1629 74.5838 62.3432 75.0645 62.5235 75.5453C62.6437 76.026 62.884 76.0861 63.3046 76.0861C63.9055 76.0861 64.5064 76.0861 65.1073 76.0861C66.5495 76.0861 67.6912 76.9273 68.0517 78.2493C68.4724 79.5713 67.9917 80.8332 66.7899 81.6744C66.3692 81.9749 65.9486 82.2152 65.528 82.5157C65.1674 82.756 65.0473 82.9964 65.2275 83.417C65.4078 83.8978 65.5881 84.3785 65.7082 84.8592C66.2491 86.7821 64.8069 88.7049 62.8239 88.7049C62.8239 88.7049 62.8239 88.765 62.7638 88.8251ZM62.5235 85.4C62.5836 85.3399 62.6437 85.3399 62.6437 85.2798C62.4033 84.6188 62.1629 83.8978 61.9226 83.2368C61.2616 81.1937 61.0813 81.7946 62.7638 80.6529C63.0643 80.4726 63.3046 80.2924 63.6051 80.052C63.9656 79.8116 64.3863 79.5112 64.7468 79.2708C64.5064 79.0906 64.2661 79.0906 64.0858 79.0906C63.1244 79.0906 62.1629 79.0305 61.2616 79.0906C60.7208 79.0906 60.4203 78.9704 60.2401 78.3695C59.9997 77.5282 59.6993 76.7471 59.3988 75.9058C59.3387 75.7255 59.2185 75.4852 59.0383 75.1246C58.858 75.5453 58.7979 75.7255 58.7378 75.9659C58.4374 76.8072 58.1369 77.6484 57.8365 78.4897C57.7163 78.9103 57.4759 79.0906 57.0553 79.0305C56.0338 79.0305 55.0123 79.0305 53.9306 79.0305C53.7504 79.0305 53.5701 79.0305 53.2096 79.0906C53.51 79.3309 53.6302 79.4511 53.8105 79.5713C54.5315 80.052 55.2526 80.5928 56.0338 81.0134C56.6347 81.374 56.7549 81.7345 56.4544 82.3354C56.0338 83.2969 55.7934 84.2583 55.3728 85.3399C55.6131 85.2197 55.7934 85.1596 55.9136 85.0996C56.6948 84.5587 57.536 84.078 58.3172 83.4771C58.858 83.0565 59.2786 83.1166 59.8194 83.4771C60.7208 84.1982 61.6221 84.7991 62.5235 85.4Z" fill="black"/>
<path d="M48.162 71.5792C28.4525 71.5792 12.4085 55.5352 12.4085 35.8257C12.4085 16.1163 28.3924 0.012207 48.162 0.012207C67.9315 0.012207 83.9154 16.0562 83.9154 35.7657C83.9154 55.4751 67.8714 71.5792 48.162 71.5792ZM48.162 3.0167C30.0749 3.0167 15.3529 17.7387 15.3529 35.8257C15.3529 53.9128 30.0749 68.5747 48.1019 68.5747C66.1288 68.5747 80.8509 53.8527 80.8509 35.8257C80.8509 17.7988 66.1889 3.0167 48.162 3.0167Z" fill="black"/>
</svg>
