<svg width="13" height="26" viewBox="0 0 13 26" fill="none" xmlns="http://www.w3.org/2000/svg">
<path d="M1.1646 26C0.688804 25.9644 0.314636 25.7053 0.102145 25.1972C-0.105726 24.6942 0.00975785 24.1353 0.393165 23.7085C1.0214 23.0124 1.65425 22.3213 2.28248 21.6303C4.85547 18.8002 7.43307 15.965 10.0061 13.1349C10.1308 12.9977 10.1262 12.9977 10.0014 12.8605C6.81408 9.35458 3.6221 5.84868 0.434739 2.3377C0.249965 2.13446 0.0975257 1.91089 0.037474 1.62636C-0.110346 0.915013 0.249965 0.244319 0.892056 0.05124C1.35861 -0.0910285 1.74664 0.071564 2.07461 0.432316C2.79523 1.21987 3.51123 2.00743 4.22724 2.79499C7.01271 5.85884 9.79357 8.9227 12.579 11.9815C12.8701 12.3016 13.0317 12.6674 12.9948 13.1247C12.9671 13.4702 12.8146 13.7547 12.5929 13.9986C10.1169 16.7322 7.63171 19.4607 5.14649 22.1943C4.13485 23.3071 3.12321 24.4147 2.11619 25.5275C1.91755 25.751 1.68197 25.9035 1.40942 25.9797C1.34475 26 1.26622 25.9949 1.1646 26Z" fill="#FFF2E9"/>
</svg>
