<svg width="33" height="64" viewBox="0 0 33 64" fill="none" xmlns="http://www.w3.org/2000/svg">
<path d="M2.95629 64C1.7485 63.9124 0.798691 63.2746 0.259291 62.0239C-0.268382 60.7857 0.0247699 59.4099 0.998034 58.3593C2.59278 56.6458 4.19925 54.9448 5.794 53.2439C12.3254 46.2774 18.8686 39.2984 25.4 32.332C25.7166 31.9943 25.7049 31.9943 25.3883 31.6566C17.2973 23.0267 9.19456 14.3968 1.10357 5.75433C0.634526 5.25405 0.247565 4.70374 0.0951263 4.00334C-0.280108 2.25234 0.634526 0.6014 2.26445 0.126129C3.44878 -0.22407 4.43377 0.176158 5.26633 1.06416C7.09559 3.00277 8.91313 4.94137 10.7307 6.87998C17.8015 14.4218 24.8606 21.9636 31.9314 29.4929C32.6702 30.2808 33.0806 31.1813 32.9868 32.3069C32.9164 33.1574 32.5295 33.8578 31.9666 34.4582C25.6814 41.187 19.3728 47.9033 13.0642 54.6322C10.4962 57.3712 7.92814 60.0978 5.37186 62.8368C4.86764 63.3871 4.26961 63.7624 3.57777 63.95C3.41361 64 3.21426 63.9875 2.95629 64Z" fill="#E18370"/>
</svg>
