<svg width="68" height="46" viewBox="0 0 68 46" fill="none" xmlns="http://www.w3.org/2000/svg">
<path d="M67.3571 23.2396C67.3571 25.1563 67.3571 27.3125 67.3571 29.2292C67.1113 32.3438 66.8655 35.2188 66.3738 38.3333C65.8821 40.25 64.8988 41.9271 63.4238 43.125C61.9489 44.3229 59.9822 44.8021 58.0156 45.0417C56.2948 45.2812 54.8198 45.2813 53.0989 45.5208C52.1156 45.5208 50.8865 45.7604 49.9031 45.7604C45.9699 45.7604 42.0366 46 38.1033 46C35.3991 46 32.695 46 29.9909 46C27.5325 46 24.8284 46 22.3701 45.7604C19.1743 45.5208 16.2243 45.5208 13.0285 45.2813C11.5535 45.2813 10.0786 45.0417 8.8494 44.8021C7.37442 44.5625 6.14527 44.0833 4.91611 43.125C2.94947 41.6875 1.96614 39.5312 1.72031 37.375C1.22865 34.7396 0.982819 32.3438 0.982819 29.7083C0.982819 27.0729 0.736988 24.6771 0.736988 22.0417C-0.00050424 20.3646 0.245327 18.4479 0.245327 16.5313C0.491157 14.6146 0.491157 12.9375 0.736988 11.0208C0.982819 9.34375 1.22865 7.66667 1.96614 5.98958C3.1953 3.59375 5.16194 1.91667 7.86608 1.4375C9.34107 1.19792 10.8161 0.958333 12.5369 0.958333C15.4868 0.71875 18.6826 0.71875 21.6326 0.479167C24.0909 0.479167 26.5492 0.239583 29.0075 0.239583C31.4658 0.239583 33.9241 0 36.3825 0C39.0866 0 42.0366 0 44.7407 0.239583C46.7074 0.239583 48.9198 0.479167 50.8865 0.479167C52.3615 0.479167 54.0823 0.479167 55.5573 0.71875C57.2781 0.958333 59.2447 0.958333 60.9655 1.67708C63.6697 2.63542 65.3905 4.55208 66.128 7.1875C66.8655 10.3021 67.1113 13.4167 67.3571 16.7708C67.3571 18.9271 67.3571 21.0833 67.3571 23.2396ZM27.0409 23C27.0409 25.875 27.0409 28.75 27.0409 31.625C27.0409 31.8646 27.0409 32.3438 27.2867 32.5833C27.7784 32.5833 28.0242 32.3438 28.5159 32.3438C29.4992 31.625 30.7283 31.1458 31.7117 30.4271C33.4325 29.4688 35.1533 28.5104 36.6283 27.5521C38.1033 26.8333 39.3324 26.1146 40.8074 25.1563C41.7907 24.6771 43.0199 23.9583 44.0032 23.2396C44.4949 23 44.4949 22.5208 44.0032 22.2812C43.5115 22.0417 43.2657 21.8021 42.7741 21.5625C40.3157 20.125 37.6116 18.6875 35.1533 17.25C32.9408 16.0521 30.4825 14.6146 28.27 13.4167C27.2867 13.1771 27.0409 13.4167 27.0409 14.1354C27.0409 17.0104 27.0409 20.125 27.0409 23Z" fill="#FFF2E9"/>
</svg>
