<svg width="1174" height="660" viewBox="0 0 1174 660" fill="none" xmlns="http://www.w3.org/2000/svg">
<g filter="url(#filter0_d)">
<rect x="856" y="117" width="531" height="422" transform="rotate(90 856 117)" fill="white"/>
</g>
<g filter="url(#filter1_d)">
<path d="M826 4C842.569 4 856 17.4315 856 34L856 335L433 335L433 34C433 17.4315 446.431 3.99999 463 3.99999L826 4Z" fill="#E18370"/>
</g>
<path d="M496 292H810" stroke="white"/>
<path d="M593.592 183.952C595.152 185.632 595.932 187.648 595.932 190C595.932 192.352 595.152 194.368 593.592 196.048C592.056 197.728 589.932 198.784 587.22 199.216V206.2H581.964V199.216C579.252 198.784 577.116 197.728 575.556 196.048C574.02 194.368 573.252 192.352 573.252 190C573.252 187.648 574.02 185.632 575.556 183.952C577.116 182.272 579.252 181.216 581.964 180.784V173.8H587.22V180.784C589.932 181.216 592.056 182.272 593.592 183.952ZM581.964 185.932C579.708 186.556 578.58 187.912 578.58 190C578.58 192.088 579.708 193.444 581.964 194.068V185.932ZM587.22 194.068C589.476 193.444 590.604 192.088 590.604 190C590.604 187.912 589.476 186.556 587.22 185.932V194.068ZM603.831 192.16C604.455 193.84 605.895 194.68 608.151 194.68C609.615 194.68 610.767 194.224 611.607 193.312L615.927 195.796C614.151 198.268 611.535 199.504 608.079 199.504C605.055 199.504 602.631 198.604 600.807 196.804C599.007 195.004 598.107 192.736 598.107 190C598.107 187.288 598.995 185.032 600.771 183.232C602.571 181.408 604.875 180.496 607.683 180.496C610.299 180.496 612.471 181.408 614.199 183.232C615.951 185.032 616.827 187.288 616.827 190C616.827 190.768 616.755 191.488 616.611 192.16H603.831ZM603.723 188.128H611.463C610.935 186.232 609.663 185.284 607.647 185.284C605.559 185.284 604.251 186.232 603.723 188.128ZM633.318 189.784C634.926 190.648 635.73 192.004 635.73 193.852C635.73 195.388 635.19 196.636 634.11 197.596C633.054 198.532 631.554 199 629.61 199H619.89V181H628.89C630.834 181 632.334 181.48 633.39 182.44C634.47 183.376 635.01 184.612 635.01 186.148C635.01 187.732 634.446 188.944 633.318 189.784ZM628.314 185.32H624.93V187.84H628.314C629.37 187.84 629.898 187.432 629.898 186.616C629.898 185.752 629.37 185.32 628.314 185.32ZM628.89 194.536C629.946 194.536 630.474 194.092 630.474 193.204C630.474 192.364 629.946 191.944 628.89 191.944H624.93V194.536H628.89ZM649.182 180.496C651.558 180.496 653.586 181.42 655.266 183.268C656.946 185.092 657.786 187.336 657.786 190C657.786 192.664 656.946 194.92 655.266 196.768C653.586 198.592 651.558 199.504 649.182 199.504C646.878 199.504 645.09 198.772 643.818 197.308V206.2H638.418V181H643.818V182.692C645.09 181.228 646.878 180.496 649.182 180.496ZM645.006 193.204C645.822 193.996 646.854 194.392 648.102 194.392C649.35 194.392 650.37 193.996 651.162 193.204C651.978 192.412 652.386 191.344 652.386 190C652.386 188.656 651.978 187.588 651.162 186.796C650.37 186.004 649.35 185.608 648.102 185.608C646.854 185.608 645.822 186.004 645.006 186.796C644.214 187.588 643.818 188.656 643.818 190C643.818 191.344 644.214 192.412 645.006 193.204ZM673.915 181H679.315V199H673.915V197.308C672.643 198.772 670.855 199.504 668.551 199.504C666.175 199.504 664.147 198.592 662.467 196.768C660.787 194.92 659.947 192.664 659.947 190C659.947 187.336 660.787 185.092 662.467 183.268C664.147 181.42 666.175 180.496 668.551 180.496C670.855 180.496 672.643 181.228 673.915 182.692V181ZM666.535 193.204C667.327 193.996 668.359 194.392 669.631 194.392C670.903 194.392 671.935 193.996 672.727 193.204C673.519 192.412 673.915 191.344 673.915 190C673.915 188.656 673.519 187.588 672.727 186.796C671.935 186.004 670.903 185.608 669.631 185.608C668.359 185.608 667.327 186.004 666.535 186.796C665.743 187.588 665.347 188.656 665.347 190C665.347 191.344 665.743 192.412 666.535 193.204ZM698.937 181V199H693.537V186.184H689.649V191.548C689.649 194.284 688.965 196.288 687.597 197.56C686.253 198.832 684.273 199.312 681.657 199V193.96C682.497 194.2 683.133 194.08 683.565 193.6C684.021 193.12 684.249 192.316 684.249 191.188V181H698.937ZM717.834 181V199H712.578V193.816H711.462L707.754 199H701.634L705.846 193.06C704.766 192.508 703.914 191.716 703.29 190.684C702.666 189.652 702.354 188.56 702.354 187.408C702.354 185.704 702.954 184.216 704.154 182.944C705.354 181.648 706.986 181 709.05 181H717.834ZM709.518 185.752C708.942 185.752 708.474 185.92 708.114 186.256C707.778 186.568 707.61 187.012 707.61 187.588C707.61 188.14 707.778 188.572 708.114 188.884C708.474 189.196 708.942 189.352 709.518 189.352H712.578V185.752H709.518Z" fill="white"/>
<path d="M609.95 51H630.95V156H606.95V76.35L588.35 81.45L582.5 60.9L609.95 51ZM722.498 85.95C722.498 94.05 720.448 101.15 716.348 107.25L684.248 156H656.648L679.448 122.85C669.048 122.05 660.598 118.25 654.098 111.45C647.698 104.65 644.498 96.15 644.498 85.95C644.498 75.05 648.098 66.15 655.298 59.25C662.598 52.35 671.998 48.9 683.498 48.9C695.098 48.9 704.498 52.35 711.698 59.25C718.898 66.15 722.498 75.05 722.498 85.95ZM672.848 75.45C669.948 78.05 668.498 81.55 668.498 85.95C668.498 90.35 669.948 93.9 672.848 96.6C675.748 99.2 679.298 100.5 683.498 100.5C687.698 100.5 691.248 99.2 694.148 96.6C697.048 94 698.498 90.45 698.498 85.95C698.498 81.45 697.048 77.9 694.148 75.3C691.248 72.7 687.698 71.4 683.498 71.4C679.298 71.4 675.748 72.75 672.848 75.45Z" fill="white"/>
<path d="M563.478 270.588C564.483 270.969 565.263 271.55 565.818 272.33C566.373 273.11 566.65 274.029 566.65 275.086C566.65 276.611 566.078 277.868 564.934 278.856C563.807 279.827 562.282 280.312 560.358 280.312C558.625 280.312 557.238 279.922 556.198 279.142C555.158 278.362 554.439 277.383 554.04 276.204L555.6 275.32C555.825 276.239 556.311 277.019 557.056 277.66C557.819 278.284 558.919 278.596 560.358 278.596C561.779 278.596 562.88 278.275 563.66 277.634C564.44 276.975 564.83 276.126 564.83 275.086C564.83 274.046 564.466 273.205 563.738 272.564C563.027 271.905 562.039 271.576 560.774 271.576H558.694V269.86H560.124C561.355 269.86 562.334 269.548 563.062 268.924C563.79 268.3 564.154 267.494 564.154 266.506C564.154 265.535 563.799 264.747 563.088 264.14C562.395 263.516 561.441 263.204 560.228 263.204C557.992 263.204 556.519 264.157 555.808 266.064L554.3 265.18C554.751 264.071 555.461 263.178 556.432 262.502C557.42 261.826 558.685 261.488 560.228 261.488C561.944 261.488 563.331 261.973 564.388 262.944C565.445 263.897 565.974 265.093 565.974 266.532C565.974 268.352 565.142 269.704 563.478 270.588ZM580.701 267H582.417V280H580.701V277.452C579.505 279.359 577.755 280.312 575.449 280.312C573.595 280.312 572.009 279.653 570.691 278.336C569.391 277.019 568.741 275.407 568.741 273.5C568.741 271.593 569.391 269.981 570.691 268.664C572.009 267.347 573.595 266.688 575.449 266.688C577.755 266.688 579.505 267.641 580.701 269.548V267ZM571.939 277.166C572.927 278.154 574.141 278.648 575.579 278.648C577.018 278.648 578.231 278.154 579.219 277.166C580.207 276.161 580.701 274.939 580.701 273.5C580.701 272.061 580.207 270.848 579.219 269.86C578.231 268.855 577.018 268.352 575.579 268.352C574.141 268.352 572.927 268.855 571.939 269.86C570.951 270.848 570.457 272.061 570.457 273.5C570.457 274.939 570.951 276.161 571.939 277.166ZM596.97 267V280H595.254V268.664H587.766V280H586.05V267H596.97ZM609.959 267H611.779L606.215 281.196C605.713 282.479 604.993 283.484 604.057 284.212C603.139 284.957 602.107 285.287 600.963 285.2V283.588C602.523 283.761 603.711 282.86 604.525 280.884L604.863 280.078L599.039 267H600.859L605.747 277.894L609.959 267ZM619.403 280.312C617.445 280.312 615.815 279.662 614.515 278.362C613.215 277.045 612.565 275.424 612.565 273.5C612.565 271.576 613.215 269.964 614.515 268.664C615.815 267.347 617.445 266.688 619.403 266.688C620.686 266.688 621.839 267 622.861 267.624C623.884 268.231 624.629 269.054 625.097 270.094L623.693 270.9C623.347 270.12 622.783 269.505 622.003 269.054C621.241 268.586 620.374 268.352 619.403 268.352C617.965 268.352 616.751 268.855 615.763 269.86C614.775 270.848 614.281 272.061 614.281 273.5C614.281 274.939 614.775 276.161 615.763 277.166C616.751 278.154 617.965 278.648 619.403 278.648C620.374 278.648 621.241 278.423 622.003 277.972C622.766 277.504 623.364 276.88 623.797 276.1L625.227 276.932C624.69 277.972 623.901 278.795 622.861 279.402C621.821 280.009 620.669 280.312 619.403 280.312ZM638.195 280H635.907L629.407 273.734V280H627.691V267H629.407V272.746L635.595 267H637.935L631.227 273.24L638.195 280ZM659.727 268.872C660.975 270.137 661.599 271.68 661.599 273.5C661.599 275.32 660.975 276.863 659.727 278.128C658.479 279.393 656.832 280.113 654.787 280.286V285.2H653.071V280.286C651.025 280.113 649.379 279.393 648.131 278.128C646.883 276.863 646.259 275.32 646.259 273.5C646.259 271.68 646.883 270.137 648.131 268.872C649.379 267.607 651.025 266.887 653.071 266.714V261.8H654.787V266.714C656.832 266.887 658.479 267.607 659.727 268.872ZM649.353 270.068C648.434 271.004 647.975 272.148 647.975 273.5C647.975 274.852 648.434 276.005 649.353 276.958C650.271 277.894 651.511 278.44 653.071 278.596V268.404C651.511 268.56 650.271 269.115 649.353 270.068ZM654.787 278.596C656.347 278.44 657.586 277.894 658.505 276.958C659.423 276.005 659.883 274.852 659.883 273.5C659.883 272.148 659.423 271.004 658.505 270.068C657.586 269.115 656.347 268.56 654.787 268.404V278.596ZM675.351 278.362C674.033 279.662 672.421 280.312 670.515 280.312C668.608 280.312 666.987 279.662 665.653 278.362C664.335 277.045 663.677 275.424 663.677 273.5C663.677 271.576 664.335 269.964 665.653 268.664C666.987 267.347 668.608 266.688 670.515 266.688C672.421 266.688 674.033 267.347 675.351 268.664C676.685 269.964 677.353 271.576 677.353 273.5C677.353 275.424 676.685 277.045 675.351 278.362ZM666.875 277.166C667.863 278.154 669.076 278.648 670.515 278.648C671.953 278.648 673.167 278.154 674.155 277.166C675.143 276.161 675.637 274.939 675.637 273.5C675.637 272.061 675.143 270.848 674.155 269.86C673.167 268.855 671.953 268.352 670.515 268.352C669.076 268.352 667.863 268.855 666.875 269.86C665.887 270.848 665.393 272.061 665.393 273.5C665.393 274.939 665.887 276.161 666.875 277.166ZM687.192 266.688C689.047 266.688 690.624 267.347 691.924 268.664C693.242 269.981 693.9 271.593 693.9 273.5C693.9 275.407 693.242 277.019 691.924 278.336C690.624 279.653 689.047 280.312 687.192 280.312C684.887 280.312 683.136 279.359 681.94 277.452V285.2H680.224V267H681.94V269.548C683.136 267.641 684.887 266.688 687.192 266.688ZM683.422 277.166C684.41 278.154 685.624 278.648 687.062 278.648C688.501 278.648 689.714 278.154 690.702 277.166C691.69 276.161 692.184 274.939 692.184 273.5C692.184 272.061 691.69 270.848 690.702 269.86C689.714 268.855 688.501 268.352 687.062 268.352C685.624 268.352 684.41 268.855 683.422 269.86C682.434 270.848 681.94 272.061 681.94 273.5C681.94 274.939 682.434 276.161 683.422 277.166ZM705.606 267H707.426L701.862 281.196C701.359 282.479 700.64 283.484 699.704 284.212C698.785 284.957 697.754 285.287 696.61 285.2V283.588C698.17 283.761 699.357 282.86 700.172 280.884L700.51 280.078L694.686 267H696.506L701.394 277.894L705.606 267ZM722.24 267V280H720.524V269.626L715.974 277.01H715.766L711.216 269.626V280H709.5V267H711.476L715.87 274.124L720.264 267H722.24ZM736.771 278.362C735.453 279.662 733.841 280.312 731.935 280.312C730.028 280.312 728.407 279.662 727.073 278.362C725.755 277.045 725.097 275.424 725.097 273.5C725.097 271.576 725.755 269.964 727.073 268.664C728.407 267.347 730.028 266.688 731.935 266.688C733.841 266.688 735.453 267.347 736.771 268.664C738.105 269.964 738.773 271.576 738.773 273.5C738.773 275.424 738.105 277.045 736.771 278.362ZM728.295 277.166C729.283 278.154 730.496 278.648 731.935 278.648C733.373 278.648 734.587 278.154 735.575 277.166C736.563 276.161 737.057 274.939 737.057 273.5C737.057 272.061 736.563 270.848 735.575 269.86C734.587 268.855 733.373 268.352 731.935 268.352C730.496 268.352 729.283 268.855 728.295 269.86C727.307 270.848 726.813 272.061 726.813 273.5C726.813 274.939 727.307 276.161 728.295 277.166ZM749.912 273.318C751.334 273.838 752.044 274.852 752.044 276.36C752.044 277.417 751.689 278.293 750.978 278.986C750.285 279.662 749.28 280 747.962 280H741.644V267H747.442C748.708 267 749.687 267.329 750.38 267.988C751.074 268.629 751.42 269.461 751.42 270.484C751.42 271.784 750.918 272.729 749.912 273.318ZM747.442 268.664H743.36V272.616H747.442C748.95 272.616 749.704 271.94 749.704 270.588C749.704 269.981 749.505 269.513 749.106 269.184C748.725 268.837 748.17 268.664 747.442 268.664ZM747.962 278.336C748.725 278.336 749.306 278.154 749.704 277.79C750.12 277.426 750.328 276.915 750.328 276.256C750.328 275.649 750.12 275.173 749.704 274.826C749.306 274.462 748.725 274.28 747.962 274.28H743.36V278.336H747.962Z" fill="white"/>
<circle cx="509" cy="274" r="11" stroke="white" stroke-width="2"/>
<path d="M425 507.151H435M430 502V512" stroke="white" stroke-width="2" stroke-linecap="round" stroke-linejoin="round"/>
<path d="M476 389L825 389" stroke="#E18370"/>
<path d="M486.803 358V367H485.615V359.152H480.431V367H479.243V358H486.803Z" fill="black"/>
<path d="M539.511 362.374C540.495 362.734 540.987 363.436 540.987 364.48C540.987 365.212 540.741 365.818 540.249 366.298C539.769 366.766 539.073 367 538.161 367H533.787V358H537.801C538.677 358 539.355 358.228 539.835 358.684C540.315 359.128 540.555 359.704 540.555 360.412C540.555 361.312 540.207 361.966 539.511 362.374ZM537.801 359.152H534.975V361.888H537.801C538.845 361.888 539.367 361.42 539.367 360.484C539.367 360.064 539.229 359.74 538.953 359.512C538.689 359.272 538.305 359.152 537.801 359.152ZM538.161 365.848C538.689 365.848 539.091 365.722 539.367 365.47C539.655 365.218 539.799 364.864 539.799 364.408C539.799 363.988 539.655 363.658 539.367 363.418C539.091 363.166 538.689 363.04 538.161 363.04H534.975V365.848H538.161Z" fill="black"/>
<path d="M593.048 367.216C591.692 367.216 590.564 366.766 589.664 365.866C588.764 364.954 588.314 363.832 588.314 362.5C588.314 361.168 588.764 360.052 589.664 359.152C590.564 358.24 591.692 357.784 593.048 357.784C593.936 357.784 594.734 358 595.442 358.432C596.15 358.852 596.666 359.422 596.99 360.142L596.018 360.7C595.778 360.16 595.388 359.734 594.848 359.422C594.32 359.098 593.72 358.936 593.048 358.936C592.052 358.936 591.212 359.284 590.528 359.98C589.844 360.664 589.502 361.504 589.502 362.5C589.502 363.496 589.844 364.342 590.528 365.038C591.212 365.722 592.052 366.064 593.048 366.064C593.72 366.064 594.32 365.908 594.848 365.596C595.376 365.272 595.79 364.84 596.09 364.3L597.08 364.876C596.708 365.596 596.162 366.166 595.442 366.586C594.722 367.006 593.924 367.216 593.048 367.216Z" fill="black"/>
<path d="M650.413 358H651.601V367H650.413V363.58C649.717 363.94 648.859 364.12 647.839 364.12C646.663 364.12 645.763 363.85 645.139 363.31C644.527 362.758 644.221 361.948 644.221 360.88V358H645.409V360.88C645.409 361.636 645.607 362.182 646.003 362.518C646.399 362.842 646.999 363.004 647.803 363.004C648.739 363.004 649.609 362.83 650.413 362.482V358Z" fill="black"/>
<path d="M708.326 358V367H707.138V359.152H701.954V367H700.766V358H708.326Z" fill="black"/>
<path d="M760.258 367.216C758.902 367.216 757.774 366.766 756.874 365.866C755.974 364.954 755.524 363.832 755.524 362.5C755.524 361.168 755.974 360.052 756.874 359.152C757.774 358.24 758.902 357.784 760.258 357.784C761.146 357.784 761.944 358 762.652 358.432C763.36 358.852 763.876 359.422 764.2 360.142L763.228 360.7C762.988 360.16 762.598 359.734 762.058 359.422C761.53 359.098 760.93 358.936 760.258 358.936C759.262 358.936 758.422 359.284 757.738 359.98C757.054 360.664 756.712 361.504 756.712 362.5C756.712 363.496 757.054 364.342 757.738 365.038C758.422 365.722 759.262 366.064 760.258 366.064C760.93 366.064 761.53 365.908 762.058 365.596C762.586 365.272 763 364.84 763.3 364.3L764.29 364.876C763.918 365.596 763.372 366.166 762.652 366.586C761.932 367.006 761.134 367.216 760.258 367.216Z" fill="#E18370"/>
<path d="M818.398 362.374C819.382 362.734 819.874 363.436 819.874 364.48C819.874 365.212 819.628 365.818 819.136 366.298C818.656 366.766 817.96 367 817.048 367H812.674V358H816.688C817.564 358 818.242 358.228 818.722 358.684C819.202 359.128 819.442 359.704 819.442 360.412C819.442 361.312 819.094 361.966 818.398 362.374ZM816.688 359.152H813.862V361.888H816.688C817.732 361.888 818.254 361.42 818.254 360.484C818.254 360.064 818.116 359.74 817.84 359.512C817.576 359.272 817.192 359.152 816.688 359.152ZM817.048 365.848C817.576 365.848 817.978 365.722 818.254 365.47C818.542 365.218 818.686 364.864 818.686 364.408C818.686 363.988 818.542 363.658 818.254 363.418C817.978 363.166 817.576 363.04 817.048 363.04H813.862V365.848H817.048Z" fill="#E18370"/>
<path d="M482.441 420.4H483.521V433H482.261V421.786L479.435 422.632L479.111 421.552L482.441 420.4Z" fill="black"/>
<path d="M532.204 433V431.866L536.74 427.294C538.036 425.998 538.684 424.888 538.684 423.964C538.684 423.16 538.432 422.536 537.928 422.092C537.436 421.636 536.842 421.408 536.146 421.408C534.85 421.408 533.908 422.002 533.32 423.19L532.258 422.56C532.654 421.78 533.194 421.192 533.878 420.796C534.562 420.388 535.318 420.184 536.146 420.184C537.154 420.184 538.036 420.526 538.792 421.21C539.56 421.882 539.944 422.8 539.944 423.964C539.944 424.696 539.74 425.398 539.332 426.07C538.924 426.742 538.348 427.45 537.604 428.194L534.004 431.776H540.214V433H532.204Z" fill="black"/>
<path d="M592.015 425.638C593.023 425.77 593.851 426.16 594.499 426.808C595.159 427.444 595.489 428.29 595.489 429.346C595.489 430.546 595.075 431.494 594.247 432.19C593.431 432.874 592.435 433.216 591.259 433.216C590.323 433.216 589.489 433 588.757 432.568C588.025 432.136 587.509 431.518 587.209 430.714L588.253 430.102C588.457 430.726 588.823 431.2 589.351 431.524C589.879 431.836 590.515 431.992 591.259 431.992C592.123 431.992 592.831 431.764 593.383 431.308C593.947 430.84 594.229 430.186 594.229 429.346C594.229 428.506 593.947 427.858 593.383 427.402C592.831 426.934 592.123 426.7 591.259 426.7V426.682L591.241 426.7H590.899L590.359 425.872L593.491 421.588H587.569V420.4H594.949V421.588L592.015 425.638Z" fill="black"/>
<path d="M652.049 429.292V430.48H650.429V433H649.169V430.48H642.509V429.292L647.189 420.4H648.575L643.895 429.292H649.169V425.44H650.429V429.292H652.049Z" fill="black"/>
<path d="M703.028 425.476C704.204 425.476 705.2 425.824 706.016 426.52C706.844 427.204 707.258 428.146 707.258 429.346C707.258 430.546 706.844 431.494 706.016 432.19C705.2 432.874 704.204 433.216 703.028 433.216C702.08 433.216 701.234 432.988 700.49 432.532C699.746 432.064 699.242 431.398 698.978 430.534L700.04 429.922C700.22 430.594 700.574 431.11 701.102 431.47C701.642 431.818 702.284 431.992 703.028 431.992C703.892 431.992 704.6 431.764 705.152 431.308C705.716 430.84 705.998 430.186 705.998 429.346C705.998 428.506 705.716 427.858 705.152 427.402C704.6 426.934 703.892 426.7 703.028 426.7H699.608L700.058 420.4H706.808V421.588H701.174L700.904 425.476H703.028Z" fill="black"/>
<path d="M758.649 424.9C759.885 424.9 760.899 425.29 761.691 426.07C762.483 426.838 762.879 427.834 762.879 429.058C762.879 430.282 762.483 431.284 761.691 432.064C760.899 432.832 759.885 433.216 758.649 433.216C757.413 433.216 756.399 432.832 755.607 432.064C754.815 431.284 754.419 430.282 754.419 429.058C754.419 428.11 754.677 427.27 755.193 426.538L759.315 420.4H760.737L757.641 425.008C757.965 424.936 758.301 424.9 758.649 424.9ZM756.489 431.182C757.041 431.722 757.761 431.992 758.649 431.992C759.537 431.992 760.251 431.722 760.791 431.182C761.343 430.642 761.619 429.934 761.619 429.058C761.619 428.182 761.343 427.474 760.791 426.934C760.251 426.394 759.537 426.124 758.649 426.124C757.761 426.124 757.041 426.394 756.489 426.934C755.949 427.474 755.679 428.182 755.679 429.058C755.679 429.934 755.949 430.642 756.489 431.182Z" fill="black"/>
<path d="M810.743 420.4H818.483V421.588L813.731 433H812.417L817.169 421.588H810.743V420.4Z" fill="black"/>
<path d="M483.72 467.62C484.356 467.92 484.86 468.34 485.232 468.88C485.616 469.408 485.808 470.014 485.808 470.698C485.808 471.838 485.406 472.732 484.602 473.38C483.798 474.016 482.796 474.334 481.596 474.334C480.396 474.334 479.394 474.016 478.59 473.38C477.786 472.732 477.384 471.838 477.384 470.698C477.384 470.014 477.57 469.408 477.942 468.88C478.326 468.34 478.836 467.92 479.472 467.62C478.356 466.984 477.798 466.042 477.798 464.794C477.798 463.666 478.17 462.802 478.914 462.202C479.67 461.602 480.564 461.302 481.596 461.302C482.628 461.302 483.516 461.602 484.26 462.202C485.016 462.802 485.394 463.666 485.394 464.794C485.394 466.042 484.836 466.984 483.72 467.62ZM483.396 463.084C482.916 462.712 482.316 462.526 481.596 462.526C480.876 462.526 480.27 462.712 479.778 463.084C479.298 463.456 479.058 464.026 479.058 464.794C479.058 465.514 479.304 466.072 479.796 466.468C480.3 466.864 480.9 467.062 481.596 467.062C482.292 467.062 482.886 466.864 483.378 466.468C483.882 466.072 484.134 465.514 484.134 464.794C484.134 464.026 483.888 463.456 483.396 463.084ZM479.454 472.498C479.994 472.906 480.708 473.11 481.596 473.11C482.484 473.11 483.198 472.906 483.738 472.498C484.278 472.078 484.548 471.478 484.548 470.698C484.548 469.918 484.278 469.324 483.738 468.916C483.198 468.496 482.484 468.286 481.596 468.286C480.708 468.286 479.994 468.496 479.454 468.916C478.914 469.324 478.644 469.918 478.644 470.698C478.644 471.478 478.914 472.078 479.454 472.498Z" fill="black"/>
<path d="M540.135 465.46C540.135 466.408 539.877 467.248 539.361 467.98L535.239 474.118H533.817L536.913 469.51C536.589 469.582 536.253 469.618 535.905 469.618C534.669 469.618 533.655 469.234 532.863 468.466C532.071 467.686 531.675 466.684 531.675 465.46C531.675 464.236 532.071 463.24 532.863 462.472C533.655 461.692 534.669 461.302 535.905 461.302C537.141 461.302 538.155 461.692 538.947 462.472C539.739 463.24 540.135 464.236 540.135 465.46ZM533.745 463.336C533.205 463.876 532.935 464.584 532.935 465.46C532.935 466.336 533.205 467.044 533.745 467.584C534.297 468.124 535.017 468.394 535.905 468.394C536.793 468.394 537.507 468.124 538.047 467.584C538.599 467.044 538.875 466.336 538.875 465.46C538.875 464.584 538.599 463.876 538.047 463.336C537.507 462.796 536.793 462.526 535.905 462.526C535.017 462.526 534.297 462.796 533.745 463.336Z" fill="black"/>
<path d="M586.619 461.518H587.699V474.118H586.439V462.904L583.613 463.75L583.289 462.67L586.619 461.518ZM598.316 472.57C597.488 473.746 596.318 474.334 594.806 474.334C593.294 474.334 592.118 473.746 591.278 472.57C590.45 471.382 590.036 469.798 590.036 467.818C590.036 465.838 590.45 464.26 591.278 463.084C592.118 461.896 593.294 461.302 594.806 461.302C596.318 461.302 597.488 461.896 598.316 463.084C599.156 464.26 599.576 465.838 599.576 467.818C599.576 469.798 599.156 471.382 598.316 472.57ZM592.214 471.724C592.838 472.648 593.702 473.11 594.806 473.11C595.91 473.11 596.768 472.648 597.38 471.724C598.004 470.8 598.316 469.498 598.316 467.818C598.316 466.138 598.004 464.836 597.38 463.912C596.768 462.988 595.91 462.526 594.806 462.526C593.702 462.526 592.838 462.988 592.214 463.912C591.602 464.836 591.296 466.138 591.296 467.818C591.296 469.498 591.602 470.8 592.214 471.724Z" fill="black"/>
<path d="M644.762 461.518H645.842V474.118H644.582V462.904L641.756 463.75L641.432 462.67L644.762 461.518ZM650.879 461.518H651.959V474.118H650.699V462.904L647.873 463.75L647.549 462.67L650.879 461.518Z" fill="black"/>
<path d="M698.931 461.518H700.011V474.118H698.751V462.904L695.925 463.75L695.601 462.67L698.931 461.518ZM702.168 474.118V472.984L706.704 468.412C708 467.116 708.648 466.006 708.648 465.082C708.648 464.278 708.396 463.654 707.892 463.21C707.4 462.754 706.806 462.526 706.11 462.526C704.814 462.526 703.872 463.12 703.284 464.308L702.222 463.678C702.618 462.898 703.158 462.31 703.842 461.914C704.526 461.506 705.282 461.302 706.11 461.302C707.118 461.302 708 461.644 708.756 462.328C709.524 463 709.908 463.918 709.908 465.082C709.908 465.814 709.704 466.516 709.296 467.188C708.888 467.86 708.312 468.568 707.568 469.312L703.968 472.894H710.178V474.118H702.168Z" fill="black"/>
<path d="M754.42 461.518H755.5V474.118H754.24V462.904L751.414 463.75L751.09 462.67L754.42 461.518ZM762.283 466.756C763.291 466.888 764.119 467.278 764.767 467.926C765.427 468.562 765.757 469.408 765.757 470.464C765.757 471.664 765.343 472.612 764.515 473.308C763.699 473.992 762.703 474.334 761.527 474.334C760.591 474.334 759.757 474.118 759.025 473.686C758.293 473.254 757.777 472.636 757.477 471.832L758.521 471.22C758.725 471.844 759.091 472.318 759.619 472.642C760.147 472.954 760.783 473.11 761.527 473.11C762.391 473.11 763.099 472.882 763.651 472.426C764.215 471.958 764.497 471.304 764.497 470.464C764.497 469.624 764.215 468.976 763.651 468.52C763.099 468.052 762.391 467.818 761.527 467.818V467.8L761.509 467.818H761.167L760.627 466.99L763.759 462.706H757.837V461.518H765.217V462.706L762.283 466.756Z" fill="black"/>
<path d="M810.116 461.518H811.196V474.118H809.936V462.904L807.11 463.75L806.786 462.67L810.116 461.518ZM822.623 470.41V471.598H821.003V474.118H819.743V471.598H813.083V470.41L817.763 461.518H819.149L814.469 470.41H819.743V466.558H821.003V470.41H822.623Z" fill="black"/>
<path d="M477.276 502.635H478.356V515.235H477.096V504.021L474.27 504.867L473.946 503.787L477.276 502.635ZM484.563 507.711C485.739 507.711 486.735 508.059 487.551 508.755C488.379 509.439 488.793 510.381 488.793 511.581C488.793 512.781 488.379 513.729 487.551 514.425C486.735 515.109 485.739 515.451 484.563 515.451C483.615 515.451 482.769 515.223 482.025 514.767C481.281 514.299 480.777 513.633 480.513 512.769L481.575 512.157C481.755 512.829 482.109 513.345 482.637 513.705C483.177 514.053 483.819 514.227 484.563 514.227C485.427 514.227 486.135 513.999 486.687 513.543C487.251 513.075 487.533 512.421 487.533 511.581C487.533 510.741 487.251 510.093 486.687 509.637C486.135 509.169 485.427 508.935 484.563 508.935H481.143L481.593 502.635H488.343V503.823H482.709L482.439 507.711H484.563Z" fill="black"/>
<path d="M531.677 502.635H532.757V515.235H531.497V504.021L528.671 504.867L528.347 503.787L531.677 502.635ZM538.964 507.135C540.2 507.135 541.214 507.525 542.006 508.305C542.798 509.073 543.194 510.069 543.194 511.293C543.194 512.517 542.798 513.519 542.006 514.299C541.214 515.067 540.2 515.451 538.964 515.451C537.728 515.451 536.714 515.067 535.922 514.299C535.13 513.519 534.734 512.517 534.734 511.293C534.734 510.345 534.992 509.505 535.508 508.773L539.63 502.635H541.052L537.956 507.243C538.28 507.171 538.616 507.135 538.964 507.135ZM536.804 513.417C537.356 513.957 538.076 514.227 538.964 514.227C539.852 514.227 540.566 513.957 541.106 513.417C541.658 512.877 541.934 512.169 541.934 511.293C541.934 510.417 541.658 509.709 541.106 509.169C540.566 508.629 539.852 508.359 538.964 508.359C538.076 508.359 537.356 508.629 536.804 509.169C536.264 509.709 535.994 510.417 535.994 511.293C535.994 512.169 536.264 512.877 536.804 513.417Z" fill="black"/>
<ellipse cx="702.86" cy="509.272" rx="15.8597" ry="15.2723" fill="#E18370" fill-opacity="0.85"/>
<path d="M587.57 502.635H588.65V515.235H587.39V504.021L584.564 504.867L584.24 503.787L587.57 502.635ZM590.447 502.635H598.187V503.823L593.435 515.235H592.121L596.873 503.823H590.447V502.635Z" fill="black"/>
<path d="M642.585 502.635H643.665V515.235H642.405V504.021L639.579 504.867L639.255 503.787L642.585 502.635ZM652.158 508.737C652.794 509.037 653.298 509.457 653.67 509.997C654.054 510.525 654.246 511.131 654.246 511.815C654.246 512.955 653.844 513.849 653.04 514.497C652.236 515.133 651.234 515.451 650.034 515.451C648.834 515.451 647.832 515.133 647.028 514.497C646.224 513.849 645.822 512.955 645.822 511.815C645.822 511.131 646.008 510.525 646.38 509.997C646.764 509.457 647.274 509.037 647.91 508.737C646.794 508.101 646.236 507.159 646.236 505.911C646.236 504.783 646.608 503.919 647.352 503.319C648.108 502.719 649.002 502.419 650.034 502.419C651.066 502.419 651.954 502.719 652.698 503.319C653.454 503.919 653.832 504.783 653.832 505.911C653.832 507.159 653.274 508.101 652.158 508.737ZM651.834 504.201C651.354 503.829 650.754 503.643 650.034 503.643C649.314 503.643 648.708 503.829 648.216 504.201C647.736 504.573 647.496 505.143 647.496 505.911C647.496 506.631 647.742 507.189 648.234 507.585C648.738 507.981 649.338 508.179 650.034 508.179C650.73 508.179 651.324 507.981 651.816 507.585C652.32 507.189 652.572 506.631 652.572 505.911C652.572 505.143 652.326 504.573 651.834 504.201ZM647.892 513.615C648.432 514.023 649.146 514.227 650.034 514.227C650.922 514.227 651.636 514.023 652.176 513.615C652.716 513.195 652.986 512.595 652.986 511.815C652.986 511.035 652.716 510.441 652.176 510.033C651.636 509.613 650.922 509.403 650.034 509.403C649.146 509.403 648.432 509.613 647.892 510.033C647.352 510.441 647.082 511.035 647.082 511.815C647.082 512.595 647.352 513.195 647.892 513.615Z" fill="black"/>
<path d="M698.887 502.635H699.967V515.235H698.707V504.021L695.881 504.867L695.557 503.787L698.887 502.635ZM710.404 506.577C710.404 507.525 710.146 508.365 709.63 509.097L705.508 515.235H704.086L707.182 510.627C706.858 510.699 706.522 510.735 706.174 510.735C704.938 510.735 703.924 510.351 703.132 509.583C702.34 508.803 701.944 507.801 701.944 506.577C701.944 505.353 702.34 504.357 703.132 503.589C703.924 502.809 704.938 502.419 706.174 502.419C707.41 502.419 708.424 502.809 709.216 503.589C710.008 504.357 710.404 505.353 710.404 506.577ZM704.014 504.453C703.474 504.993 703.204 505.701 703.204 506.577C703.204 507.453 703.474 508.161 704.014 508.701C704.566 509.241 705.286 509.511 706.174 509.511C707.062 509.511 707.776 509.241 708.316 508.701C708.868 508.161 709.144 507.453 709.144 506.577C709.144 505.701 708.868 504.993 708.316 504.453C707.776 503.913 707.062 503.643 706.174 503.643C705.286 503.643 704.566 503.913 704.014 504.453Z" fill="black"/>
<path d="M749.062 515.235V514.101L753.598 509.529C754.894 508.233 755.542 507.123 755.542 506.199C755.542 505.395 755.29 504.771 754.786 504.327C754.294 503.871 753.7 503.643 753.004 503.643C751.708 503.643 750.766 504.237 750.178 505.425L749.116 504.795C749.512 504.015 750.052 503.427 750.736 503.031C751.42 502.623 752.176 502.419 753.004 502.419C754.012 502.419 754.894 502.761 755.65 503.445C756.418 504.117 756.802 505.035 756.802 506.199C756.802 506.931 756.598 507.633 756.19 508.305C755.782 508.977 755.206 509.685 754.462 510.429L750.862 514.011H757.072V515.235H749.062ZM766.803 513.687C765.975 514.863 764.805 515.451 763.293 515.451C761.781 515.451 760.605 514.863 759.765 513.687C758.937 512.499 758.523 510.915 758.523 508.935C758.523 506.955 758.937 505.377 759.765 504.201C760.605 503.013 761.781 502.419 763.293 502.419C764.805 502.419 765.975 503.013 766.803 504.201C767.643 505.377 768.063 506.955 768.063 508.935C768.063 510.915 767.643 512.499 766.803 513.687ZM760.701 512.841C761.325 513.765 762.189 514.227 763.293 514.227C764.397 514.227 765.255 513.765 765.867 512.841C766.491 511.917 766.803 510.615 766.803 508.935C766.803 507.255 766.491 505.953 765.867 505.029C765.255 504.105 764.397 503.643 763.293 503.643C762.189 503.643 761.325 504.105 760.701 505.029C760.089 505.953 759.783 507.255 759.783 508.935C759.783 510.615 760.089 511.917 760.701 512.841Z" fill="black"/>
<path d="M807.728 515.235V514.101L812.264 509.529C813.56 508.233 814.208 507.123 814.208 506.199C814.208 505.395 813.956 504.771 813.452 504.327C812.96 503.871 812.366 503.643 811.67 503.643C810.374 503.643 809.432 504.237 808.844 505.425L807.782 504.795C808.178 504.015 808.718 503.427 809.402 503.031C810.086 502.623 810.842 502.419 811.67 502.419C812.678 502.419 813.56 502.761 814.316 503.445C815.084 504.117 815.468 505.035 815.468 506.199C815.468 506.931 815.264 507.633 814.856 508.305C814.448 508.977 813.872 509.685 813.128 510.429L809.528 514.011H815.738V515.235H807.728ZM820.065 502.635H821.145V515.235H819.885V504.021L817.059 504.867L816.735 503.787L820.065 502.635Z" fill="black"/>
<path d="M472.858 557.246V556.112L477.394 551.54C478.69 550.244 479.338 549.134 479.338 548.21C479.338 547.406 479.086 546.782 478.582 546.338C478.09 545.882 477.496 545.654 476.8 545.654C475.504 545.654 474.562 546.248 473.974 547.436L472.912 546.806C473.308 546.026 473.848 545.438 474.532 545.042C475.216 544.634 475.972 544.43 476.8 544.43C477.808 544.43 478.69 544.772 479.446 545.456C480.214 546.128 480.598 547.046 480.598 548.21C480.598 548.942 480.394 549.644 479.986 550.316C479.578 550.988 479.002 551.696 478.258 552.44L474.658 556.022H480.868V557.246H472.858ZM482.315 557.246V556.112L486.851 551.54C488.147 550.244 488.795 549.134 488.795 548.21C488.795 547.406 488.543 546.782 488.039 546.338C487.547 545.882 486.953 545.654 486.257 545.654C484.961 545.654 484.019 546.248 483.431 547.436L482.369 546.806C482.765 546.026 483.305 545.438 483.989 545.042C484.673 544.634 485.429 544.43 486.257 544.43C487.265 544.43 488.147 544.772 488.903 545.456C489.671 546.128 490.055 547.046 490.055 548.21C490.055 548.942 489.851 549.644 489.443 550.316C489.035 550.988 488.459 551.696 487.715 552.44L484.115 556.022H490.325V557.246H482.315Z" fill="black"/>
<path d="M527.215 557.246V556.112L531.751 551.54C533.047 550.244 533.695 549.134 533.695 548.21C533.695 547.406 533.443 546.782 532.939 546.338C532.447 545.882 531.853 545.654 531.157 545.654C529.861 545.654 528.919 546.248 528.331 547.436L527.269 546.806C527.665 546.026 528.205 545.438 528.889 545.042C529.573 544.634 530.329 544.43 531.157 544.43C532.165 544.43 533.047 544.772 533.803 545.456C534.571 546.128 534.955 547.046 534.955 548.21C534.955 548.942 534.751 549.644 534.343 550.316C533.935 550.988 533.359 551.696 532.615 552.44L529.015 556.022H535.225V557.246H527.215ZM541.122 549.884C542.13 550.016 542.958 550.406 543.606 551.054C544.266 551.69 544.596 552.536 544.596 553.592C544.596 554.792 544.182 555.74 543.354 556.436C542.538 557.12 541.542 557.462 540.366 557.462C539.43 557.462 538.596 557.246 537.864 556.814C537.132 556.382 536.616 555.764 536.316 554.96L537.36 554.348C537.564 554.972 537.93 555.446 538.458 555.77C538.986 556.082 539.622 556.238 540.366 556.238C541.23 556.238 541.938 556.01 542.49 555.554C543.054 555.086 543.336 554.432 543.336 553.592C543.336 552.752 543.054 552.104 542.49 551.648C541.938 551.18 541.23 550.946 540.366 550.946V550.928L540.348 550.946H540.006L539.466 550.118L542.598 545.834H536.676V544.646H544.056V545.834L541.122 549.884Z" fill="black"/>
<path d="M582.388 557.246V556.112L586.924 551.54C588.22 550.244 588.868 549.134 588.868 548.21C588.868 547.406 588.616 546.782 588.112 546.338C587.62 545.882 587.026 545.654 586.33 545.654C585.034 545.654 584.092 546.248 583.504 547.436L582.442 546.806C582.838 546.026 583.378 545.438 584.062 545.042C584.746 544.634 585.502 544.43 586.33 544.43C587.338 544.43 588.22 544.772 588.976 545.456C589.744 546.128 590.128 547.046 590.128 548.21C590.128 548.942 589.924 549.644 589.516 550.316C589.108 550.988 588.532 551.696 587.788 552.44L584.188 556.022H590.398V557.246H582.388ZM600.763 553.538V554.726H599.143V557.246H597.883V554.726H591.223V553.538L595.903 544.646H597.289L592.609 553.538H597.883V549.686H599.143V553.538H600.763Z" fill="black"/>
<path d="M638.455 557.246V556.112L642.991 551.54C644.287 550.244 644.935 549.134 644.935 548.21C644.935 547.406 644.683 546.782 644.179 546.338C643.687 545.882 643.093 545.654 642.397 545.654C641.101 545.654 640.159 546.248 639.571 547.436L638.509 546.806C638.905 546.026 639.445 545.438 640.129 545.042C640.813 544.634 641.569 544.43 642.397 544.43C643.405 544.43 644.287 544.772 645.043 545.456C645.811 546.128 646.195 547.046 646.195 548.21C646.195 548.942 645.991 549.644 645.583 550.316C645.175 550.988 644.599 551.696 643.855 552.44L640.255 556.022H646.465V557.246H638.455ZM651.874 549.722C653.05 549.722 654.046 550.07 654.862 550.766C655.69 551.45 656.104 552.392 656.104 553.592C656.104 554.792 655.69 555.74 654.862 556.436C654.046 557.12 653.05 557.462 651.874 557.462C650.926 557.462 650.08 557.234 649.336 556.778C648.592 556.31 648.088 555.644 647.824 554.78L648.886 554.168C649.066 554.84 649.42 555.356 649.948 555.716C650.488 556.064 651.13 556.238 651.874 556.238C652.738 556.238 653.446 556.01 653.998 555.554C654.562 555.086 654.844 554.432 654.844 553.592C654.844 552.752 654.562 552.104 653.998 551.648C653.446 551.18 652.738 550.946 651.874 550.946H648.454L648.904 544.646H655.654V545.834H650.02L649.75 549.722H651.874Z" fill="black"/>
<path d="M694.513 557.246V556.112L699.049 551.54C700.345 550.244 700.993 549.134 700.993 548.21C700.993 547.406 700.741 546.782 700.237 546.338C699.745 545.882 699.151 545.654 698.455 545.654C697.159 545.654 696.217 546.248 695.629 547.436L694.567 546.806C694.963 546.026 695.503 545.438 696.187 545.042C696.871 544.634 697.627 544.43 698.455 544.43C699.463 544.43 700.345 544.772 701.101 545.456C701.869 546.128 702.253 547.046 702.253 548.21C702.253 548.942 702.049 549.644 701.641 550.316C701.233 550.988 700.657 551.696 699.913 552.44L696.313 556.022H702.523V557.246H694.513ZM707.668 549.146C708.904 549.146 709.918 549.536 710.71 550.316C711.502 551.084 711.898 552.08 711.898 553.304C711.898 554.528 711.502 555.53 710.71 556.31C709.918 557.078 708.904 557.462 707.668 557.462C706.432 557.462 705.418 557.078 704.626 556.31C703.834 555.53 703.438 554.528 703.438 553.304C703.438 552.356 703.696 551.516 704.212 550.784L708.334 544.646H709.756L706.66 549.254C706.984 549.182 707.32 549.146 707.668 549.146ZM705.508 555.428C706.06 555.968 706.78 556.238 707.668 556.238C708.556 556.238 709.27 555.968 709.81 555.428C710.362 554.888 710.638 554.18 710.638 553.304C710.638 552.428 710.362 551.72 709.81 551.18C709.27 550.64 708.556 550.37 707.668 550.37C706.78 550.37 706.06 550.64 705.508 551.18C704.968 551.72 704.698 552.428 704.698 553.304C704.698 554.18 704.968 554.888 705.508 555.428Z" fill="black"/>
<path d="M750.406 557.246V556.112L754.942 551.54C756.238 550.244 756.886 549.134 756.886 548.21C756.886 547.406 756.634 546.782 756.13 546.338C755.638 545.882 755.044 545.654 754.348 545.654C753.052 545.654 752.11 546.248 751.522 547.436L750.46 546.806C750.856 546.026 751.396 545.438 752.08 545.042C752.764 544.634 753.52 544.43 754.348 544.43C755.356 544.43 756.238 544.772 756.994 545.456C757.762 546.128 758.146 547.046 758.146 548.21C758.146 548.942 757.942 549.644 757.534 550.316C757.126 550.988 756.55 551.696 755.806 552.44L752.206 556.022H758.416V557.246H750.406ZM759.152 544.646H766.892V545.834L762.14 557.246H760.826L765.578 545.834H759.152V544.646Z" fill="black"/>
<path d="M806.205 557.246V556.112L810.741 551.54C812.037 550.244 812.685 549.134 812.685 548.21C812.685 547.406 812.433 546.782 811.929 546.338C811.437 545.882 810.843 545.654 810.147 545.654C808.851 545.654 807.909 546.248 807.321 547.436L806.259 546.806C806.655 546.026 807.195 545.438 807.879 545.042C808.563 544.634 809.319 544.43 810.147 544.43C811.155 544.43 812.037 544.772 812.793 545.456C813.561 546.128 813.945 547.046 813.945 548.21C813.945 548.942 813.741 549.644 813.333 550.316C812.925 550.988 812.349 551.696 811.605 552.44L808.005 556.022H814.215V557.246H806.205ZM821.91 550.748C822.546 551.048 823.05 551.468 823.422 552.008C823.806 552.536 823.998 553.142 823.998 553.826C823.998 554.966 823.596 555.86 822.792 556.508C821.988 557.144 820.986 557.462 819.786 557.462C818.586 557.462 817.584 557.144 816.78 556.508C815.976 555.86 815.574 554.966 815.574 553.826C815.574 553.142 815.76 552.536 816.132 552.008C816.516 551.468 817.026 551.048 817.662 550.748C816.546 550.112 815.988 549.17 815.988 547.922C815.988 546.794 816.36 545.93 817.104 545.33C817.86 544.73 818.754 544.43 819.786 544.43C820.818 544.43 821.706 544.73 822.45 545.33C823.206 545.93 823.584 546.794 823.584 547.922C823.584 549.17 823.026 550.112 821.91 550.748ZM821.586 546.212C821.106 545.84 820.506 545.654 819.786 545.654C819.066 545.654 818.46 545.84 817.968 546.212C817.488 546.584 817.248 547.154 817.248 547.922C817.248 548.642 817.494 549.2 817.986 549.596C818.49 549.992 819.09 550.19 819.786 550.19C820.482 550.19 821.076 549.992 821.568 549.596C822.072 549.2 822.324 548.642 822.324 547.922C822.324 547.154 822.078 546.584 821.586 546.212ZM817.644 555.626C818.184 556.034 818.898 556.238 819.786 556.238C820.674 556.238 821.388 556.034 821.928 555.626C822.468 555.206 822.738 554.606 822.738 553.826C822.738 553.046 822.468 552.452 821.928 552.044C821.388 551.624 820.674 551.414 819.786 551.414C818.898 551.414 818.184 551.624 817.644 552.044C817.104 552.452 816.834 553.046 816.834 553.826C816.834 554.606 817.104 555.206 817.644 555.626Z" fill="black"/>
<path d="M472.858 598.646V597.512L477.394 592.94C478.69 591.644 479.338 590.534 479.338 589.61C479.338 588.806 479.086 588.182 478.582 587.738C478.09 587.282 477.496 587.054 476.8 587.054C475.504 587.054 474.562 587.648 473.974 588.836L472.912 588.206C473.308 587.426 473.848 586.838 474.532 586.442C475.216 586.034 475.972 585.83 476.8 585.83C477.808 585.83 478.69 586.172 479.446 586.856C480.214 587.528 480.598 588.446 480.598 589.61C480.598 590.342 480.394 591.044 479.986 591.716C479.578 592.388 479.002 593.096 478.258 593.84L474.658 597.422H480.868V598.646H472.858ZM482.315 598.646V597.512L486.851 592.94C488.147 591.644 488.795 590.534 488.795 589.61C488.795 588.806 488.543 588.182 488.039 587.738C487.547 587.282 486.953 587.054 486.257 587.054C484.961 587.054 484.019 587.648 483.431 588.836L482.369 588.206C482.765 587.426 483.305 586.838 483.989 586.442C484.673 586.034 485.429 585.83 486.257 585.83C487.265 585.83 488.147 586.172 488.903 586.856C489.671 587.528 490.055 588.446 490.055 589.61C490.055 590.342 489.851 591.044 489.443 591.716C489.035 592.388 488.459 593.096 487.715 593.84L484.115 597.422H490.325V598.646H482.315Z" fill="black"/>
<path d="M527.215 598.646V597.512L531.751 592.94C533.047 591.644 533.695 590.534 533.695 589.61C533.695 588.806 533.443 588.182 532.939 587.738C532.447 587.282 531.853 587.054 531.157 587.054C529.861 587.054 528.919 587.648 528.331 588.836L527.269 588.206C527.665 587.426 528.205 586.838 528.889 586.442C529.573 586.034 530.329 585.83 531.157 585.83C532.165 585.83 533.047 586.172 533.803 586.856C534.571 587.528 534.955 588.446 534.955 589.61C534.955 590.342 534.751 591.044 534.343 591.716C533.935 592.388 533.359 593.096 532.615 593.84L529.015 597.422H535.225V598.646H527.215ZM541.122 591.284C542.13 591.416 542.958 591.806 543.606 592.454C544.266 593.09 544.596 593.936 544.596 594.992C544.596 596.192 544.182 597.14 543.354 597.836C542.538 598.52 541.542 598.862 540.366 598.862C539.43 598.862 538.596 598.646 537.864 598.214C537.132 597.782 536.616 597.164 536.316 596.36L537.36 595.748C537.564 596.372 537.93 596.846 538.458 597.17C538.986 597.482 539.622 597.638 540.366 597.638C541.23 597.638 541.938 597.41 542.49 596.954C543.054 596.486 543.336 595.832 543.336 594.992C543.336 594.152 543.054 593.504 542.49 593.048C541.938 592.58 541.23 592.346 540.366 592.346V592.328L540.348 592.346H540.006L539.466 591.518L542.598 587.234H536.676V586.046H544.056V587.234L541.122 591.284Z" fill="black"/>
<path d="M582.388 598.646V597.512L586.924 592.94C588.22 591.644 588.868 590.534 588.868 589.61C588.868 588.806 588.616 588.182 588.112 587.738C587.62 587.282 587.026 587.054 586.33 587.054C585.034 587.054 584.092 587.648 583.504 588.836L582.442 588.206C582.838 587.426 583.378 586.838 584.062 586.442C584.746 586.034 585.502 585.83 586.33 585.83C587.338 585.83 588.22 586.172 588.976 586.856C589.744 587.528 590.128 588.446 590.128 589.61C590.128 590.342 589.924 591.044 589.516 591.716C589.108 592.388 588.532 593.096 587.788 593.84L584.188 597.422H590.398V598.646H582.388ZM600.763 594.938V596.126H599.143V598.646H597.883V596.126H591.223V594.938L595.903 586.046H597.289L592.609 594.938H597.883V591.086H599.143V594.938H600.763Z" fill="black"/>
<path d="M638.455 598.646V597.512L642.991 592.94C644.287 591.644 644.935 590.534 644.935 589.61C644.935 588.806 644.683 588.182 644.179 587.738C643.687 587.282 643.093 587.054 642.397 587.054C641.101 587.054 640.159 587.648 639.571 588.836L638.509 588.206C638.905 587.426 639.445 586.838 640.129 586.442C640.813 586.034 641.569 585.83 642.397 585.83C643.405 585.83 644.287 586.172 645.043 586.856C645.811 587.528 646.195 588.446 646.195 589.61C646.195 590.342 645.991 591.044 645.583 591.716C645.175 592.388 644.599 593.096 643.855 593.84L640.255 597.422H646.465V598.646H638.455ZM651.874 591.122C653.05 591.122 654.046 591.47 654.862 592.166C655.69 592.85 656.104 593.792 656.104 594.992C656.104 596.192 655.69 597.14 654.862 597.836C654.046 598.52 653.05 598.862 651.874 598.862C650.926 598.862 650.08 598.634 649.336 598.178C648.592 597.71 648.088 597.044 647.824 596.18L648.886 595.568C649.066 596.24 649.42 596.756 649.948 597.116C650.488 597.464 651.13 597.638 651.874 597.638C652.738 597.638 653.446 597.41 653.998 596.954C654.562 596.486 654.844 595.832 654.844 594.992C654.844 594.152 654.562 593.504 653.998 593.048C653.446 592.58 652.738 592.346 651.874 592.346H648.454L648.904 586.046H655.654V587.234H650.02L649.75 591.122H651.874Z" fill="black"/>
<path d="M694.513 598.646V597.512L699.049 592.94C700.345 591.644 700.993 590.534 700.993 589.61C700.993 588.806 700.741 588.182 700.237 587.738C699.745 587.282 699.151 587.054 698.455 587.054C697.159 587.054 696.217 587.648 695.629 588.836L694.567 588.206C694.963 587.426 695.503 586.838 696.187 586.442C696.871 586.034 697.627 585.83 698.455 585.83C699.463 585.83 700.345 586.172 701.101 586.856C701.869 587.528 702.253 588.446 702.253 589.61C702.253 590.342 702.049 591.044 701.641 591.716C701.233 592.388 700.657 593.096 699.913 593.84L696.313 597.422H702.523V598.646H694.513ZM707.668 590.546C708.904 590.546 709.918 590.936 710.71 591.716C711.502 592.484 711.898 593.48 711.898 594.704C711.898 595.928 711.502 596.93 710.71 597.71C709.918 598.478 708.904 598.862 707.668 598.862C706.432 598.862 705.418 598.478 704.626 597.71C703.834 596.93 703.438 595.928 703.438 594.704C703.438 593.756 703.696 592.916 704.212 592.184L708.334 586.046H709.756L706.66 590.654C706.984 590.582 707.32 590.546 707.668 590.546ZM705.508 596.828C706.06 597.368 706.78 597.638 707.668 597.638C708.556 597.638 709.27 597.368 709.81 596.828C710.362 596.288 710.638 595.58 710.638 594.704C710.638 593.828 710.362 593.12 709.81 592.58C709.27 592.04 708.556 591.77 707.668 591.77C706.78 591.77 706.06 592.04 705.508 592.58C704.968 593.12 704.698 593.828 704.698 594.704C704.698 595.58 704.968 596.288 705.508 596.828Z" fill="black"/>
<path d="M750.406 598.646V597.512L754.942 592.94C756.238 591.644 756.886 590.534 756.886 589.61C756.886 588.806 756.634 588.182 756.13 587.738C755.638 587.282 755.044 587.054 754.348 587.054C753.052 587.054 752.11 587.648 751.522 588.836L750.46 588.206C750.856 587.426 751.396 586.838 752.08 586.442C752.764 586.034 753.52 585.83 754.348 585.83C755.356 585.83 756.238 586.172 756.994 586.856C757.762 587.528 758.146 588.446 758.146 589.61C758.146 590.342 757.942 591.044 757.534 591.716C757.126 592.388 756.55 593.096 755.806 593.84L752.206 597.422H758.416V598.646H750.406ZM759.152 586.046H766.892V587.234L762.14 598.646H760.826L765.578 587.234H759.152V586.046Z" fill="black"/>
<path d="M806.205 598.646V597.512L810.741 592.94C812.037 591.644 812.685 590.534 812.685 589.61C812.685 588.806 812.433 588.182 811.929 587.738C811.437 587.282 810.843 587.054 810.147 587.054C808.851 587.054 807.909 587.648 807.321 588.836L806.259 588.206C806.655 587.426 807.195 586.838 807.879 586.442C808.563 586.034 809.319 585.83 810.147 585.83C811.155 585.83 812.037 586.172 812.793 586.856C813.561 587.528 813.945 588.446 813.945 589.61C813.945 590.342 813.741 591.044 813.333 591.716C812.925 592.388 812.349 593.096 811.605 593.84L808.005 597.422H814.215V598.646H806.205ZM821.91 592.148C822.546 592.448 823.05 592.868 823.422 593.408C823.806 593.936 823.998 594.542 823.998 595.226C823.998 596.366 823.596 597.26 822.792 597.908C821.988 598.544 820.986 598.862 819.786 598.862C818.586 598.862 817.584 598.544 816.78 597.908C815.976 597.26 815.574 596.366 815.574 595.226C815.574 594.542 815.76 593.936 816.132 593.408C816.516 592.868 817.026 592.448 817.662 592.148C816.546 591.512 815.988 590.57 815.988 589.322C815.988 588.194 816.36 587.33 817.104 586.73C817.86 586.13 818.754 585.83 819.786 585.83C820.818 585.83 821.706 586.13 822.45 586.73C823.206 587.33 823.584 588.194 823.584 589.322C823.584 590.57 823.026 591.512 821.91 592.148ZM821.586 587.612C821.106 587.24 820.506 587.054 819.786 587.054C819.066 587.054 818.46 587.24 817.968 587.612C817.488 587.984 817.248 588.554 817.248 589.322C817.248 590.042 817.494 590.6 817.986 590.996C818.49 591.392 819.09 591.59 819.786 591.59C820.482 591.59 821.076 591.392 821.568 590.996C822.072 590.6 822.324 590.042 822.324 589.322C822.324 588.554 822.078 587.984 821.586 587.612ZM817.644 597.026C818.184 597.434 818.898 597.638 819.786 597.638C820.674 597.638 821.388 597.434 821.928 597.026C822.468 596.606 822.738 596.006 822.738 595.226C822.738 594.446 822.468 593.852 821.928 593.444C821.388 593.024 820.674 592.814 819.786 592.814C818.898 592.814 818.184 593.024 817.644 593.444C817.104 593.852 816.834 594.446 816.834 595.226C816.834 596.006 817.104 596.606 817.644 597.026Z" fill="black"/>
<path d="M1143.96 369C1142.75 368.912 1141.8 368.275 1141.26 367.024C1140.73 365.786 1141.02 364.41 1142 363.359C1143.59 361.646 1145.2 359.945 1146.79 358.244C1153.33 351.277 1159.87 344.298 1166.4 337.332C1166.72 336.994 1166.7 336.994 1166.39 336.657C1158.3 328.027 1150.19 319.397 1142.1 310.754C1141.63 310.254 1141.25 309.704 1141.1 309.003C1140.72 307.252 1141.63 305.601 1143.26 305.126C1144.45 304.776 1145.43 305.176 1146.27 306.064C1148.1 308.003 1149.91 309.941 1151.73 311.88C1158.8 319.422 1165.86 326.964 1172.93 334.493C1173.67 335.281 1174.08 336.181 1173.99 337.307C1173.92 338.157 1173.53 338.858 1172.97 339.458C1166.68 346.187 1160.37 352.903 1154.06 359.632C1151.5 362.371 1148.93 365.098 1146.37 367.837C1145.87 368.387 1145.27 368.762 1144.58 368.95C1144.41 369 1144.21 368.987 1143.96 369Z" fill="#E18370"/>
<path d="M30.0437 369C31.2515 368.912 32.2013 368.275 32.7407 367.024C33.2684 365.786 32.9752 364.41 32.002 363.359C30.4072 361.646 28.8007 359.945 27.206 358.244C20.6746 351.277 14.1314 344.298 7.6 337.332C7.2834 336.994 7.29512 336.994 7.61173 336.657C15.7027 328.027 23.8054 319.397 31.8964 310.754C32.3655 310.254 32.7524 309.704 32.9049 309.003C33.2801 307.252 32.3655 305.601 30.7355 305.126C29.5512 304.776 28.5662 305.176 27.7337 306.064C25.9044 308.003 24.0869 309.941 22.2693 311.88C15.1985 319.422 8.1394 326.964 1.06858 334.493C0.329834 335.281 -0.080574 336.181 0.0132332 337.307C0.0835915 338.157 0.470547 338.858 1.0334 339.458C7.31857 346.187 13.6272 352.903 19.9358 359.632C22.5038 362.371 25.0719 365.098 27.6281 367.837C28.1324 368.387 28.7304 368.762 29.4222 368.95C29.5864 369 29.7857 368.987 30.0437 369Z" fill="#E18370"/>
<path fill-rule="evenodd" clip-rule="evenodd" d="M463 29H503V32H463V29ZM463 42H503V45H463V42ZM503 55H463V58H503V55Z" fill="white"/>
<defs>
<filter id="filter0_d" x="426" y="113" width="438" height="547" filterUnits="userSpaceOnUse" color-interpolation-filters="sRGB">
<feFlood flood-opacity="0" result="BackgroundImageFix"/>
<feColorMatrix in="SourceAlpha" type="matrix" values="0 0 0 0 0 0 0 0 0 0 0 0 0 0 0 0 0 0 127 0"/>
<feOffset dy="4"/>
<feGaussianBlur stdDeviation="4"/>
<feColorMatrix type="matrix" values="0 0 0 0 0.882353 0 0 0 0 0.513726 0 0 0 0 0.439216 0 0 0 0.6 0"/>
<feBlend mode="normal" in2="BackgroundImageFix" result="effect1_dropShadow"/>
<feBlend mode="normal" in="SourceGraphic" in2="effect1_dropShadow" result="shape"/>
</filter>
<filter id="filter1_d" x="425" y="0" width="439" height="347" filterUnits="userSpaceOnUse" color-interpolation-filters="sRGB">
<feFlood flood-opacity="0" result="BackgroundImageFix"/>
<feColorMatrix in="SourceAlpha" type="matrix" values="0 0 0 0 0 0 0 0 0 0 0 0 0 0 0 0 0 0 127 0"/>
<feOffset dy="4"/>
<feGaussianBlur stdDeviation="4"/>
<feColorMatrix type="matrix" values="0 0 0 0 0.882353 0 0 0 0 0.513726 0 0 0 0 0.439216 0 0 0 0.6 0"/>
<feBlend mode="normal" in2="BackgroundImageFix" result="effect1_dropShadow"/>
<feBlend mode="normal" in="SourceGraphic" in2="effect1_dropShadow" result="shape"/>
</filter>
</defs>
</svg>
